<svg width="1248" height="385" viewBox="0 0 1248 385" fill="none" xmlns="http://www.w3.org/2000/svg">
<g clip-path="url(#clip0)">
<path fill-rule="evenodd" clip-rule="evenodd" d="M624 9C513 9 420.5 44.75 328 80.5C239.983 114.517 151.966 148.535 48.0097 151.752C40.345 151.989 36.5126 152.108 34.2563 154.435C32 156.762 32 160.508 32 168V200C32 207.492 32 211.238 34.2563 213.565C36.5126 215.892 40.345 216.011 48.0097 216.248C151.966 219.465 239.983 253.483 328 287.5C420.5 323.25 513 359 624 359C735 359 827.5 323.25 920 287.5C1008.02 253.483 1096.03 219.465 1199.99 216.248C1207.66 216.011 1211.49 215.892 1213.74 213.565C1216 211.238 1216 207.492 1216 200V168C1216 160.508 1216 156.762 1213.74 154.435C1211.49 152.108 1207.66 151.989 1199.99 151.752C1096.03 148.535 1008.02 114.517 920 80.5C827.5 44.75 735 9 624 9Z" fill="#F0F0F2"/>
<path d="M0 184H1248" stroke="#8090A6" stroke-width="2" stroke-linecap="round" stroke-linejoin="round"/>
<path d="M1232 168L1248 184L1232 200" stroke="#8090A6" stroke-width="2" stroke-linecap="round" stroke-linejoin="round"/>
<g filter="url(#filter0_d)">
<rect x="181" y="110" width="32" height="32" fill="#BC88C5"/>
</g>
<g filter="url(#filter1_d)">
<rect x="534" y="40" width="32" height="32" fill="#BC88C5"/>
</g>
<g filter="url(#filter2_d)">
<rect x="672" y="130" width="32" height="32" fill="#FFA454"/>
</g>
<g filter="url(#filter3_d)">
<rect x="566" y="229" width="32" height="32" fill="#7BDBFA"/>
</g>
<g filter="url(#filter4_d)">
<rect x="628" y="312" width="32" height="32" fill="#181818"/>
</g>
<g filter="url(#filter5_d)">
<rect x="650" width="32" height="32" fill="#F6D641"/>
</g>
<g filter="url(#filter6_d)">
<rect x="245" y="229" width="32" height="32" fill="#181818"/>
</g>
<g filter="url(#filter7_d)">
<rect x="528" y="104" width="32" height="32" fill="#181818"/>
</g>
<g filter="url(#filter8_d)">
<rect x="688" y="184" width="32" height="32" fill="#BC88C5"/>
</g>
<g filter="url(#filter9_d)">
<rect x="563" y="280" width="32" height="32" fill="#FFA454"/>
</g>
<g filter="url(#filter10_d)">
<rect x="640" y="353" width="32" height="32" fill="#F6D641"/>
</g>
<g filter="url(#filter11_d)">
<rect x="624" y="48" width="32" height="32" fill="#7BDBFA"/>
</g>
<g filter="url(#filter12_d)">
<rect x="287" y="261" width="32" height="32" fill="#7BDBFA"/>
</g>
<g filter="url(#filter13_d)">
<rect x="518" y="69" width="32" height="32" fill="#7BDBFA"/>
</g>
<g filter="url(#filter14_d)">
<rect x="660" y="170" width="32" height="32" fill="#F6D641"/>
</g>
<g filter="url(#filter15_d)">
<rect x="550" y="258" width="32" height="32" fill="#181818"/>
</g>
<g filter="url(#filter16_d)">
<rect x="618" y="338" width="32" height="32" fill="#FFA454"/>
</g>
<g filter="url(#filter17_d)">
<rect x="620" y="9" width="32" height="32" fill="#BC88C5"/>
</g>
<g filter="url(#filter18_d)">
<rect x="396" y="206" width="32" height="32" fill="#FFA454"/>
</g>
<g filter="url(#filter19_d)">
<rect x="544" y="80" width="32" height="32" fill="#FFA454"/>
</g>
<g filter="url(#filter20_d)">
<rect x="698" y="168" width="32" height="32" fill="#7BDBFA"/>
</g>
<g filter="url(#filter21_d)">
<rect x="588" y="274" width="32" height="32" fill="#F6D641"/>
</g>
<g filter="url(#filter22_d)">
<rect x="660" y="340" width="32" height="32" fill="#BC88C5"/>
</g>
<g filter="url(#filter23_d)">
<rect x="650" y="40" width="32" height="32" fill="#181818"/>
</g>
<g filter="url(#filter24_d)">
<rect x="300" y="130" width="32" height="32" fill="#F6D641"/>
</g>
<g filter="url(#filter25_d)">
<rect x="560" y="56" width="32" height="32" fill="#F6D641"/>
</g>
<g filter="url(#filter26_d)">
<rect x="688" y="146" width="32" height="32" fill="#181818"/>
</g>
<g filter="url(#filter27_d)">
<rect x="592" y="245" width="32" height="32" fill="#BC88C5"/>
</g>
<g filter="url(#filter28_d)">
<rect x="666" y="314" width="32" height="32" fill="#7BDBFA"/>
</g>
<g filter="url(#filter29_d)">
<rect x="666" y="16" width="32" height="32" fill="#FFA454"/>
</g>
<path opacity="0.6" d="M808 194H944C947.828 194 950.497 194.004 952.512 194.275C954.468 194.538 955.505 195.019 956.243 195.757C956.981 196.495 957.462 197.532 957.725 199.488C957.996 201.503 958 204.172 958 208V277C958 280.828 957.996 283.497 957.725 285.512C957.462 287.468 956.981 288.505 956.243 289.243C955.505 289.981 954.468 290.462 952.512 290.725C950.497 290.996 947.828 291 944 291H808C804.172 291 801.503 290.996 799.488 290.725C797.532 290.462 796.495 289.981 795.757 289.243C795.019 288.505 794.538 287.468 794.275 285.512C794.004 283.497 794 280.828 794 277V208C794 204.172 794.004 201.503 794.275 199.488C794.538 197.532 795.019 196.495 795.757 195.757C796.495 195.019 797.532 194.538 799.488 194.275C801.503 194.004 804.172 194 808 194Z" stroke="#8090A6" stroke-width="4"/>
<path opacity="0.6" d="M808 77H944C947.828 77 950.497 77.0042 952.512 77.2751C954.468 77.5381 955.505 78.0193 956.243 78.7574C956.981 79.4954 957.462 80.5316 957.725 82.4883C957.996 84.5026 958 87.1722 958 91V160C958 163.828 957.996 166.497 957.725 168.512C957.462 170.468 956.981 171.505 956.243 172.243C955.505 172.981 954.468 173.462 952.512 173.725C950.497 173.996 947.828 174 944 174H808C804.172 174 801.503 173.996 799.488 173.725C797.532 173.462 796.495 172.981 795.757 172.243C795.019 171.505 794.538 170.468 794.275 168.512C794.004 166.497 794 163.828 794 160V91C794 87.1722 794.004 84.5026 794.275 82.4883C794.538 80.5316 795.019 79.4954 795.757 78.7574C796.495 78.0193 797.532 77.5381 799.488 77.2751C801.503 77.0042 804.172 77 808 77Z" stroke="#8090A6" stroke-width="4"/>
<path d="M984 194H1120C1123.83 194 1126.5 194.004 1128.51 194.275C1130.47 194.538 1131.5 195.019 1132.24 195.757C1132.98 196.495 1133.46 197.532 1133.72 199.488C1134 201.503 1134 204.172 1134 208V277C1134 280.828 1134 283.497 1133.72 285.512C1133.46 287.468 1132.98 288.505 1132.24 289.243C1131.5 289.981 1130.47 290.462 1128.51 290.725C1126.5 290.996 1123.83 291 1120 291H984C980.172 291 977.503 290.996 975.488 290.725C973.532 290.462 972.495 289.981 971.757 289.243C971.019 288.505 970.538 287.468 970.275 285.512C970.004 283.497 970 280.828 970 277V208C970 204.172 970.004 201.503 970.275 199.488C970.538 197.532 971.019 196.495 971.757 195.757C972.495 195.019 973.532 194.538 975.488 194.275C977.503 194.004 980.172 194 984 194Z" fill="#896FC2" fill-opacity="0.16" stroke="#896FC2" stroke-width="4"/>
<path opacity="0.6" d="M984 77H1120C1123.83 77 1126.5 77.0042 1128.51 77.2751C1130.47 77.5381 1131.5 78.0193 1132.24 78.7574C1132.98 79.4954 1133.46 80.5316 1133.72 82.4883C1134 84.5026 1134 87.1722 1134 91V160C1134 163.828 1134 166.497 1133.72 168.512C1133.46 170.468 1132.98 171.505 1132.24 172.243C1131.5 172.981 1130.47 173.462 1128.51 173.725C1126.5 173.996 1123.83 174 1120 174H984C980.172 174 977.503 173.996 975.488 173.725C973.532 173.462 972.495 172.981 971.757 172.243C971.019 171.505 970.538 170.468 970.275 168.512C970.004 166.497 970 163.828 970 160V91C970 87.1722 970.004 84.5026 970.275 82.4883C970.538 80.5316 971.019 79.4954 971.757 78.7574C972.495 78.0193 973.532 77.5381 975.488 77.2751C977.503 77.0042 980.172 77 984 77Z" stroke="#8090A6" stroke-width="4"/>
<g filter="url(#filter30_d)">
<rect x="806" y="89" width="32" height="32" fill="#FBF5B0"/>
</g>
<g filter="url(#filter31_d)">
<rect x="1054" y="125" width="32" height="32" fill="#FBF5B0"/>
</g>
<g filter="url(#filter32_d)">
<rect x="982" y="242" width="32" height="32" fill="#FBF5B0"/>
</g>
<g filter="url(#filter33_d)">
<rect x="1054" y="89" width="32" height="32" fill="#FBF5B0"/>
</g>
<g filter="url(#filter34_d)">
<rect x="1018" y="125" width="32" height="32" fill="#FBF5B0"/>
</g>
<g filter="url(#filter35_d)">
<rect x="1018" y="206" width="32" height="32" fill="#FBF5B0"/>
</g>
<g filter="url(#filter36_d)">
<rect x="1152" y="168" width="32" height="32" fill="#FBF5B0"/>
</g>
<g filter="url(#filter37_d)">
<rect x="1054" y="206" width="32" height="32" fill="#FBF5B0"/>
</g>
<g filter="url(#filter38_d)">
<rect x="1152" y="204" width="32" height="32" fill="#FBF5B0"/>
</g>
<g filter="url(#filter39_d)">
<rect x="982" y="89" width="32" height="32" fill="#FBF5B0"/>
</g>
<g filter="url(#filter40_d)">
<rect x="842" y="89" width="32" height="32" fill="#FBF5B0"/>
</g>
<g filter="url(#filter41_d)">
<rect x="842" y="237" width="32" height="32" fill="#FBF5B0"/>
</g>
<g filter="url(#filter42_d)">
<rect x="806" y="207" width="32" height="32" fill="#FBF5B0"/>
</g>
<g filter="url(#filter43_d)">
<rect x="878" y="89" width="32" height="32" fill="#FBF5B0"/>
</g>
<g filter="url(#filter44_d)">
<rect x="1018" y="242" width="32" height="32" fill="#FBF5B0"/>
</g>
<g filter="url(#filter45_d)">
<rect x="1018" y="89" width="32" height="32" fill="#FBF5B0"/>
</g>
<g filter="url(#filter46_d)">
<rect x="982" y="125" width="32" height="32" fill="#FBF5B0"/>
</g>
<g filter="url(#filter47_d)">
<rect x="982" y="206" width="32" height="32" fill="#FBF5B0"/>
</g>
<g filter="url(#filter48_d)">
<rect x="1152" y="132" width="32" height="32" fill="#FBF5B0"/>
</g>
<path d="M1168.22 142.688C1168.33 142.917 1168.48 143.104 1168.66 143.25C1168.84 143.385 1169.03 143.526 1169.2 143.672C1169.42 144.078 1169.56 144.531 1169.61 145.031C1169.66 145.531 1169.72 146.078 1169.78 146.672C1169.78 147.151 1169.75 147.604 1169.69 148.031C1169.62 148.448 1169.54 148.859 1169.44 149.266C1169.34 149.661 1169.23 150.057 1169.11 150.453C1168.98 150.849 1168.86 151.266 1168.75 151.703C1168.6 151.859 1168.49 152.083 1168.41 152.375C1168.33 152.656 1168.33 152.932 1168.39 153.203C1168.26 153.37 1168.12 153.531 1167.98 153.688C1167.85 153.844 1167.7 153.99 1167.53 154.125C1167.47 154.062 1167.39 154.026 1167.28 154.016C1167.19 154.016 1167.09 154.016 1166.98 154.016C1166.88 154.026 1166.78 154.036 1166.69 154.047C1166.6 154.068 1166.54 154.073 1166.5 154.062C1166.45 153.979 1166.38 153.891 1166.28 153.797C1166.2 153.703 1166.12 153.604 1166.05 153.5C1165.98 153.396 1165.93 153.297 1165.89 153.203C1165.86 153.099 1165.87 153 1165.92 152.906C1165.92 152.792 1165.86 152.734 1165.73 152.734C1165.77 152.255 1165.84 151.786 1165.97 151.328C1166.09 150.859 1166.23 150.406 1166.39 149.969C1166.55 149.521 1166.7 149.078 1166.84 148.641C1167 148.203 1167.11 147.771 1167.19 147.344C1167.27 146.917 1167.29 146.49 1167.25 146.062C1167.22 145.635 1167.1 145.203 1166.89 144.766C1166.89 144.62 1166.89 144.5 1166.88 144.406C1166.88 144.302 1166.87 144.214 1166.86 144.141C1166.86 144.057 1166.85 143.979 1166.84 143.906C1166.83 143.833 1166.81 143.755 1166.78 143.672C1166.83 143.526 1166.87 143.391 1166.89 143.266C1166.92 143.141 1166.92 143.026 1166.89 142.922C1166.9 142.849 1166.92 142.792 1166.95 142.75C1166.98 142.698 1167.02 142.651 1167.06 142.609C1167.1 142.557 1167.14 142.51 1167.17 142.469C1167.21 142.417 1167.24 142.354 1167.25 142.281H1167.59C1167.71 142.375 1167.81 142.464 1167.89 142.547C1167.97 142.62 1168.08 142.667 1168.22 142.688Z" fill="black"/>
<path d="M1173.78 187.281C1174.03 187.406 1174.16 187.562 1174.16 187.75C1174.17 187.938 1174.11 188.115 1173.98 188.281C1173.87 188.438 1173.71 188.557 1173.52 188.641C1173.33 188.724 1173.16 188.719 1173 188.625C1172.98 188.708 1172.93 188.766 1172.86 188.797C1172.8 188.818 1172.76 188.865 1172.73 188.938C1171.72 189.094 1170.69 189.286 1169.64 189.516C1168.59 189.745 1167.54 189.917 1166.48 190.031C1165.67 190 1164.99 189.88 1164.45 189.672C1164.23 189.484 1164.07 189.25 1163.95 188.969C1163.85 188.688 1163.79 188.391 1163.77 188.078C1163.74 187.766 1163.76 187.464 1163.8 187.172C1163.84 186.87 1163.9 186.609 1163.98 186.391C1164.53 185.703 1165.09 185.047 1165.67 184.422C1166.27 183.786 1166.94 183.224 1167.69 182.734C1167.91 182.464 1168.16 182.234 1168.45 182.047C1168.74 181.849 1169.01 181.63 1169.25 181.391C1168.94 181.276 1168.61 181.219 1168.27 181.219C1167.92 181.219 1167.58 181.25 1167.25 181.312C1166.92 181.365 1166.6 181.432 1166.31 181.516C1166.02 181.599 1165.77 181.661 1165.55 181.703C1165.38 181.62 1165.18 181.573 1164.95 181.562C1164.73 181.552 1164.52 181.51 1164.3 181.438C1164.17 181.333 1164.08 181.198 1164.03 181.031C1163.99 180.865 1163.96 180.693 1163.95 180.516C1163.94 180.339 1163.94 180.172 1163.94 180.016C1163.94 179.849 1163.92 179.714 1163.88 179.609C1163.96 179.474 1164.03 179.339 1164.09 179.203C1164.17 179.068 1164.25 178.943 1164.34 178.828C1164.83 178.693 1165.38 178.583 1165.97 178.5C1166.56 178.406 1167.16 178.365 1167.77 178.375C1168.37 178.385 1168.95 178.464 1169.52 178.609C1170.08 178.745 1170.58 178.974 1171.02 179.297C1171.07 179.589 1171.18 179.823 1171.34 180C1171.51 180.167 1171.71 180.297 1171.95 180.391C1172.07 180.599 1172.17 180.812 1172.25 181.031C1172.33 181.24 1172.39 181.464 1172.42 181.703C1172.21 182.255 1171.92 182.724 1171.53 183.109C1171.16 183.484 1170.78 183.828 1170.39 184.141C1170.18 184.318 1169.96 184.469 1169.72 184.594C1169.48 184.719 1169.27 184.865 1169.09 185.031C1169.05 185.073 1169.03 185.13 1169.02 185.203C1169.01 185.266 1168.98 185.312 1168.94 185.344C1168.75 185.51 1168.54 185.661 1168.31 185.797C1168.08 185.922 1167.88 186.068 1167.69 186.234C1167.55 186.349 1167.44 186.474 1167.34 186.609C1167.26 186.745 1167.15 186.865 1167 186.969C1167.19 187.031 1167.37 187.057 1167.55 187.047C1167.73 187.036 1167.92 187.016 1168.11 186.984C1168.31 186.953 1168.51 186.922 1168.7 186.891C1168.91 186.859 1169.12 186.849 1169.34 186.859C1169.65 186.755 1169.98 186.667 1170.34 186.594C1170.71 186.51 1171.07 186.479 1171.44 186.5C1171.75 186.375 1172.05 186.286 1172.33 186.234C1172.62 186.172 1172.9 186.156 1173.16 186.188C1173.29 186.24 1173.39 186.333 1173.45 186.469C1173.53 186.604 1173.64 186.698 1173.78 186.75C1173.75 186.865 1173.74 186.948 1173.75 187C1173.77 187.052 1173.78 187.146 1173.78 187.281Z" fill="black"/>
<path d="M1009.77 267.672C1009.79 267.755 1009.8 267.833 1009.81 267.906C1009.82 267.979 1009.84 268.057 1009.86 268.141C1009.82 268.245 1009.78 268.349 1009.75 268.453C1009.72 268.547 1009.69 268.641 1009.66 268.734C1009.62 268.807 1009.6 268.854 1009.59 268.875C1009.58 268.896 1009.58 268.911 1009.58 268.922C1009.58 268.932 1009.58 268.948 1009.58 268.969C1009.59 268.979 1009.59 269.021 1009.59 269.094L1009.53 269.281C1009.48 269.354 1009.42 269.411 1009.34 269.453C1009.27 269.495 1009.2 269.531 1009.12 269.562C1009.1 269.583 1009.07 269.599 1009.03 269.609C1008.99 269.63 1008.96 269.651 1008.94 269.672L1008.89 269.859L1008.69 269.891C1008.51 269.932 1008.36 269.953 1008.23 269.953H1008.05C1007.92 269.839 1007.82 269.75 1007.75 269.688C1007.68 269.625 1007.6 269.568 1007.52 269.516C1007.41 269.37 1007.35 269.266 1007.34 269.203C1007.33 269.13 1007.32 269.062 1007.3 269C1007.28 268.865 1007.25 268.776 1007.22 268.734L1007 268.516L1007.19 268.375L1007.02 268.078C1007.14 267.984 1007.23 267.917 1007.3 267.875C1007.36 267.833 1007.41 267.792 1007.45 267.75C1007.49 267.698 1007.54 267.635 1007.59 267.562C1007.65 267.49 1007.73 267.37 1007.84 267.203L1007.98 267L1008.19 267.109C1008.23 267.141 1008.32 267.172 1008.45 267.203C1008.6 267.224 1008.72 267.245 1008.83 267.266C1009.01 267.318 1009.17 267.359 1009.33 267.391C1009.48 267.411 1009.61 267.464 1009.7 267.547L1009.77 267.672Z" fill="black"/>
<path d="M1005.77 267.672C1005.79 267.755 1005.8 267.833 1005.81 267.906C1005.82 267.979 1005.84 268.057 1005.86 268.141C1005.82 268.245 1005.78 268.349 1005.75 268.453C1005.72 268.547 1005.69 268.641 1005.66 268.734C1005.62 268.807 1005.6 268.854 1005.59 268.875C1005.58 268.896 1005.58 268.911 1005.58 268.922C1005.58 268.932 1005.58 268.948 1005.58 268.969C1005.59 268.979 1005.59 269.021 1005.59 269.094L1005.53 269.281C1005.48 269.354 1005.42 269.411 1005.34 269.453C1005.27 269.495 1005.2 269.531 1005.12 269.562C1005.1 269.583 1005.07 269.599 1005.03 269.609C1004.99 269.63 1004.96 269.651 1004.94 269.672L1004.89 269.859L1004.69 269.891C1004.51 269.932 1004.36 269.953 1004.23 269.953H1004.05C1003.92 269.839 1003.82 269.75 1003.75 269.688C1003.68 269.625 1003.6 269.568 1003.52 269.516C1003.41 269.37 1003.35 269.266 1003.34 269.203C1003.33 269.13 1003.32 269.062 1003.3 269C1003.28 268.865 1003.25 268.776 1003.22 268.734L1003 268.516L1003.19 268.375L1003.02 268.078C1003.14 267.984 1003.23 267.917 1003.3 267.875C1003.36 267.833 1003.41 267.792 1003.45 267.75C1003.49 267.698 1003.54 267.635 1003.59 267.562C1003.65 267.49 1003.73 267.37 1003.84 267.203L1003.98 267L1004.19 267.109C1004.23 267.141 1004.32 267.172 1004.45 267.203C1004.6 267.224 1004.72 267.245 1004.83 267.266C1005.01 267.318 1005.17 267.359 1005.33 267.391C1005.48 267.411 1005.61 267.464 1005.7 267.547L1005.77 267.672Z" fill="black"/>
<path d="M1001.77 267.672C1001.79 267.755 1001.8 267.833 1001.81 267.906C1001.82 267.979 1001.84 268.057 1001.86 268.141C1001.82 268.245 1001.78 268.349 1001.75 268.453C1001.72 268.547 1001.69 268.641 1001.66 268.734C1001.62 268.807 1001.6 268.854 1001.59 268.875C1001.58 268.896 1001.58 268.911 1001.58 268.922C1001.58 268.932 1001.58 268.948 1001.58 268.969C1001.59 268.979 1001.59 269.021 1001.59 269.094L1001.53 269.281C1001.48 269.354 1001.42 269.411 1001.34 269.453C1001.27 269.495 1001.2 269.531 1001.12 269.562C1001.1 269.583 1001.07 269.599 1001.03 269.609C1000.99 269.63 1000.96 269.651 1000.94 269.672L1000.89 269.859L1000.69 269.891C1000.51 269.932 1000.36 269.953 1000.23 269.953H1000.05C999.922 269.839 999.823 269.75 999.75 269.688C999.677 269.625 999.599 269.568 999.516 269.516C999.411 269.37 999.354 269.266 999.344 269.203C999.333 269.13 999.318 269.062 999.297 269C999.276 268.865 999.25 268.776 999.219 268.734L999 268.516L999.188 268.375L999.016 268.078C999.141 267.984 999.234 267.917 999.297 267.875C999.359 267.833 999.411 267.792 999.453 267.75C999.495 267.698 999.542 267.635 999.594 267.562C999.646 267.49 999.729 267.37 999.844 267.203L999.984 267L1000.19 267.109C1000.23 267.141 1000.32 267.172 1000.45 267.203C1000.6 267.224 1000.72 267.245 1000.83 267.266C1001.01 267.318 1001.17 267.359 1001.33 267.391C1001.48 267.411 1001.61 267.464 1001.7 267.547L1001.77 267.672Z" fill="black"/>
<path d="M1009.77 231.672C1009.79 231.755 1009.8 231.833 1009.81 231.906C1009.82 231.979 1009.84 232.057 1009.86 232.141C1009.82 232.245 1009.78 232.349 1009.75 232.453C1009.72 232.547 1009.69 232.641 1009.66 232.734C1009.62 232.807 1009.6 232.854 1009.59 232.875C1009.58 232.896 1009.58 232.911 1009.58 232.922C1009.58 232.932 1009.58 232.948 1009.58 232.969C1009.59 232.979 1009.59 233.021 1009.59 233.094L1009.53 233.281C1009.48 233.354 1009.42 233.411 1009.34 233.453C1009.27 233.495 1009.2 233.531 1009.12 233.562C1009.1 233.583 1009.07 233.599 1009.03 233.609C1008.99 233.63 1008.96 233.651 1008.94 233.672L1008.89 233.859L1008.69 233.891C1008.51 233.932 1008.36 233.953 1008.23 233.953H1008.05C1007.92 233.839 1007.82 233.75 1007.75 233.688C1007.68 233.625 1007.6 233.568 1007.52 233.516C1007.41 233.37 1007.35 233.266 1007.34 233.203C1007.33 233.13 1007.32 233.062 1007.3 233C1007.28 232.865 1007.25 232.776 1007.22 232.734L1007 232.516L1007.19 232.375L1007.02 232.078C1007.14 231.984 1007.23 231.917 1007.3 231.875C1007.36 231.833 1007.41 231.792 1007.45 231.75C1007.49 231.698 1007.54 231.635 1007.59 231.562C1007.65 231.49 1007.73 231.37 1007.84 231.203L1007.98 231L1008.19 231.109C1008.23 231.141 1008.32 231.172 1008.45 231.203C1008.6 231.224 1008.72 231.245 1008.83 231.266C1009.01 231.318 1009.17 231.359 1009.33 231.391C1009.48 231.411 1009.61 231.464 1009.7 231.547L1009.77 231.672Z" fill="black"/>
<path d="M1045.77 231.672C1045.79 231.755 1045.8 231.833 1045.81 231.906C1045.82 231.979 1045.84 232.057 1045.86 232.141C1045.82 232.245 1045.78 232.349 1045.75 232.453C1045.72 232.547 1045.69 232.641 1045.66 232.734C1045.62 232.807 1045.6 232.854 1045.59 232.875C1045.58 232.896 1045.58 232.911 1045.58 232.922C1045.58 232.932 1045.58 232.948 1045.58 232.969C1045.59 232.979 1045.59 233.021 1045.59 233.094L1045.53 233.281C1045.48 233.354 1045.42 233.411 1045.34 233.453C1045.27 233.495 1045.2 233.531 1045.12 233.562C1045.1 233.583 1045.07 233.599 1045.03 233.609C1044.99 233.63 1044.96 233.651 1044.94 233.672L1044.89 233.859L1044.69 233.891C1044.51 233.932 1044.36 233.953 1044.23 233.953H1044.05C1043.92 233.839 1043.82 233.75 1043.75 233.688C1043.68 233.625 1043.6 233.568 1043.52 233.516C1043.41 233.37 1043.35 233.266 1043.34 233.203C1043.33 233.13 1043.32 233.062 1043.3 233C1043.28 232.865 1043.25 232.776 1043.22 232.734L1043 232.516L1043.19 232.375L1043.02 232.078C1043.14 231.984 1043.23 231.917 1043.3 231.875C1043.36 231.833 1043.41 231.792 1043.45 231.75C1043.49 231.698 1043.54 231.635 1043.59 231.562C1043.65 231.49 1043.73 231.37 1043.84 231.203L1043.98 231L1044.19 231.109C1044.23 231.141 1044.32 231.172 1044.45 231.203C1044.6 231.224 1044.72 231.245 1044.83 231.266C1045.01 231.318 1045.17 231.359 1045.33 231.391C1045.48 231.411 1045.61 231.464 1045.7 231.547L1045.77 231.672Z" fill="black"/>
<path d="M1041.77 231.672C1041.79 231.755 1041.8 231.833 1041.81 231.906C1041.82 231.979 1041.84 232.057 1041.86 232.141C1041.82 232.245 1041.78 232.349 1041.75 232.453C1041.72 232.547 1041.69 232.641 1041.66 232.734C1041.62 232.807 1041.6 232.854 1041.59 232.875C1041.58 232.896 1041.58 232.911 1041.58 232.922C1041.58 232.932 1041.58 232.948 1041.58 232.969C1041.59 232.979 1041.59 233.021 1041.59 233.094L1041.53 233.281C1041.48 233.354 1041.42 233.411 1041.34 233.453C1041.27 233.495 1041.2 233.531 1041.12 233.562C1041.1 233.583 1041.07 233.599 1041.03 233.609C1040.99 233.63 1040.96 233.651 1040.94 233.672L1040.89 233.859L1040.69 233.891C1040.51 233.932 1040.36 233.953 1040.23 233.953H1040.05C1039.92 233.839 1039.82 233.75 1039.75 233.688C1039.68 233.625 1039.6 233.568 1039.52 233.516C1039.41 233.37 1039.35 233.266 1039.34 233.203C1039.33 233.13 1039.32 233.062 1039.3 233C1039.28 232.865 1039.25 232.776 1039.22 232.734L1039 232.516L1039.19 232.375L1039.02 232.078C1039.14 231.984 1039.23 231.917 1039.3 231.875C1039.36 231.833 1039.41 231.792 1039.45 231.75C1039.49 231.698 1039.54 231.635 1039.59 231.562C1039.65 231.49 1039.73 231.37 1039.84 231.203L1039.98 231L1040.19 231.109C1040.23 231.141 1040.32 231.172 1040.45 231.203C1040.6 231.224 1040.72 231.245 1040.83 231.266C1041.01 231.318 1041.17 231.359 1041.33 231.391C1041.48 231.411 1041.61 231.464 1041.7 231.547L1041.77 231.672Z" fill="black"/>
<path d="M1037.77 231.672C1037.79 231.755 1037.8 231.833 1037.81 231.906C1037.82 231.979 1037.84 232.057 1037.86 232.141C1037.82 232.245 1037.78 232.349 1037.75 232.453C1037.72 232.547 1037.69 232.641 1037.66 232.734C1037.62 232.807 1037.6 232.854 1037.59 232.875C1037.58 232.896 1037.58 232.911 1037.58 232.922C1037.58 232.932 1037.58 232.948 1037.58 232.969C1037.59 232.979 1037.59 233.021 1037.59 233.094L1037.53 233.281C1037.48 233.354 1037.42 233.411 1037.34 233.453C1037.27 233.495 1037.2 233.531 1037.12 233.562C1037.1 233.583 1037.07 233.599 1037.03 233.609C1036.99 233.63 1036.96 233.651 1036.94 233.672L1036.89 233.859L1036.69 233.891C1036.51 233.932 1036.36 233.953 1036.23 233.953H1036.05C1035.92 233.839 1035.82 233.75 1035.75 233.688C1035.68 233.625 1035.6 233.568 1035.52 233.516C1035.41 233.37 1035.35 233.266 1035.34 233.203C1035.33 233.13 1035.32 233.062 1035.3 233C1035.28 232.865 1035.25 232.776 1035.22 232.734L1035 232.516L1035.19 232.375L1035.02 232.078C1035.14 231.984 1035.23 231.917 1035.3 231.875C1035.36 231.833 1035.41 231.792 1035.45 231.75C1035.49 231.698 1035.54 231.635 1035.59 231.562C1035.65 231.49 1035.73 231.37 1035.84 231.203L1035.98 231L1036.19 231.109C1036.23 231.141 1036.32 231.172 1036.45 231.203C1036.6 231.224 1036.72 231.245 1036.83 231.266C1037.01 231.318 1037.17 231.359 1037.33 231.391C1037.48 231.411 1037.61 231.464 1037.7 231.547L1037.77 231.672Z" fill="black"/>
<path d="M1081.77 231.672C1081.79 231.755 1081.8 231.833 1081.81 231.906C1081.82 231.979 1081.84 232.057 1081.86 232.141C1081.82 232.245 1081.78 232.349 1081.75 232.453C1081.72 232.547 1081.69 232.641 1081.66 232.734C1081.62 232.807 1081.6 232.854 1081.59 232.875C1081.58 232.896 1081.58 232.911 1081.58 232.922C1081.58 232.932 1081.58 232.948 1081.58 232.969C1081.59 232.979 1081.59 233.021 1081.59 233.094L1081.53 233.281C1081.48 233.354 1081.42 233.411 1081.34 233.453C1081.27 233.495 1081.2 233.531 1081.12 233.562C1081.1 233.583 1081.07 233.599 1081.03 233.609C1080.99 233.63 1080.96 233.651 1080.94 233.672L1080.89 233.859L1080.69 233.891C1080.51 233.932 1080.36 233.953 1080.23 233.953H1080.05C1079.92 233.839 1079.82 233.75 1079.75 233.688C1079.68 233.625 1079.6 233.568 1079.52 233.516C1079.41 233.37 1079.35 233.266 1079.34 233.203C1079.33 233.13 1079.32 233.062 1079.3 233C1079.28 232.865 1079.25 232.776 1079.22 232.734L1079 232.516L1079.19 232.375L1079.02 232.078C1079.14 231.984 1079.23 231.917 1079.3 231.875C1079.36 231.833 1079.41 231.792 1079.45 231.75C1079.49 231.698 1079.54 231.635 1079.59 231.562C1079.65 231.49 1079.73 231.37 1079.84 231.203L1079.98 231L1080.19 231.109C1080.23 231.141 1080.32 231.172 1080.45 231.203C1080.6 231.224 1080.72 231.245 1080.83 231.266C1081.01 231.318 1081.17 231.359 1081.33 231.391C1081.48 231.411 1081.61 231.464 1081.7 231.547L1081.77 231.672Z" fill="black"/>
<path d="M1077.77 231.672C1077.79 231.755 1077.8 231.833 1077.81 231.906C1077.82 231.979 1077.84 232.057 1077.86 232.141C1077.82 232.245 1077.78 232.349 1077.75 232.453C1077.72 232.547 1077.69 232.641 1077.66 232.734C1077.62 232.807 1077.6 232.854 1077.59 232.875C1077.58 232.896 1077.58 232.911 1077.58 232.922C1077.58 232.932 1077.58 232.948 1077.58 232.969C1077.59 232.979 1077.59 233.021 1077.59 233.094L1077.53 233.281C1077.48 233.354 1077.42 233.411 1077.34 233.453C1077.27 233.495 1077.2 233.531 1077.12 233.562C1077.1 233.583 1077.07 233.599 1077.03 233.609C1076.99 233.63 1076.96 233.651 1076.94 233.672L1076.89 233.859L1076.69 233.891C1076.51 233.932 1076.36 233.953 1076.23 233.953H1076.05C1075.92 233.839 1075.82 233.75 1075.75 233.688C1075.68 233.625 1075.6 233.568 1075.52 233.516C1075.41 233.37 1075.35 233.266 1075.34 233.203C1075.33 233.13 1075.32 233.062 1075.3 233C1075.28 232.865 1075.25 232.776 1075.22 232.734L1075 232.516L1075.19 232.375L1075.02 232.078C1075.14 231.984 1075.23 231.917 1075.3 231.875C1075.36 231.833 1075.41 231.792 1075.45 231.75C1075.49 231.698 1075.54 231.635 1075.59 231.562C1075.65 231.49 1075.73 231.37 1075.84 231.203L1075.98 231L1076.19 231.109C1076.23 231.141 1076.32 231.172 1076.45 231.203C1076.6 231.224 1076.72 231.245 1076.83 231.266C1077.01 231.318 1077.17 231.359 1077.33 231.391C1077.48 231.411 1077.61 231.464 1077.7 231.547L1077.77 231.672Z" fill="black"/>
<path d="M1045.77 267.672C1045.79 267.755 1045.8 267.833 1045.81 267.906C1045.82 267.979 1045.84 268.057 1045.86 268.141C1045.82 268.245 1045.78 268.349 1045.75 268.453C1045.72 268.547 1045.69 268.641 1045.66 268.734C1045.62 268.807 1045.6 268.854 1045.59 268.875C1045.58 268.896 1045.58 268.911 1045.58 268.922C1045.58 268.932 1045.58 268.948 1045.58 268.969C1045.59 268.979 1045.59 269.021 1045.59 269.094L1045.53 269.281C1045.48 269.354 1045.42 269.411 1045.34 269.453C1045.27 269.495 1045.2 269.531 1045.12 269.562C1045.1 269.583 1045.07 269.599 1045.03 269.609C1044.99 269.63 1044.96 269.651 1044.94 269.672L1044.89 269.859L1044.69 269.891C1044.51 269.932 1044.36 269.953 1044.23 269.953H1044.05C1043.92 269.839 1043.82 269.75 1043.75 269.688C1043.68 269.625 1043.6 269.568 1043.52 269.516C1043.41 269.37 1043.35 269.266 1043.34 269.203C1043.33 269.13 1043.32 269.062 1043.3 269C1043.28 268.865 1043.25 268.776 1043.22 268.734L1043 268.516L1043.19 268.375L1043.02 268.078C1043.14 267.984 1043.23 267.917 1043.3 267.875C1043.36 267.833 1043.41 267.792 1043.45 267.75C1043.49 267.698 1043.54 267.635 1043.59 267.562C1043.65 267.49 1043.73 267.37 1043.84 267.203L1043.98 267L1044.19 267.109C1044.23 267.141 1044.32 267.172 1044.45 267.203C1044.6 267.224 1044.72 267.245 1044.83 267.266C1045.01 267.318 1045.17 267.359 1045.33 267.391C1045.48 267.411 1045.61 267.464 1045.7 267.547L1045.77 267.672Z" fill="black"/>
<path d="M1041.77 267.672C1041.79 267.755 1041.8 267.833 1041.81 267.906C1041.82 267.979 1041.84 268.057 1041.86 268.141C1041.82 268.245 1041.78 268.349 1041.75 268.453C1041.72 268.547 1041.69 268.641 1041.66 268.734C1041.62 268.807 1041.6 268.854 1041.59 268.875C1041.58 268.896 1041.58 268.911 1041.58 268.922C1041.58 268.932 1041.58 268.948 1041.58 268.969C1041.59 268.979 1041.59 269.021 1041.59 269.094L1041.53 269.281C1041.48 269.354 1041.42 269.411 1041.34 269.453C1041.27 269.495 1041.2 269.531 1041.12 269.562C1041.1 269.583 1041.07 269.599 1041.03 269.609C1040.99 269.63 1040.96 269.651 1040.94 269.672L1040.89 269.859L1040.69 269.891C1040.51 269.932 1040.36 269.953 1040.23 269.953H1040.05C1039.92 269.839 1039.82 269.75 1039.75 269.688C1039.68 269.625 1039.6 269.568 1039.52 269.516C1039.41 269.37 1039.35 269.266 1039.34 269.203C1039.33 269.13 1039.32 269.062 1039.3 269C1039.28 268.865 1039.25 268.776 1039.22 268.734L1039 268.516L1039.19 268.375L1039.02 268.078C1039.14 267.984 1039.23 267.917 1039.3 267.875C1039.36 267.833 1039.41 267.792 1039.45 267.75C1039.49 267.698 1039.54 267.635 1039.59 267.562C1039.65 267.49 1039.73 267.37 1039.84 267.203L1039.98 267L1040.19 267.109C1040.23 267.141 1040.32 267.172 1040.45 267.203C1040.6 267.224 1040.72 267.245 1040.83 267.266C1041.01 267.318 1041.17 267.359 1041.33 267.391C1041.48 267.411 1041.61 267.464 1041.7 267.547L1041.77 267.672Z" fill="black"/>
<path d="M1037.77 267.672C1037.79 267.755 1037.8 267.833 1037.81 267.906C1037.82 267.979 1037.84 268.057 1037.86 268.141C1037.82 268.245 1037.78 268.349 1037.75 268.453C1037.72 268.547 1037.69 268.641 1037.66 268.734C1037.62 268.807 1037.6 268.854 1037.59 268.875C1037.58 268.896 1037.58 268.911 1037.58 268.922C1037.58 268.932 1037.58 268.948 1037.58 268.969C1037.59 268.979 1037.59 269.021 1037.59 269.094L1037.53 269.281C1037.48 269.354 1037.42 269.411 1037.34 269.453C1037.27 269.495 1037.2 269.531 1037.12 269.562C1037.1 269.583 1037.07 269.599 1037.03 269.609C1036.99 269.63 1036.96 269.651 1036.94 269.672L1036.89 269.859L1036.69 269.891C1036.51 269.932 1036.36 269.953 1036.23 269.953H1036.05C1035.92 269.839 1035.82 269.75 1035.75 269.688C1035.68 269.625 1035.6 269.568 1035.52 269.516C1035.41 269.37 1035.35 269.266 1035.34 269.203C1035.33 269.13 1035.32 269.062 1035.3 269C1035.28 268.865 1035.25 268.776 1035.22 268.734L1035 268.516L1035.19 268.375L1035.02 268.078C1035.14 267.984 1035.23 267.917 1035.3 267.875C1035.36 267.833 1035.41 267.792 1035.45 267.75C1035.49 267.698 1035.54 267.635 1035.59 267.562C1035.65 267.49 1035.73 267.37 1035.84 267.203L1035.98 267L1036.19 267.109C1036.23 267.141 1036.32 267.172 1036.45 267.203C1036.6 267.224 1036.72 267.245 1036.83 267.266C1037.01 267.318 1037.17 267.359 1037.33 267.391C1037.48 267.411 1037.61 267.464 1037.7 267.547L1037.77 267.672Z" fill="black"/>
<path d="M1033.77 267.672C1033.79 267.755 1033.8 267.833 1033.81 267.906C1033.82 267.979 1033.84 268.057 1033.86 268.141C1033.82 268.245 1033.78 268.349 1033.75 268.453C1033.72 268.547 1033.69 268.641 1033.66 268.734C1033.62 268.807 1033.6 268.854 1033.59 268.875C1033.58 268.896 1033.58 268.911 1033.58 268.922C1033.58 268.932 1033.58 268.948 1033.58 268.969C1033.59 268.979 1033.59 269.021 1033.59 269.094L1033.53 269.281C1033.48 269.354 1033.42 269.411 1033.34 269.453C1033.27 269.495 1033.2 269.531 1033.12 269.562C1033.1 269.583 1033.07 269.599 1033.03 269.609C1032.99 269.63 1032.96 269.651 1032.94 269.672L1032.89 269.859L1032.69 269.891C1032.51 269.932 1032.36 269.953 1032.23 269.953H1032.05C1031.92 269.839 1031.82 269.75 1031.75 269.688C1031.68 269.625 1031.6 269.568 1031.52 269.516C1031.41 269.37 1031.35 269.266 1031.34 269.203C1031.33 269.13 1031.32 269.062 1031.3 269C1031.28 268.865 1031.25 268.776 1031.22 268.734L1031 268.516L1031.19 268.375L1031.02 268.078C1031.14 267.984 1031.23 267.917 1031.3 267.875C1031.36 267.833 1031.41 267.792 1031.45 267.75C1031.49 267.698 1031.54 267.635 1031.59 267.562C1031.65 267.49 1031.73 267.37 1031.84 267.203L1031.98 267L1032.19 267.109C1032.23 267.141 1032.32 267.172 1032.45 267.203C1032.6 267.224 1032.72 267.245 1032.83 267.266C1033.01 267.318 1033.17 267.359 1033.33 267.391C1033.48 267.411 1033.61 267.464 1033.7 267.547L1033.77 267.672Z" fill="black"/>
<path d="M1164.07 215.375C1164.64 215.26 1165.21 215.146 1165.77 215.031C1166.34 214.906 1166.9 214.802 1167.46 214.719C1168.03 214.635 1168.62 214.578 1169.21 214.547C1169.8 214.516 1170.43 214.531 1171.09 214.594C1171.35 214.865 1171.58 215.161 1171.77 215.484C1171.97 215.797 1172.16 216.125 1172.34 216.469C1172.32 216.542 1172.3 216.615 1172.29 216.688C1172.29 216.76 1172.28 216.839 1172.26 216.922C1172.21 217.057 1172.13 217.182 1172.04 217.297C1171.96 217.401 1171.89 217.526 1171.84 217.672C1171.58 217.818 1171.33 217.974 1171.09 218.141C1170.86 218.307 1170.63 218.479 1170.4 218.656C1170.21 218.74 1170.01 218.818 1169.8 218.891C1169.61 218.953 1169.46 219.078 1169.35 219.266C1169.7 219.411 1170 219.589 1170.26 219.797C1170.52 220.005 1170.75 220.24 1170.95 220.5C1171.14 220.76 1171.32 221.042 1171.46 221.344C1171.61 221.646 1171.74 221.958 1171.85 222.281C1171.83 222.438 1171.8 222.599 1171.77 222.766C1171.74 222.932 1171.74 223.073 1171.77 223.188C1171.7 223.406 1171.6 223.583 1171.48 223.719C1171.36 223.844 1171.25 224.016 1171.13 224.234C1170.77 224.391 1170.47 224.609 1170.24 224.891C1170.14 224.891 1170.09 224.87 1170.09 224.828C1169.76 225.047 1169.39 225.234 1168.96 225.391C1168.53 225.536 1168.08 225.651 1167.59 225.734C1167.1 225.818 1166.58 225.865 1166.04 225.875C1165.5 225.885 1164.96 225.865 1164.41 225.812C1164.37 225.781 1164.34 225.745 1164.3 225.703C1164.27 225.661 1164.21 225.646 1164.12 225.656C1164.08 225.552 1164.02 225.464 1163.95 225.391C1163.88 225.307 1163.83 225.214 1163.79 225.109C1163.89 224.943 1163.96 224.75 1163.99 224.531C1164.03 224.312 1164.08 224.104 1164.12 223.906C1164.17 223.698 1164.24 223.516 1164.32 223.359C1164.4 223.193 1164.54 223.073 1164.74 223C1164.83 222.99 1164.87 223.016 1164.88 223.078C1164.89 223.141 1164.92 223.182 1164.98 223.203C1165.38 223.203 1165.79 223.198 1166.2 223.188C1166.6 223.167 1166.99 223.13 1167.35 223.078C1167.72 223.016 1168.05 222.927 1168.37 222.812C1168.69 222.698 1168.97 222.536 1169.2 222.328C1168.88 222.078 1168.52 221.891 1168.1 221.766C1167.68 221.63 1167.28 221.5 1166.88 221.375C1166.5 221.25 1166.15 221.094 1165.85 220.906C1165.55 220.708 1165.35 220.422 1165.26 220.047C1165.31 219.807 1165.35 219.594 1165.37 219.406C1165.39 219.219 1165.41 219.047 1165.45 218.891C1165.48 218.734 1165.52 218.589 1165.59 218.453C1165.66 218.307 1165.77 218.167 1165.93 218.031C1165.88 218 1165.8 217.995 1165.7 218.016C1165.6 218.026 1165.5 218.052 1165.38 218.094C1165.27 218.125 1165.15 218.167 1165.04 218.219C1164.93 218.26 1164.85 218.297 1164.77 218.328C1164.55 218.276 1164.33 218.245 1164.1 218.234C1163.88 218.214 1163.68 218.146 1163.49 218.031C1163.47 217.917 1163.45 217.792 1163.41 217.656C1163.38 217.51 1163.36 217.365 1163.35 217.219C1163.34 217.073 1163.35 216.927 1163.38 216.781C1163.41 216.635 1163.49 216.5 1163.6 216.375C1163.58 216.302 1163.57 216.229 1163.55 216.156C1163.54 216.083 1163.52 216.021 1163.49 215.969C1163.61 215.875 1163.73 215.781 1163.85 215.688C1163.99 215.594 1164.06 215.49 1164.07 215.375Z" fill="black"/>
<g filter="url(#filter49_d)">
<rect x="822" y="204" width="32" height="32" fill="#FBF5B0"/>
</g>
<g filter="url(#filter50_d)">
<rect x="874" y="246" width="32" height="32" fill="#FBF5B0"/>
</g>
<g filter="url(#filter51_d)">
<rect x="1090" y="205" width="32" height="32" fill="#FBF5B0"/>
</g>
<g filter="url(#filter52_d)">
<rect x="838" y="206" width="32" height="32" fill="#FBF5B0"/>
</g>
<g filter="url(#filter53_d)">
<rect x="854" y="212" width="32" height="32" fill="#FBF5B0"/>
</g>
<g filter="url(#filter54_d)">
<rect x="870" y="206" width="32" height="32" fill="#FBF5B0"/>
</g>
<g filter="url(#filter55_d)">
<rect x="886" y="209" width="32" height="32" fill="#FBF5B0"/>
</g>
<g filter="url(#filter56_d)">
<rect x="902" y="205" width="32" height="32" fill="#FBF5B0"/>
</g>
<g filter="url(#filter57_d)">
<rect x="806" y="246" width="32" height="32" fill="#FBF5B0"/>
</g>
<path opacity="0.4" d="M1050 222C1088.25 222 1113.75 148 1152 148" stroke="#8090A6" stroke-width="2"/>
<path opacity="0.4" d="M1014 257C1065.75 257 1100.25 184 1152 184" stroke="#8090A6" stroke-width="2"/>
<path opacity="0.4" d="M1050 258C1088.25 258 1113.75 220 1152 220" stroke="#8090A6" stroke-width="2"/>
<path d="M1117.77 231.672C1117.79 231.755 1117.8 231.833 1117.81 231.906C1117.82 231.979 1117.84 232.057 1117.86 232.141C1117.82 232.245 1117.78 232.349 1117.75 232.453C1117.72 232.547 1117.69 232.641 1117.66 232.734C1117.62 232.807 1117.6 232.854 1117.59 232.875C1117.58 232.896 1117.58 232.911 1117.58 232.922C1117.58 232.932 1117.58 232.948 1117.58 232.969C1117.59 232.979 1117.59 233.021 1117.59 233.094L1117.53 233.281C1117.48 233.354 1117.42 233.411 1117.34 233.453C1117.27 233.495 1117.2 233.531 1117.12 233.562C1117.1 233.583 1117.07 233.599 1117.03 233.609C1116.99 233.63 1116.96 233.651 1116.94 233.672L1116.89 233.859L1116.69 233.891C1116.51 233.932 1116.36 233.953 1116.23 233.953H1116.05C1115.92 233.839 1115.82 233.75 1115.75 233.688C1115.68 233.625 1115.6 233.568 1115.52 233.516C1115.41 233.37 1115.35 233.266 1115.34 233.203C1115.33 233.13 1115.32 233.062 1115.3 233C1115.28 232.865 1115.25 232.776 1115.22 232.734L1115 232.516L1115.19 232.375L1115.02 232.078C1115.14 231.984 1115.23 231.917 1115.3 231.875C1115.36 231.833 1115.41 231.792 1115.45 231.75C1115.49 231.698 1115.54 231.635 1115.59 231.562C1115.65 231.49 1115.73 231.37 1115.84 231.203L1115.98 231L1116.19 231.109C1116.23 231.141 1116.32 231.172 1116.45 231.203C1116.6 231.224 1116.72 231.245 1116.83 231.266C1117.01 231.318 1117.17 231.359 1117.33 231.391C1117.48 231.411 1117.61 231.464 1117.7 231.547L1117.77 231.672Z" fill="black"/>
</g>
<defs>
<filter id="filter0_d" x="175" y="106" width="48" height="48" filterUnits="userSpaceOnUse" color-interpolation-filters="sRGB">
<feFlood flood-opacity="0" result="BackgroundImageFix"/>
<feColorMatrix in="SourceAlpha" type="matrix" values="0 0 0 0 0 0 0 0 0 0 0 0 0 0 0 0 0 0 127 0"/>
<feOffset dx="2" dy="4"/>
<feGaussianBlur stdDeviation="4"/>
<feColorMatrix type="matrix" values="0 0 0 0 0 0 0 0 0 0 0 0 0 0 0 0 0 0 0.16 0"/>
<feBlend mode="normal" in2="BackgroundImageFix" result="effect1_dropShadow"/>
<feBlend mode="normal" in="SourceGraphic" in2="effect1_dropShadow" result="shape"/>
</filter>
<filter id="filter1_d" x="528" y="36" width="48" height="48" filterUnits="userSpaceOnUse" color-interpolation-filters="sRGB">
<feFlood flood-opacity="0" result="BackgroundImageFix"/>
<feColorMatrix in="SourceAlpha" type="matrix" values="0 0 0 0 0 0 0 0 0 0 0 0 0 0 0 0 0 0 127 0"/>
<feOffset dx="2" dy="4"/>
<feGaussianBlur stdDeviation="4"/>
<feColorMatrix type="matrix" values="0 0 0 0 0 0 0 0 0 0 0 0 0 0 0 0 0 0 0.16 0"/>
<feBlend mode="normal" in2="BackgroundImageFix" result="effect1_dropShadow"/>
<feBlend mode="normal" in="SourceGraphic" in2="effect1_dropShadow" result="shape"/>
</filter>
<filter id="filter2_d" x="666" y="126" width="48" height="48" filterUnits="userSpaceOnUse" color-interpolation-filters="sRGB">
<feFlood flood-opacity="0" result="BackgroundImageFix"/>
<feColorMatrix in="SourceAlpha" type="matrix" values="0 0 0 0 0 0 0 0 0 0 0 0 0 0 0 0 0 0 127 0"/>
<feOffset dx="2" dy="4"/>
<feGaussianBlur stdDeviation="4"/>
<feColorMatrix type="matrix" values="0 0 0 0 0 0 0 0 0 0 0 0 0 0 0 0 0 0 0.16 0"/>
<feBlend mode="normal" in2="BackgroundImageFix" result="effect1_dropShadow"/>
<feBlend mode="normal" in="SourceGraphic" in2="effect1_dropShadow" result="shape"/>
</filter>
<filter id="filter3_d" x="560" y="225" width="48" height="48" filterUnits="userSpaceOnUse" color-interpolation-filters="sRGB">
<feFlood flood-opacity="0" result="BackgroundImageFix"/>
<feColorMatrix in="SourceAlpha" type="matrix" values="0 0 0 0 0 0 0 0 0 0 0 0 0 0 0 0 0 0 127 0"/>
<feOffset dx="2" dy="4"/>
<feGaussianBlur stdDeviation="4"/>
<feColorMatrix type="matrix" values="0 0 0 0 0 0 0 0 0 0 0 0 0 0 0 0 0 0 0.16 0"/>
<feBlend mode="normal" in2="BackgroundImageFix" result="effect1_dropShadow"/>
<feBlend mode="normal" in="SourceGraphic" in2="effect1_dropShadow" result="shape"/>
</filter>
<filter id="filter4_d" x="622" y="308" width="48" height="48" filterUnits="userSpaceOnUse" color-interpolation-filters="sRGB">
<feFlood flood-opacity="0" result="BackgroundImageFix"/>
<feColorMatrix in="SourceAlpha" type="matrix" values="0 0 0 0 0 0 0 0 0 0 0 0 0 0 0 0 0 0 127 0"/>
<feOffset dx="2" dy="4"/>
<feGaussianBlur stdDeviation="4"/>
<feColorMatrix type="matrix" values="0 0 0 0 0 0 0 0 0 0 0 0 0 0 0 0 0 0 0.16 0"/>
<feBlend mode="normal" in2="BackgroundImageFix" result="effect1_dropShadow"/>
<feBlend mode="normal" in="SourceGraphic" in2="effect1_dropShadow" result="shape"/>
</filter>
<filter id="filter5_d" x="644" y="-4" width="48" height="48" filterUnits="userSpaceOnUse" color-interpolation-filters="sRGB">
<feFlood flood-opacity="0" result="BackgroundImageFix"/>
<feColorMatrix in="SourceAlpha" type="matrix" values="0 0 0 0 0 0 0 0 0 0 0 0 0 0 0 0 0 0 127 0"/>
<feOffset dx="2" dy="4"/>
<feGaussianBlur stdDeviation="4"/>
<feColorMatrix type="matrix" values="0 0 0 0 0 0 0 0 0 0 0 0 0 0 0 0 0 0 0.16 0"/>
<feBlend mode="normal" in2="BackgroundImageFix" result="effect1_dropShadow"/>
<feBlend mode="normal" in="SourceGraphic" in2="effect1_dropShadow" result="shape"/>
</filter>
<filter id="filter6_d" x="239" y="225" width="48" height="48" filterUnits="userSpaceOnUse" color-interpolation-filters="sRGB">
<feFlood flood-opacity="0" result="BackgroundImageFix"/>
<feColorMatrix in="SourceAlpha" type="matrix" values="0 0 0 0 0 0 0 0 0 0 0 0 0 0 0 0 0 0 127 0"/>
<feOffset dx="2" dy="4"/>
<feGaussianBlur stdDeviation="4"/>
<feColorMatrix type="matrix" values="0 0 0 0 0 0 0 0 0 0 0 0 0 0 0 0 0 0 0.16 0"/>
<feBlend mode="normal" in2="BackgroundImageFix" result="effect1_dropShadow"/>
<feBlend mode="normal" in="SourceGraphic" in2="effect1_dropShadow" result="shape"/>
</filter>
<filter id="filter7_d" x="522" y="100" width="48" height="48" filterUnits="userSpaceOnUse" color-interpolation-filters="sRGB">
<feFlood flood-opacity="0" result="BackgroundImageFix"/>
<feColorMatrix in="SourceAlpha" type="matrix" values="0 0 0 0 0 0 0 0 0 0 0 0 0 0 0 0 0 0 127 0"/>
<feOffset dx="2" dy="4"/>
<feGaussianBlur stdDeviation="4"/>
<feColorMatrix type="matrix" values="0 0 0 0 0 0 0 0 0 0 0 0 0 0 0 0 0 0 0.16 0"/>
<feBlend mode="normal" in2="BackgroundImageFix" result="effect1_dropShadow"/>
<feBlend mode="normal" in="SourceGraphic" in2="effect1_dropShadow" result="shape"/>
</filter>
<filter id="filter8_d" x="682" y="180" width="48" height="48" filterUnits="userSpaceOnUse" color-interpolation-filters="sRGB">
<feFlood flood-opacity="0" result="BackgroundImageFix"/>
<feColorMatrix in="SourceAlpha" type="matrix" values="0 0 0 0 0 0 0 0 0 0 0 0 0 0 0 0 0 0 127 0"/>
<feOffset dx="2" dy="4"/>
<feGaussianBlur stdDeviation="4"/>
<feColorMatrix type="matrix" values="0 0 0 0 0 0 0 0 0 0 0 0 0 0 0 0 0 0 0.16 0"/>
<feBlend mode="normal" in2="BackgroundImageFix" result="effect1_dropShadow"/>
<feBlend mode="normal" in="SourceGraphic" in2="effect1_dropShadow" result="shape"/>
</filter>
<filter id="filter9_d" x="557" y="276" width="48" height="48" filterUnits="userSpaceOnUse" color-interpolation-filters="sRGB">
<feFlood flood-opacity="0" result="BackgroundImageFix"/>
<feColorMatrix in="SourceAlpha" type="matrix" values="0 0 0 0 0 0 0 0 0 0 0 0 0 0 0 0 0 0 127 0"/>
<feOffset dx="2" dy="4"/>
<feGaussianBlur stdDeviation="4"/>
<feColorMatrix type="matrix" values="0 0 0 0 0 0 0 0 0 0 0 0 0 0 0 0 0 0 0.16 0"/>
<feBlend mode="normal" in2="BackgroundImageFix" result="effect1_dropShadow"/>
<feBlend mode="normal" in="SourceGraphic" in2="effect1_dropShadow" result="shape"/>
</filter>
<filter id="filter10_d" x="634" y="349" width="48" height="48" filterUnits="userSpaceOnUse" color-interpolation-filters="sRGB">
<feFlood flood-opacity="0" result="BackgroundImageFix"/>
<feColorMatrix in="SourceAlpha" type="matrix" values="0 0 0 0 0 0 0 0 0 0 0 0 0 0 0 0 0 0 127 0"/>
<feOffset dx="2" dy="4"/>
<feGaussianBlur stdDeviation="4"/>
<feColorMatrix type="matrix" values="0 0 0 0 0 0 0 0 0 0 0 0 0 0 0 0 0 0 0.16 0"/>
<feBlend mode="normal" in2="BackgroundImageFix" result="effect1_dropShadow"/>
<feBlend mode="normal" in="SourceGraphic" in2="effect1_dropShadow" result="shape"/>
</filter>
<filter id="filter11_d" x="618" y="44" width="48" height="48" filterUnits="userSpaceOnUse" color-interpolation-filters="sRGB">
<feFlood flood-opacity="0" result="BackgroundImageFix"/>
<feColorMatrix in="SourceAlpha" type="matrix" values="0 0 0 0 0 0 0 0 0 0 0 0 0 0 0 0 0 0 127 0"/>
<feOffset dx="2" dy="4"/>
<feGaussianBlur stdDeviation="4"/>
<feColorMatrix type="matrix" values="0 0 0 0 0 0 0 0 0 0 0 0 0 0 0 0 0 0 0.16 0"/>
<feBlend mode="normal" in2="BackgroundImageFix" result="effect1_dropShadow"/>
<feBlend mode="normal" in="SourceGraphic" in2="effect1_dropShadow" result="shape"/>
</filter>
<filter id="filter12_d" x="281" y="257" width="48" height="48" filterUnits="userSpaceOnUse" color-interpolation-filters="sRGB">
<feFlood flood-opacity="0" result="BackgroundImageFix"/>
<feColorMatrix in="SourceAlpha" type="matrix" values="0 0 0 0 0 0 0 0 0 0 0 0 0 0 0 0 0 0 127 0"/>
<feOffset dx="2" dy="4"/>
<feGaussianBlur stdDeviation="4"/>
<feColorMatrix type="matrix" values="0 0 0 0 0 0 0 0 0 0 0 0 0 0 0 0 0 0 0.16 0"/>
<feBlend mode="normal" in2="BackgroundImageFix" result="effect1_dropShadow"/>
<feBlend mode="normal" in="SourceGraphic" in2="effect1_dropShadow" result="shape"/>
</filter>
<filter id="filter13_d" x="512" y="65" width="48" height="48" filterUnits="userSpaceOnUse" color-interpolation-filters="sRGB">
<feFlood flood-opacity="0" result="BackgroundImageFix"/>
<feColorMatrix in="SourceAlpha" type="matrix" values="0 0 0 0 0 0 0 0 0 0 0 0 0 0 0 0 0 0 127 0"/>
<feOffset dx="2" dy="4"/>
<feGaussianBlur stdDeviation="4"/>
<feColorMatrix type="matrix" values="0 0 0 0 0 0 0 0 0 0 0 0 0 0 0 0 0 0 0.16 0"/>
<feBlend mode="normal" in2="BackgroundImageFix" result="effect1_dropShadow"/>
<feBlend mode="normal" in="SourceGraphic" in2="effect1_dropShadow" result="shape"/>
</filter>
<filter id="filter14_d" x="654" y="166" width="48" height="48" filterUnits="userSpaceOnUse" color-interpolation-filters="sRGB">
<feFlood flood-opacity="0" result="BackgroundImageFix"/>
<feColorMatrix in="SourceAlpha" type="matrix" values="0 0 0 0 0 0 0 0 0 0 0 0 0 0 0 0 0 0 127 0"/>
<feOffset dx="2" dy="4"/>
<feGaussianBlur stdDeviation="4"/>
<feColorMatrix type="matrix" values="0 0 0 0 0 0 0 0 0 0 0 0 0 0 0 0 0 0 0.16 0"/>
<feBlend mode="normal" in2="BackgroundImageFix" result="effect1_dropShadow"/>
<feBlend mode="normal" in="SourceGraphic" in2="effect1_dropShadow" result="shape"/>
</filter>
<filter id="filter15_d" x="544" y="254" width="48" height="48" filterUnits="userSpaceOnUse" color-interpolation-filters="sRGB">
<feFlood flood-opacity="0" result="BackgroundImageFix"/>
<feColorMatrix in="SourceAlpha" type="matrix" values="0 0 0 0 0 0 0 0 0 0 0 0 0 0 0 0 0 0 127 0"/>
<feOffset dx="2" dy="4"/>
<feGaussianBlur stdDeviation="4"/>
<feColorMatrix type="matrix" values="0 0 0 0 0 0 0 0 0 0 0 0 0 0 0 0 0 0 0.16 0"/>
<feBlend mode="normal" in2="BackgroundImageFix" result="effect1_dropShadow"/>
<feBlend mode="normal" in="SourceGraphic" in2="effect1_dropShadow" result="shape"/>
</filter>
<filter id="filter16_d" x="612" y="334" width="48" height="48" filterUnits="userSpaceOnUse" color-interpolation-filters="sRGB">
<feFlood flood-opacity="0" result="BackgroundImageFix"/>
<feColorMatrix in="SourceAlpha" type="matrix" values="0 0 0 0 0 0 0 0 0 0 0 0 0 0 0 0 0 0 127 0"/>
<feOffset dx="2" dy="4"/>
<feGaussianBlur stdDeviation="4"/>
<feColorMatrix type="matrix" values="0 0 0 0 0 0 0 0 0 0 0 0 0 0 0 0 0 0 0.16 0"/>
<feBlend mode="normal" in2="BackgroundImageFix" result="effect1_dropShadow"/>
<feBlend mode="normal" in="SourceGraphic" in2="effect1_dropShadow" result="shape"/>
</filter>
<filter id="filter17_d" x="614" y="5" width="48" height="48" filterUnits="userSpaceOnUse" color-interpolation-filters="sRGB">
<feFlood flood-opacity="0" result="BackgroundImageFix"/>
<feColorMatrix in="SourceAlpha" type="matrix" values="0 0 0 0 0 0 0 0 0 0 0 0 0 0 0 0 0 0 127 0"/>
<feOffset dx="2" dy="4"/>
<feGaussianBlur stdDeviation="4"/>
<feColorMatrix type="matrix" values="0 0 0 0 0 0 0 0 0 0 0 0 0 0 0 0 0 0 0.16 0"/>
<feBlend mode="normal" in2="BackgroundImageFix" result="effect1_dropShadow"/>
<feBlend mode="normal" in="SourceGraphic" in2="effect1_dropShadow" result="shape"/>
</filter>
<filter id="filter18_d" x="390" y="202" width="48" height="48" filterUnits="userSpaceOnUse" color-interpolation-filters="sRGB">
<feFlood flood-opacity="0" result="BackgroundImageFix"/>
<feColorMatrix in="SourceAlpha" type="matrix" values="0 0 0 0 0 0 0 0 0 0 0 0 0 0 0 0 0 0 127 0"/>
<feOffset dx="2" dy="4"/>
<feGaussianBlur stdDeviation="4"/>
<feColorMatrix type="matrix" values="0 0 0 0 0 0 0 0 0 0 0 0 0 0 0 0 0 0 0.16 0"/>
<feBlend mode="normal" in2="BackgroundImageFix" result="effect1_dropShadow"/>
<feBlend mode="normal" in="SourceGraphic" in2="effect1_dropShadow" result="shape"/>
</filter>
<filter id="filter19_d" x="538" y="76" width="48" height="48" filterUnits="userSpaceOnUse" color-interpolation-filters="sRGB">
<feFlood flood-opacity="0" result="BackgroundImageFix"/>
<feColorMatrix in="SourceAlpha" type="matrix" values="0 0 0 0 0 0 0 0 0 0 0 0 0 0 0 0 0 0 127 0"/>
<feOffset dx="2" dy="4"/>
<feGaussianBlur stdDeviation="4"/>
<feColorMatrix type="matrix" values="0 0 0 0 0 0 0 0 0 0 0 0 0 0 0 0 0 0 0.16 0"/>
<feBlend mode="normal" in2="BackgroundImageFix" result="effect1_dropShadow"/>
<feBlend mode="normal" in="SourceGraphic" in2="effect1_dropShadow" result="shape"/>
</filter>
<filter id="filter20_d" x="692" y="164" width="48" height="48" filterUnits="userSpaceOnUse" color-interpolation-filters="sRGB">
<feFlood flood-opacity="0" result="BackgroundImageFix"/>
<feColorMatrix in="SourceAlpha" type="matrix" values="0 0 0 0 0 0 0 0 0 0 0 0 0 0 0 0 0 0 127 0"/>
<feOffset dx="2" dy="4"/>
<feGaussianBlur stdDeviation="4"/>
<feColorMatrix type="matrix" values="0 0 0 0 0 0 0 0 0 0 0 0 0 0 0 0 0 0 0.16 0"/>
<feBlend mode="normal" in2="BackgroundImageFix" result="effect1_dropShadow"/>
<feBlend mode="normal" in="SourceGraphic" in2="effect1_dropShadow" result="shape"/>
</filter>
<filter id="filter21_d" x="582" y="270" width="48" height="48" filterUnits="userSpaceOnUse" color-interpolation-filters="sRGB">
<feFlood flood-opacity="0" result="BackgroundImageFix"/>
<feColorMatrix in="SourceAlpha" type="matrix" values="0 0 0 0 0 0 0 0 0 0 0 0 0 0 0 0 0 0 127 0"/>
<feOffset dx="2" dy="4"/>
<feGaussianBlur stdDeviation="4"/>
<feColorMatrix type="matrix" values="0 0 0 0 0 0 0 0 0 0 0 0 0 0 0 0 0 0 0.16 0"/>
<feBlend mode="normal" in2="BackgroundImageFix" result="effect1_dropShadow"/>
<feBlend mode="normal" in="SourceGraphic" in2="effect1_dropShadow" result="shape"/>
</filter>
<filter id="filter22_d" x="654" y="336" width="48" height="48" filterUnits="userSpaceOnUse" color-interpolation-filters="sRGB">
<feFlood flood-opacity="0" result="BackgroundImageFix"/>
<feColorMatrix in="SourceAlpha" type="matrix" values="0 0 0 0 0 0 0 0 0 0 0 0 0 0 0 0 0 0 127 0"/>
<feOffset dx="2" dy="4"/>
<feGaussianBlur stdDeviation="4"/>
<feColorMatrix type="matrix" values="0 0 0 0 0 0 0 0 0 0 0 0 0 0 0 0 0 0 0.16 0"/>
<feBlend mode="normal" in2="BackgroundImageFix" result="effect1_dropShadow"/>
<feBlend mode="normal" in="SourceGraphic" in2="effect1_dropShadow" result="shape"/>
</filter>
<filter id="filter23_d" x="644" y="36" width="48" height="48" filterUnits="userSpaceOnUse" color-interpolation-filters="sRGB">
<feFlood flood-opacity="0" result="BackgroundImageFix"/>
<feColorMatrix in="SourceAlpha" type="matrix" values="0 0 0 0 0 0 0 0 0 0 0 0 0 0 0 0 0 0 127 0"/>
<feOffset dx="2" dy="4"/>
<feGaussianBlur stdDeviation="4"/>
<feColorMatrix type="matrix" values="0 0 0 0 0 0 0 0 0 0 0 0 0 0 0 0 0 0 0.16 0"/>
<feBlend mode="normal" in2="BackgroundImageFix" result="effect1_dropShadow"/>
<feBlend mode="normal" in="SourceGraphic" in2="effect1_dropShadow" result="shape"/>
</filter>
<filter id="filter24_d" x="294" y="126" width="48" height="48" filterUnits="userSpaceOnUse" color-interpolation-filters="sRGB">
<feFlood flood-opacity="0" result="BackgroundImageFix"/>
<feColorMatrix in="SourceAlpha" type="matrix" values="0 0 0 0 0 0 0 0 0 0 0 0 0 0 0 0 0 0 127 0"/>
<feOffset dx="2" dy="4"/>
<feGaussianBlur stdDeviation="4"/>
<feColorMatrix type="matrix" values="0 0 0 0 0 0 0 0 0 0 0 0 0 0 0 0 0 0 0.16 0"/>
<feBlend mode="normal" in2="BackgroundImageFix" result="effect1_dropShadow"/>
<feBlend mode="normal" in="SourceGraphic" in2="effect1_dropShadow" result="shape"/>
</filter>
<filter id="filter25_d" x="554" y="52" width="48" height="48" filterUnits="userSpaceOnUse" color-interpolation-filters="sRGB">
<feFlood flood-opacity="0" result="BackgroundImageFix"/>
<feColorMatrix in="SourceAlpha" type="matrix" values="0 0 0 0 0 0 0 0 0 0 0 0 0 0 0 0 0 0 127 0"/>
<feOffset dx="2" dy="4"/>
<feGaussianBlur stdDeviation="4"/>
<feColorMatrix type="matrix" values="0 0 0 0 0 0 0 0 0 0 0 0 0 0 0 0 0 0 0.16 0"/>
<feBlend mode="normal" in2="BackgroundImageFix" result="effect1_dropShadow"/>
<feBlend mode="normal" in="SourceGraphic" in2="effect1_dropShadow" result="shape"/>
</filter>
<filter id="filter26_d" x="682" y="142" width="48" height="48" filterUnits="userSpaceOnUse" color-interpolation-filters="sRGB">
<feFlood flood-opacity="0" result="BackgroundImageFix"/>
<feColorMatrix in="SourceAlpha" type="matrix" values="0 0 0 0 0 0 0 0 0 0 0 0 0 0 0 0 0 0 127 0"/>
<feOffset dx="2" dy="4"/>
<feGaussianBlur stdDeviation="4"/>
<feColorMatrix type="matrix" values="0 0 0 0 0 0 0 0 0 0 0 0 0 0 0 0 0 0 0.16 0"/>
<feBlend mode="normal" in2="BackgroundImageFix" result="effect1_dropShadow"/>
<feBlend mode="normal" in="SourceGraphic" in2="effect1_dropShadow" result="shape"/>
</filter>
<filter id="filter27_d" x="586" y="241" width="48" height="48" filterUnits="userSpaceOnUse" color-interpolation-filters="sRGB">
<feFlood flood-opacity="0" result="BackgroundImageFix"/>
<feColorMatrix in="SourceAlpha" type="matrix" values="0 0 0 0 0 0 0 0 0 0 0 0 0 0 0 0 0 0 127 0"/>
<feOffset dx="2" dy="4"/>
<feGaussianBlur stdDeviation="4"/>
<feColorMatrix type="matrix" values="0 0 0 0 0 0 0 0 0 0 0 0 0 0 0 0 0 0 0.16 0"/>
<feBlend mode="normal" in2="BackgroundImageFix" result="effect1_dropShadow"/>
<feBlend mode="normal" in="SourceGraphic" in2="effect1_dropShadow" result="shape"/>
</filter>
<filter id="filter28_d" x="660" y="310" width="48" height="48" filterUnits="userSpaceOnUse" color-interpolation-filters="sRGB">
<feFlood flood-opacity="0" result="BackgroundImageFix"/>
<feColorMatrix in="SourceAlpha" type="matrix" values="0 0 0 0 0 0 0 0 0 0 0 0 0 0 0 0 0 0 127 0"/>
<feOffset dx="2" dy="4"/>
<feGaussianBlur stdDeviation="4"/>
<feColorMatrix type="matrix" values="0 0 0 0 0 0 0 0 0 0 0 0 0 0 0 0 0 0 0.16 0"/>
<feBlend mode="normal" in2="BackgroundImageFix" result="effect1_dropShadow"/>
<feBlend mode="normal" in="SourceGraphic" in2="effect1_dropShadow" result="shape"/>
</filter>
<filter id="filter29_d" x="660" y="12" width="48" height="48" filterUnits="userSpaceOnUse" color-interpolation-filters="sRGB">
<feFlood flood-opacity="0" result="BackgroundImageFix"/>
<feColorMatrix in="SourceAlpha" type="matrix" values="0 0 0 0 0 0 0 0 0 0 0 0 0 0 0 0 0 0 127 0"/>
<feOffset dx="2" dy="4"/>
<feGaussianBlur stdDeviation="4"/>
<feColorMatrix type="matrix" values="0 0 0 0 0 0 0 0 0 0 0 0 0 0 0 0 0 0 0.16 0"/>
<feBlend mode="normal" in2="BackgroundImageFix" result="effect1_dropShadow"/>
<feBlend mode="normal" in="SourceGraphic" in2="effect1_dropShadow" result="shape"/>
</filter>
<filter id="filter30_d" x="800" y="85" width="48" height="48" filterUnits="userSpaceOnUse" color-interpolation-filters="sRGB">
<feFlood flood-opacity="0" result="BackgroundImageFix"/>
<feColorMatrix in="SourceAlpha" type="matrix" values="0 0 0 0 0 0 0 0 0 0 0 0 0 0 0 0 0 0 127 0"/>
<feOffset dx="2" dy="4"/>
<feGaussianBlur stdDeviation="4"/>
<feColorMatrix type="matrix" values="0 0 0 0 0 0 0 0 0 0 0 0 0 0 0 0 0 0 0.16 0"/>
<feBlend mode="normal" in2="BackgroundImageFix" result="effect1_dropShadow"/>
<feBlend mode="normal" in="SourceGraphic" in2="effect1_dropShadow" result="shape"/>
</filter>
<filter id="filter31_d" x="1048" y="121" width="48" height="48" filterUnits="userSpaceOnUse" color-interpolation-filters="sRGB">
<feFlood flood-opacity="0" result="BackgroundImageFix"/>
<feColorMatrix in="SourceAlpha" type="matrix" values="0 0 0 0 0 0 0 0 0 0 0 0 0 0 0 0 0 0 127 0"/>
<feOffset dx="2" dy="4"/>
<feGaussianBlur stdDeviation="4"/>
<feColorMatrix type="matrix" values="0 0 0 0 0 0 0 0 0 0 0 0 0 0 0 0 0 0 0.16 0"/>
<feBlend mode="normal" in2="BackgroundImageFix" result="effect1_dropShadow"/>
<feBlend mode="normal" in="SourceGraphic" in2="effect1_dropShadow" result="shape"/>
</filter>
<filter id="filter32_d" x="976" y="238" width="48" height="48" filterUnits="userSpaceOnUse" color-interpolation-filters="sRGB">
<feFlood flood-opacity="0" result="BackgroundImageFix"/>
<feColorMatrix in="SourceAlpha" type="matrix" values="0 0 0 0 0 0 0 0 0 0 0 0 0 0 0 0 0 0 127 0"/>
<feOffset dx="2" dy="4"/>
<feGaussianBlur stdDeviation="4"/>
<feColorMatrix type="matrix" values="0 0 0 0 0 0 0 0 0 0 0 0 0 0 0 0 0 0 0.16 0"/>
<feBlend mode="normal" in2="BackgroundImageFix" result="effect1_dropShadow"/>
<feBlend mode="normal" in="SourceGraphic" in2="effect1_dropShadow" result="shape"/>
</filter>
<filter id="filter33_d" x="1048" y="85" width="48" height="48" filterUnits="userSpaceOnUse" color-interpolation-filters="sRGB">
<feFlood flood-opacity="0" result="BackgroundImageFix"/>
<feColorMatrix in="SourceAlpha" type="matrix" values="0 0 0 0 0 0 0 0 0 0 0 0 0 0 0 0 0 0 127 0"/>
<feOffset dx="2" dy="4"/>
<feGaussianBlur stdDeviation="4"/>
<feColorMatrix type="matrix" values="0 0 0 0 0 0 0 0 0 0 0 0 0 0 0 0 0 0 0.16 0"/>
<feBlend mode="normal" in2="BackgroundImageFix" result="effect1_dropShadow"/>
<feBlend mode="normal" in="SourceGraphic" in2="effect1_dropShadow" result="shape"/>
</filter>
<filter id="filter34_d" x="1012" y="121" width="48" height="48" filterUnits="userSpaceOnUse" color-interpolation-filters="sRGB">
<feFlood flood-opacity="0" result="BackgroundImageFix"/>
<feColorMatrix in="SourceAlpha" type="matrix" values="0 0 0 0 0 0 0 0 0 0 0 0 0 0 0 0 0 0 127 0"/>
<feOffset dx="2" dy="4"/>
<feGaussianBlur stdDeviation="4"/>
<feColorMatrix type="matrix" values="0 0 0 0 0 0 0 0 0 0 0 0 0 0 0 0 0 0 0.16 0"/>
<feBlend mode="normal" in2="BackgroundImageFix" result="effect1_dropShadow"/>
<feBlend mode="normal" in="SourceGraphic" in2="effect1_dropShadow" result="shape"/>
</filter>
<filter id="filter35_d" x="1012" y="202" width="48" height="48" filterUnits="userSpaceOnUse" color-interpolation-filters="sRGB">
<feFlood flood-opacity="0" result="BackgroundImageFix"/>
<feColorMatrix in="SourceAlpha" type="matrix" values="0 0 0 0 0 0 0 0 0 0 0 0 0 0 0 0 0 0 127 0"/>
<feOffset dx="2" dy="4"/>
<feGaussianBlur stdDeviation="4"/>
<feColorMatrix type="matrix" values="0 0 0 0 0 0 0 0 0 0 0 0 0 0 0 0 0 0 0.16 0"/>
<feBlend mode="normal" in2="BackgroundImageFix" result="effect1_dropShadow"/>
<feBlend mode="normal" in="SourceGraphic" in2="effect1_dropShadow" result="shape"/>
</filter>
<filter id="filter36_d" x="1146" y="164" width="48" height="48" filterUnits="userSpaceOnUse" color-interpolation-filters="sRGB">
<feFlood flood-opacity="0" result="BackgroundImageFix"/>
<feColorMatrix in="SourceAlpha" type="matrix" values="0 0 0 0 0 0 0 0 0 0 0 0 0 0 0 0 0 0 127 0"/>
<feOffset dx="2" dy="4"/>
<feGaussianBlur stdDeviation="4"/>
<feColorMatrix type="matrix" values="0 0 0 0 0 0 0 0 0 0 0 0 0 0 0 0 0 0 0.16 0"/>
<feBlend mode="normal" in2="BackgroundImageFix" result="effect1_dropShadow"/>
<feBlend mode="normal" in="SourceGraphic" in2="effect1_dropShadow" result="shape"/>
</filter>
<filter id="filter37_d" x="1048" y="202" width="48" height="48" filterUnits="userSpaceOnUse" color-interpolation-filters="sRGB">
<feFlood flood-opacity="0" result="BackgroundImageFix"/>
<feColorMatrix in="SourceAlpha" type="matrix" values="0 0 0 0 0 0 0 0 0 0 0 0 0 0 0 0 0 0 127 0"/>
<feOffset dx="2" dy="4"/>
<feGaussianBlur stdDeviation="4"/>
<feColorMatrix type="matrix" values="0 0 0 0 0 0 0 0 0 0 0 0 0 0 0 0 0 0 0.16 0"/>
<feBlend mode="normal" in2="BackgroundImageFix" result="effect1_dropShadow"/>
<feBlend mode="normal" in="SourceGraphic" in2="effect1_dropShadow" result="shape"/>
</filter>
<filter id="filter38_d" x="1146" y="200" width="48" height="48" filterUnits="userSpaceOnUse" color-interpolation-filters="sRGB">
<feFlood flood-opacity="0" result="BackgroundImageFix"/>
<feColorMatrix in="SourceAlpha" type="matrix" values="0 0 0 0 0 0 0 0 0 0 0 0 0 0 0 0 0 0 127 0"/>
<feOffset dx="2" dy="4"/>
<feGaussianBlur stdDeviation="4"/>
<feColorMatrix type="matrix" values="0 0 0 0 0 0 0 0 0 0 0 0 0 0 0 0 0 0 0.16 0"/>
<feBlend mode="normal" in2="BackgroundImageFix" result="effect1_dropShadow"/>
<feBlend mode="normal" in="SourceGraphic" in2="effect1_dropShadow" result="shape"/>
</filter>
<filter id="filter39_d" x="976" y="85" width="48" height="48" filterUnits="userSpaceOnUse" color-interpolation-filters="sRGB">
<feFlood flood-opacity="0" result="BackgroundImageFix"/>
<feColorMatrix in="SourceAlpha" type="matrix" values="0 0 0 0 0 0 0 0 0 0 0 0 0 0 0 0 0 0 127 0"/>
<feOffset dx="2" dy="4"/>
<feGaussianBlur stdDeviation="4"/>
<feColorMatrix type="matrix" values="0 0 0 0 0 0 0 0 0 0 0 0 0 0 0 0 0 0 0.16 0"/>
<feBlend mode="normal" in2="BackgroundImageFix" result="effect1_dropShadow"/>
<feBlend mode="normal" in="SourceGraphic" in2="effect1_dropShadow" result="shape"/>
</filter>
<filter id="filter40_d" x="836" y="85" width="48" height="48" filterUnits="userSpaceOnUse" color-interpolation-filters="sRGB">
<feFlood flood-opacity="0" result="BackgroundImageFix"/>
<feColorMatrix in="SourceAlpha" type="matrix" values="0 0 0 0 0 0 0 0 0 0 0 0 0 0 0 0 0 0 127 0"/>
<feOffset dx="2" dy="4"/>
<feGaussianBlur stdDeviation="4"/>
<feColorMatrix type="matrix" values="0 0 0 0 0 0 0 0 0 0 0 0 0 0 0 0 0 0 0.16 0"/>
<feBlend mode="normal" in2="BackgroundImageFix" result="effect1_dropShadow"/>
<feBlend mode="normal" in="SourceGraphic" in2="effect1_dropShadow" result="shape"/>
</filter>
<filter id="filter41_d" x="836" y="233" width="48" height="48" filterUnits="userSpaceOnUse" color-interpolation-filters="sRGB">
<feFlood flood-opacity="0" result="BackgroundImageFix"/>
<feColorMatrix in="SourceAlpha" type="matrix" values="0 0 0 0 0 0 0 0 0 0 0 0 0 0 0 0 0 0 127 0"/>
<feOffset dx="2" dy="4"/>
<feGaussianBlur stdDeviation="4"/>
<feColorMatrix type="matrix" values="0 0 0 0 0 0 0 0 0 0 0 0 0 0 0 0 0 0 0.16 0"/>
<feBlend mode="normal" in2="BackgroundImageFix" result="effect1_dropShadow"/>
<feBlend mode="normal" in="SourceGraphic" in2="effect1_dropShadow" result="shape"/>
</filter>
<filter id="filter42_d" x="800" y="203" width="48" height="48" filterUnits="userSpaceOnUse" color-interpolation-filters="sRGB">
<feFlood flood-opacity="0" result="BackgroundImageFix"/>
<feColorMatrix in="SourceAlpha" type="matrix" values="0 0 0 0 0 0 0 0 0 0 0 0 0 0 0 0 0 0 127 0"/>
<feOffset dx="2" dy="4"/>
<feGaussianBlur stdDeviation="4"/>
<feColorMatrix type="matrix" values="0 0 0 0 0 0 0 0 0 0 0 0 0 0 0 0 0 0 0.16 0"/>
<feBlend mode="normal" in2="BackgroundImageFix" result="effect1_dropShadow"/>
<feBlend mode="normal" in="SourceGraphic" in2="effect1_dropShadow" result="shape"/>
</filter>
<filter id="filter43_d" x="872" y="85" width="48" height="48" filterUnits="userSpaceOnUse" color-interpolation-filters="sRGB">
<feFlood flood-opacity="0" result="BackgroundImageFix"/>
<feColorMatrix in="SourceAlpha" type="matrix" values="0 0 0 0 0 0 0 0 0 0 0 0 0 0 0 0 0 0 127 0"/>
<feOffset dx="2" dy="4"/>
<feGaussianBlur stdDeviation="4"/>
<feColorMatrix type="matrix" values="0 0 0 0 0 0 0 0 0 0 0 0 0 0 0 0 0 0 0.16 0"/>
<feBlend mode="normal" in2="BackgroundImageFix" result="effect1_dropShadow"/>
<feBlend mode="normal" in="SourceGraphic" in2="effect1_dropShadow" result="shape"/>
</filter>
<filter id="filter44_d" x="1012" y="238" width="48" height="48" filterUnits="userSpaceOnUse" color-interpolation-filters="sRGB">
<feFlood flood-opacity="0" result="BackgroundImageFix"/>
<feColorMatrix in="SourceAlpha" type="matrix" values="0 0 0 0 0 0 0 0 0 0 0 0 0 0 0 0 0 0 127 0"/>
<feOffset dx="2" dy="4"/>
<feGaussianBlur stdDeviation="4"/>
<feColorMatrix type="matrix" values="0 0 0 0 0 0 0 0 0 0 0 0 0 0 0 0 0 0 0.16 0"/>
<feBlend mode="normal" in2="BackgroundImageFix" result="effect1_dropShadow"/>
<feBlend mode="normal" in="SourceGraphic" in2="effect1_dropShadow" result="shape"/>
</filter>
<filter id="filter45_d" x="1012" y="85" width="48" height="48" filterUnits="userSpaceOnUse" color-interpolation-filters="sRGB">
<feFlood flood-opacity="0" result="BackgroundImageFix"/>
<feColorMatrix in="SourceAlpha" type="matrix" values="0 0 0 0 0 0 0 0 0 0 0 0 0 0 0 0 0 0 127 0"/>
<feOffset dx="2" dy="4"/>
<feGaussianBlur stdDeviation="4"/>
<feColorMatrix type="matrix" values="0 0 0 0 0 0 0 0 0 0 0 0 0 0 0 0 0 0 0.16 0"/>
<feBlend mode="normal" in2="BackgroundImageFix" result="effect1_dropShadow"/>
<feBlend mode="normal" in="SourceGraphic" in2="effect1_dropShadow" result="shape"/>
</filter>
<filter id="filter46_d" x="976" y="121" width="48" height="48" filterUnits="userSpaceOnUse" color-interpolation-filters="sRGB">
<feFlood flood-opacity="0" result="BackgroundImageFix"/>
<feColorMatrix in="SourceAlpha" type="matrix" values="0 0 0 0 0 0 0 0 0 0 0 0 0 0 0 0 0 0 127 0"/>
<feOffset dx="2" dy="4"/>
<feGaussianBlur stdDeviation="4"/>
<feColorMatrix type="matrix" values="0 0 0 0 0 0 0 0 0 0 0 0 0 0 0 0 0 0 0.16 0"/>
<feBlend mode="normal" in2="BackgroundImageFix" result="effect1_dropShadow"/>
<feBlend mode="normal" in="SourceGraphic" in2="effect1_dropShadow" result="shape"/>
</filter>
<filter id="filter47_d" x="976" y="202" width="48" height="48" filterUnits="userSpaceOnUse" color-interpolation-filters="sRGB">
<feFlood flood-opacity="0" result="BackgroundImageFix"/>
<feColorMatrix in="SourceAlpha" type="matrix" values="0 0 0 0 0 0 0 0 0 0 0 0 0 0 0 0 0 0 127 0"/>
<feOffset dx="2" dy="4"/>
<feGaussianBlur stdDeviation="4"/>
<feColorMatrix type="matrix" values="0 0 0 0 0 0 0 0 0 0 0 0 0 0 0 0 0 0 0.16 0"/>
<feBlend mode="normal" in2="BackgroundImageFix" result="effect1_dropShadow"/>
<feBlend mode="normal" in="SourceGraphic" in2="effect1_dropShadow" result="shape"/>
</filter>
<filter id="filter48_d" x="1146" y="128" width="48" height="48" filterUnits="userSpaceOnUse" color-interpolation-filters="sRGB">
<feFlood flood-opacity="0" result="BackgroundImageFix"/>
<feColorMatrix in="SourceAlpha" type="matrix" values="0 0 0 0 0 0 0 0 0 0 0 0 0 0 0 0 0 0 127 0"/>
<feOffset dx="2" dy="4"/>
<feGaussianBlur stdDeviation="4"/>
<feColorMatrix type="matrix" values="0 0 0 0 0 0 0 0 0 0 0 0 0 0 0 0 0 0 0.16 0"/>
<feBlend mode="normal" in2="BackgroundImageFix" result="effect1_dropShadow"/>
<feBlend mode="normal" in="SourceGraphic" in2="effect1_dropShadow" result="shape"/>
</filter>
<filter id="filter49_d" x="816" y="200" width="48" height="48" filterUnits="userSpaceOnUse" color-interpolation-filters="sRGB">
<feFlood flood-opacity="0" result="BackgroundImageFix"/>
<feColorMatrix in="SourceAlpha" type="matrix" values="0 0 0 0 0 0 0 0 0 0 0 0 0 0 0 0 0 0 127 0"/>
<feOffset dx="2" dy="4"/>
<feGaussianBlur stdDeviation="4"/>
<feColorMatrix type="matrix" values="0 0 0 0 0 0 0 0 0 0 0 0 0 0 0 0 0 0 0.16 0"/>
<feBlend mode="normal" in2="BackgroundImageFix" result="effect1_dropShadow"/>
<feBlend mode="normal" in="SourceGraphic" in2="effect1_dropShadow" result="shape"/>
</filter>
<filter id="filter50_d" x="868" y="242" width="48" height="48" filterUnits="userSpaceOnUse" color-interpolation-filters="sRGB">
<feFlood flood-opacity="0" result="BackgroundImageFix"/>
<feColorMatrix in="SourceAlpha" type="matrix" values="0 0 0 0 0 0 0 0 0 0 0 0 0 0 0 0 0 0 127 0"/>
<feOffset dx="2" dy="4"/>
<feGaussianBlur stdDeviation="4"/>
<feColorMatrix type="matrix" values="0 0 0 0 0 0 0 0 0 0 0 0 0 0 0 0 0 0 0.16 0"/>
<feBlend mode="normal" in2="BackgroundImageFix" result="effect1_dropShadow"/>
<feBlend mode="normal" in="SourceGraphic" in2="effect1_dropShadow" result="shape"/>
</filter>
<filter id="filter51_d" x="1084" y="201" width="48" height="48" filterUnits="userSpaceOnUse" color-interpolation-filters="sRGB">
<feFlood flood-opacity="0" result="BackgroundImageFix"/>
<feColorMatrix in="SourceAlpha" type="matrix" values="0 0 0 0 0 0 0 0 0 0 0 0 0 0 0 0 0 0 127 0"/>
<feOffset dx="2" dy="4"/>
<feGaussianBlur stdDeviation="4"/>
<feColorMatrix type="matrix" values="0 0 0 0 0 0 0 0 0 0 0 0 0 0 0 0 0 0 0.16 0"/>
<feBlend mode="normal" in2="BackgroundImageFix" result="effect1_dropShadow"/>
<feBlend mode="normal" in="SourceGraphic" in2="effect1_dropShadow" result="shape"/>
</filter>
<filter id="filter52_d" x="832" y="202" width="48" height="48" filterUnits="userSpaceOnUse" color-interpolation-filters="sRGB">
<feFlood flood-opacity="0" result="BackgroundImageFix"/>
<feColorMatrix in="SourceAlpha" type="matrix" values="0 0 0 0 0 0 0 0 0 0 0 0 0 0 0 0 0 0 127 0"/>
<feOffset dx="2" dy="4"/>
<feGaussianBlur stdDeviation="4"/>
<feColorMatrix type="matrix" values="0 0 0 0 0 0 0 0 0 0 0 0 0 0 0 0 0 0 0.16 0"/>
<feBlend mode="normal" in2="BackgroundImageFix" result="effect1_dropShadow"/>
<feBlend mode="normal" in="SourceGraphic" in2="effect1_dropShadow" result="shape"/>
</filter>
<filter id="filter53_d" x="848" y="208" width="48" height="48" filterUnits="userSpaceOnUse" color-interpolation-filters="sRGB">
<feFlood flood-opacity="0" result="BackgroundImageFix"/>
<feColorMatrix in="SourceAlpha" type="matrix" values="0 0 0 0 0 0 0 0 0 0 0 0 0 0 0 0 0 0 127 0"/>
<feOffset dx="2" dy="4"/>
<feGaussianBlur stdDeviation="4"/>
<feColorMatrix type="matrix" values="0 0 0 0 0 0 0 0 0 0 0 0 0 0 0 0 0 0 0.16 0"/>
<feBlend mode="normal" in2="BackgroundImageFix" result="effect1_dropShadow"/>
<feBlend mode="normal" in="SourceGraphic" in2="effect1_dropShadow" result="shape"/>
</filter>
<filter id="filter54_d" x="864" y="202" width="48" height="48" filterUnits="userSpaceOnUse" color-interpolation-filters="sRGB">
<feFlood flood-opacity="0" result="BackgroundImageFix"/>
<feColorMatrix in="SourceAlpha" type="matrix" values="0 0 0 0 0 0 0 0 0 0 0 0 0 0 0 0 0 0 127 0"/>
<feOffset dx="2" dy="4"/>
<feGaussianBlur stdDeviation="4"/>
<feColorMatrix type="matrix" values="0 0 0 0 0 0 0 0 0 0 0 0 0 0 0 0 0 0 0.16 0"/>
<feBlend mode="normal" in2="BackgroundImageFix" result="effect1_dropShadow"/>
<feBlend mode="normal" in="SourceGraphic" in2="effect1_dropShadow" result="shape"/>
</filter>
<filter id="filter55_d" x="880" y="205" width="48" height="48" filterUnits="userSpaceOnUse" color-interpolation-filters="sRGB">
<feFlood flood-opacity="0" result="BackgroundImageFix"/>
<feColorMatrix in="SourceAlpha" type="matrix" values="0 0 0 0 0 0 0 0 0 0 0 0 0 0 0 0 0 0 127 0"/>
<feOffset dx="2" dy="4"/>
<feGaussianBlur stdDeviation="4"/>
<feColorMatrix type="matrix" values="0 0 0 0 0 0 0 0 0 0 0 0 0 0 0 0 0 0 0.16 0"/>
<feBlend mode="normal" in2="BackgroundImageFix" result="effect1_dropShadow"/>
<feBlend mode="normal" in="SourceGraphic" in2="effect1_dropShadow" result="shape"/>
</filter>
<filter id="filter56_d" x="896" y="201" width="48" height="48" filterUnits="userSpaceOnUse" color-interpolation-filters="sRGB">
<feFlood flood-opacity="0" result="BackgroundImageFix"/>
<feColorMatrix in="SourceAlpha" type="matrix" values="0 0 0 0 0 0 0 0 0 0 0 0 0 0 0 0 0 0 127 0"/>
<feOffset dx="2" dy="4"/>
<feGaussianBlur stdDeviation="4"/>
<feColorMatrix type="matrix" values="0 0 0 0 0 0 0 0 0 0 0 0 0 0 0 0 0 0 0.16 0"/>
<feBlend mode="normal" in2="BackgroundImageFix" result="effect1_dropShadow"/>
<feBlend mode="normal" in="SourceGraphic" in2="effect1_dropShadow" result="shape"/>
</filter>
<filter id="filter57_d" x="800" y="242" width="48" height="48" filterUnits="userSpaceOnUse" color-interpolation-filters="sRGB">
<feFlood flood-opacity="0" result="BackgroundImageFix"/>
<feColorMatrix in="SourceAlpha" type="matrix" values="0 0 0 0 0 0 0 0 0 0 0 0 0 0 0 0 0 0 127 0"/>
<feOffset dx="2" dy="4"/>
<feGaussianBlur stdDeviation="4"/>
<feColorMatrix type="matrix" values="0 0 0 0 0 0 0 0 0 0 0 0 0 0 0 0 0 0 0.16 0"/>
<feBlend mode="normal" in2="BackgroundImageFix" result="effect1_dropShadow"/>
<feBlend mode="normal" in="SourceGraphic" in2="effect1_dropShadow" result="shape"/>
</filter>
<clipPath id="clip0">
<rect width="1248" height="385" fill="white"/>
</clipPath>
</defs>
</svg>
