<svg width="376" height="752" viewBox="0 0 376 752" fill="none" xmlns="http://www.w3.org/2000/svg">
<g clip-path="url(#clip0)">
<rect width="376" height="752" fill="white"/>
<rect x="16.5" y="368.5" width="79" height="111" fill="white" stroke="black"/>
<path d="M17 369L95 479" stroke="black" stroke-linecap="round"/>
<path d="M95 369L17 479" stroke="black" stroke-linecap="round"/>
<rect x="104.5" y="368.5" width="79" height="111" fill="white" stroke="black"/>
<path d="M105 369L183 479" stroke="black" stroke-linecap="round"/>
<path d="M183 369L105 479" stroke="black" stroke-linecap="round"/>
<rect x="192.5" y="368.5" width="79" height="111" fill="white" stroke="black"/>
<path d="M193 369L271 479" stroke="black" stroke-linecap="round"/>
<path d="M271 369L193 479" stroke="black" stroke-linecap="round"/>
<path d="M19.1136 342.364H16.3807L20.3977 354H23.5682L27.5795 342.364H24.8523L22.0341 351.205H21.9261L19.1136 342.364ZM31.9119 354.17C34.071 354.17 35.5256 353.119 35.8665 351.5L33.6278 351.352C33.3835 352.017 32.7585 352.364 31.9517 352.364C30.7415 352.364 29.9744 351.562 29.9744 350.261V350.256H35.9176V349.591C35.9176 346.625 34.1222 345.159 31.8153 345.159C29.2472 345.159 27.5824 346.983 27.5824 349.676C27.5824 352.443 29.2244 354.17 31.9119 354.17ZM29.9744 348.756C30.0256 347.761 30.7812 346.966 31.8551 346.966C32.9062 346.966 33.6335 347.716 33.6392 348.756H29.9744ZM37.4972 354H39.9176V349.062C39.9233 347.994 40.696 347.261 41.6733 347.261C42.0028 347.261 42.2699 347.352 42.4972 347.466L43.2244 345.466C42.9062 345.273 42.4972 345.148 42.0312 345.148C41.0483 345.148 40.2528 345.716 39.9347 346.795H39.8438V345.273H37.4972V354ZM47.1662 354.142C48.5753 354.142 49.3082 353.33 49.6435 352.602H49.7457V354H52.1321V342.364H49.7173V346.739H49.6435C49.3196 346.028 48.6207 345.159 47.1605 345.159C45.2457 345.159 43.6264 346.648 43.6264 349.648C43.6264 352.568 45.1776 354.142 47.1662 354.142ZM47.9332 352.216C46.7457 352.216 46.098 351.159 46.098 349.636C46.098 348.125 46.7344 347.085 47.9332 347.085C49.1094 347.085 49.7685 348.08 49.7685 349.636C49.7685 351.193 49.098 352.216 47.9332 352.216ZM58.0994 354.17C60.2585 354.17 61.7131 353.119 62.054 351.5L59.8153 351.352C59.571 352.017 58.946 352.364 58.1392 352.364C56.929 352.364 56.1619 351.562 56.1619 350.261V350.256H62.1051V349.591C62.1051 346.625 60.3097 345.159 58.0028 345.159C55.4347 345.159 53.7699 346.983 53.7699 349.676C53.7699 352.443 55.4119 354.17 58.0994 354.17ZM56.1619 348.756C56.2131 347.761 56.9688 346.966 58.0426 346.966C59.0938 346.966 59.821 347.716 59.8267 348.756H56.1619ZM63.6847 354H66.1051V349.062C66.1108 347.994 66.8835 347.261 67.8608 347.261C68.1903 347.261 68.4574 347.352 68.6847 347.466L69.4119 345.466C69.0938 345.273 68.6847 345.148 68.2188 345.148C67.2358 345.148 66.4403 345.716 66.1222 346.795H66.0312V345.273H63.6847V354ZM76.6676 342.364H74.2472V354H76.6676V342.364ZM82.5838 354.17C84.7429 354.17 86.1974 353.119 86.5384 351.5L84.2997 351.352C84.0554 352.017 83.4304 352.364 82.6236 352.364C81.4134 352.364 80.6463 351.562 80.6463 350.261V350.256H86.5895V349.591C86.5895 346.625 84.794 345.159 82.4872 345.159C79.919 345.159 78.2543 346.983 78.2543 349.676C78.2543 352.443 79.8963 354.17 82.5838 354.17ZM80.6463 348.756C80.6974 347.761 81.4531 346.966 82.527 346.966C83.5781 346.966 84.3054 347.716 84.3111 348.756H80.6463ZM88.1236 354H95.4588V352.068H91.2997V352.006L95.3111 346.847V345.273H88.2713V347.205H92.3963V347.267L88.1236 352.557V354ZM101.037 354.17C103.196 354.17 104.651 353.119 104.991 351.5L102.753 351.352C102.509 352.017 101.884 352.364 101.077 352.364C99.8665 352.364 99.0994 351.562 99.0994 350.261V350.256H105.043V349.591C105.043 346.625 103.247 345.159 100.94 345.159C98.3722 345.159 96.7074 346.983 96.7074 349.676C96.7074 352.443 98.3494 354.17 101.037 354.17ZM99.0994 348.756C99.1506 347.761 99.9062 346.966 100.98 346.966C102.031 346.966 102.759 347.716 102.764 348.756H99.0994ZM109.043 348.955C109.048 347.83 109.719 347.17 110.696 347.17C111.668 347.17 112.253 347.807 112.247 348.875V354H114.668V348.443C114.668 346.409 113.474 345.159 111.656 345.159C110.361 345.159 109.423 345.795 109.031 346.812H108.929V345.273H106.622V354H109.043V348.955ZM128.415 345.273H125.852L124.045 351.517H123.955L122.142 345.273H119.585L122.636 354H125.364L128.415 345.273ZM133.3 354.17C135.947 354.17 137.595 352.358 137.595 349.67C137.595 346.966 135.947 345.159 133.3 345.159C130.652 345.159 129.004 346.966 129.004 349.67C129.004 352.358 130.652 354.17 133.3 354.17ZM133.311 352.295C132.089 352.295 131.464 351.176 131.464 349.653C131.464 348.131 132.089 347.006 133.311 347.006C134.51 347.006 135.135 348.131 135.135 349.653C135.135 351.176 134.51 352.295 133.311 352.295ZM143.112 354.17C145.76 354.17 147.408 352.358 147.408 349.67C147.408 346.966 145.76 345.159 143.112 345.159C140.464 345.159 138.817 346.966 138.817 349.67C138.817 352.358 140.464 354.17 143.112 354.17ZM143.124 352.295C141.902 352.295 141.277 351.176 141.277 349.653C141.277 348.131 141.902 347.006 143.124 347.006C144.322 347.006 144.947 348.131 144.947 349.653C144.947 351.176 144.322 352.295 143.124 352.295ZM148.982 354H151.402V349.062C151.408 347.994 152.18 347.261 153.158 347.261C153.487 347.261 153.754 347.352 153.982 347.466L154.709 345.466C154.391 345.273 153.982 345.148 153.516 345.148C152.533 345.148 151.737 345.716 151.419 346.795H151.328V345.273H148.982V354ZM159.544 345.273V354.364C159.544 355.023 159.266 355.352 158.487 355.352C158.385 355.352 158.294 355.352 158.169 355.341V357.233C158.357 357.244 158.487 357.244 158.618 357.244C160.714 357.301 161.964 356.426 161.964 354.403V345.273H159.544ZM160.749 344.148C161.47 344.148 162.061 343.597 162.061 342.92C162.061 342.25 161.47 341.699 160.749 341.699C160.033 341.699 159.442 342.25 159.442 342.92C159.442 343.597 160.033 344.148 160.749 344.148ZM167.847 354.17C170.494 354.17 172.142 352.358 172.142 349.67C172.142 346.966 170.494 345.159 167.847 345.159C165.199 345.159 163.551 346.966 163.551 349.67C163.551 352.358 165.199 354.17 167.847 354.17ZM167.858 352.295C166.636 352.295 166.011 351.176 166.011 349.653C166.011 348.131 166.636 347.006 167.858 347.006C169.057 347.006 169.682 348.131 169.682 349.653C169.682 351.176 169.057 352.295 167.858 352.295ZM179.312 350.284C179.318 351.455 178.517 352.068 177.648 352.068C176.733 352.068 176.142 351.426 176.136 350.398V345.273H173.716V350.83C173.722 352.869 174.915 354.114 176.67 354.114C177.983 354.114 178.926 353.438 179.318 352.415H179.409V354H181.733V345.273H179.312V350.284Z" fill="black"/>
<path d="M21.6705 502.364V510.477C21.6648 511.597 21.1648 512.188 20.2557 512.188C19.3977 512.188 18.8409 511.653 18.8239 510.727H16.375C16.3636 513.051 18.0227 514.159 20.1307 514.159C22.4886 514.159 24.0966 512.733 24.1023 510.477V502.364H21.6705ZM30.0341 514.17C32.6818 514.17 34.3295 512.358 34.3295 509.67C34.3295 506.966 32.6818 505.159 30.0341 505.159C27.3864 505.159 25.7386 506.966 25.7386 509.67C25.7386 512.358 27.3864 514.17 30.0341 514.17ZM30.0455 512.295C28.8239 512.295 28.1989 511.176 28.1989 509.653C28.1989 508.131 28.8239 507.006 30.0455 507.006C31.2443 507.006 31.8693 508.131 31.8693 509.653C31.8693 511.176 31.2443 512.295 30.0455 512.295ZM41.5 510.284C41.5057 511.455 40.7045 512.068 39.8352 512.068C38.9205 512.068 38.3295 511.426 38.3239 510.398V505.273H35.9034V510.83C35.9091 512.869 37.1023 514.114 38.858 514.114C40.1705 514.114 41.1136 513.438 41.5057 512.415H41.5966V514H43.9205V505.273H41.5V510.284ZM47.5781 514H50.1349L51.6349 508.511H51.7429L53.2429 514H55.8054L58.1747 505.273H55.7315L54.402 511.102H54.3281L52.8963 505.273H50.4929L49.0838 511.136H49.0043L47.652 505.273H45.2031L47.5781 514ZM63.2145 514H65.6009V512.602H65.7088C66.044 513.33 66.777 514.142 68.1861 514.142C70.1747 514.142 71.7259 512.568 71.7259 509.648C71.7259 506.648 70.1065 505.159 68.1918 505.159C66.7315 505.159 66.0327 506.028 65.7088 506.739H65.6349V502.364H63.2145V514ZM65.5838 509.636C65.5838 508.08 66.2429 507.085 67.419 507.085C68.6179 507.085 69.2543 508.125 69.2543 509.636C69.2543 511.159 68.6065 512.216 67.419 512.216C66.2543 512.216 65.5838 511.193 65.5838 509.636ZM77.2841 514.17C79.9318 514.17 81.5795 512.358 81.5795 509.67C81.5795 506.966 79.9318 505.159 77.2841 505.159C74.6364 505.159 72.9886 506.966 72.9886 509.67C72.9886 512.358 74.6364 514.17 77.2841 514.17ZM77.2955 512.295C76.0739 512.295 75.4489 511.176 75.4489 509.653C75.4489 508.131 76.0739 507.006 77.2955 507.006C78.4943 507.006 79.1193 508.131 79.1193 509.653C79.1193 511.176 78.4943 512.295 77.2955 512.295ZM87.1307 514.17C89.2898 514.17 90.7443 513.119 91.0852 511.5L88.8466 511.352C88.6023 512.017 87.9773 512.364 87.1705 512.364C85.9602 512.364 85.1932 511.562 85.1932 510.261V510.256H91.1364V509.591C91.1364 506.625 89.3409 505.159 87.0341 505.159C84.4659 505.159 82.8011 506.983 82.8011 509.676C82.8011 512.443 84.4432 514.17 87.1307 514.17ZM85.1932 508.756C85.2443 507.761 86 506.966 87.0739 506.966C88.125 506.966 88.8523 507.716 88.858 508.756H85.1932ZM92.7159 514H95.1364V511.227L95.7898 510.483L98.1705 514H101.006L97.6023 509.051L100.841 505.273H98.0625L95.267 508.585H95.1364V502.364H92.7159V514ZM105.646 514.17C107.805 514.17 109.26 513.119 109.601 511.5L107.362 511.352C107.118 512.017 106.493 512.364 105.686 512.364C104.476 512.364 103.709 511.562 103.709 510.261V510.256H109.652V509.591C109.652 506.625 107.857 505.159 105.55 505.159C102.982 505.159 101.317 506.983 101.317 509.676C101.317 512.443 102.959 514.17 105.646 514.17ZM103.709 508.756C103.76 507.761 104.516 506.966 105.589 506.966C106.641 506.966 107.368 507.716 107.374 508.756H103.709ZM113.652 508.955C113.658 507.83 114.328 507.17 115.305 507.17C116.277 507.17 116.862 507.807 116.857 508.875V514H119.277V508.443C119.277 506.409 118.084 505.159 116.266 505.159C114.97 505.159 114.033 505.795 113.641 506.812H113.538V505.273H111.232V514H113.652V508.955ZM121.185 514H123.605V511.227L124.259 510.483L126.639 514H129.474L126.071 509.051L129.31 505.273H126.531L123.736 508.585H123.605V502.364H121.185V514ZM132.986 514.165C134.276 514.165 135.111 513.602 135.537 512.79H135.605V514H137.901V508.114C137.901 506.034 136.139 505.159 134.196 505.159C132.105 505.159 130.73 506.159 130.395 507.75L132.634 507.932C132.798 507.352 133.315 506.926 134.185 506.926C135.009 506.926 135.48 507.341 135.48 508.057V508.091C135.48 508.653 134.884 508.727 133.366 508.875C131.639 509.034 130.088 509.614 130.088 511.562C130.088 513.29 131.321 514.165 132.986 514.165ZM133.679 512.494C132.935 512.494 132.401 512.148 132.401 511.483C132.401 510.801 132.963 510.466 133.815 510.347C134.344 510.273 135.207 510.148 135.497 509.955V510.881C135.497 511.795 134.741 512.494 133.679 512.494ZM147.04 507.761C146.824 506.153 145.528 505.159 143.324 505.159C141.091 505.159 139.619 506.193 139.625 507.875C139.619 509.182 140.443 510.028 142.148 510.369L143.659 510.67C144.42 510.824 144.767 511.102 144.778 511.54C144.767 512.057 144.205 512.426 143.358 512.426C142.494 512.426 141.92 512.057 141.773 511.347L139.392 511.472C139.619 513.142 141.04 514.17 143.352 514.17C145.614 514.17 147.233 513.017 147.239 511.295C147.233 510.034 146.409 509.278 144.716 508.932L143.136 508.614C142.324 508.438 142.023 508.159 142.028 507.739C142.023 507.216 142.614 506.875 143.364 506.875C144.205 506.875 144.705 507.335 144.824 507.898L147.04 507.761ZM153.405 505.273H151.763V503.182H149.342V505.273H148.149V507.091H149.342V511.636C149.331 513.347 150.496 514.193 152.251 514.119C152.876 514.097 153.32 513.972 153.564 513.892L153.183 512.091C153.064 512.114 152.808 512.17 152.581 512.17C152.098 512.17 151.763 511.989 151.763 511.318V507.091H153.405V505.273Z" fill="black"/>
<g clip-path="url(#clip1)">
<rect y="528" width="8" height="152" fill="white"/>
<rect x="64.5" y="544.5" width="55" height="79" fill="white" stroke="black"/>
<path d="M65 545L119 623" stroke="black" stroke-linecap="round"/>
<path d="M119 545L65 623" stroke="black" stroke-linecap="round"/>
<rect x="42.5" y="536.5" width="67" height="95" fill="white" stroke="black"/>
<path d="M43 537L109 631" stroke="black" stroke-linecap="round"/>
<path d="M109 537L43 631" stroke="black" stroke-linecap="round"/>
<rect x="16.5" y="528.5" width="79" height="111" fill="white" stroke="black"/>
<path d="M17 529L95 639" stroke="black" stroke-linecap="round"/>
<path d="M95 529L17 639" stroke="black" stroke-linecap="round"/>
<path d="M16.7585 660H18.6037V656.395H22.1534V654.874H18.6037V652.794H22.5369V651.273H16.7585V660ZM25.5284 660.124C26.4957 660.124 27.1222 659.702 27.4418 659.092H27.4929V660H29.2145V655.585C29.2145 654.026 27.8935 653.369 26.4361 653.369C24.8679 653.369 23.8366 654.119 23.5852 655.312L25.2642 655.449C25.3878 655.014 25.7756 654.695 26.4276 654.695C27.0455 654.695 27.3991 655.006 27.3991 655.543V655.568C27.3991 655.99 26.9517 656.045 25.8139 656.156C24.5185 656.276 23.3551 656.71 23.3551 658.172C23.3551 659.467 24.2798 660.124 25.5284 660.124ZM26.0483 658.871C25.4901 658.871 25.0895 658.611 25.0895 658.112C25.0895 657.601 25.5114 657.349 26.1506 657.26C26.5469 657.205 27.1946 657.111 27.4119 656.966V657.661C27.4119 658.347 26.8452 658.871 26.0483 658.871ZM36.4908 653.455H34.5689L33.2138 658.138H33.1456L31.7862 653.455H29.8686L32.157 660H34.2024L36.4908 653.455ZM40.1545 660.128C42.1403 660.128 43.3761 658.768 43.3761 656.753C43.3761 654.724 42.1403 653.369 40.1545 653.369C38.1687 653.369 36.9329 654.724 36.9329 656.753C36.9329 658.768 38.1687 660.128 40.1545 660.128ZM40.163 658.722C39.2468 658.722 38.7781 657.882 38.7781 656.74C38.7781 655.598 39.2468 654.754 40.163 654.754C41.0621 654.754 41.5309 655.598 41.5309 656.74C41.5309 657.882 41.0621 658.722 40.163 658.722ZM44.5565 660H46.3718V656.297C46.3718 655.491 46.9599 654.938 47.761 654.938C48.0124 654.938 48.3576 654.98 48.5281 655.036V653.425C48.3661 653.386 48.1403 653.361 47.957 653.361C47.2241 653.361 46.6232 653.787 46.3846 654.597H46.3164V653.455H44.5565V660ZM49.4666 660H51.282V653.455H49.4666V660ZM50.3786 652.611C50.9197 652.611 51.3629 652.197 51.3629 651.69C51.3629 651.188 50.9197 650.774 50.3786 650.774C49.8416 650.774 49.3984 651.188 49.3984 651.69C49.3984 652.197 49.8416 652.611 50.3786 652.611ZM55.7191 660.128C57.3384 660.128 58.4293 659.339 58.685 658.125L57.006 658.014C56.8228 658.513 56.354 658.773 55.7489 658.773C54.8413 658.773 54.266 658.172 54.266 657.196V657.192H58.7234V656.693C58.7234 654.469 57.3768 653.369 55.6467 653.369C53.7205 653.369 52.4719 654.737 52.4719 656.757C52.4719 658.832 53.7035 660.128 55.7191 660.128ZM54.266 656.067C54.3043 655.321 54.8711 654.724 55.6765 654.724C56.4648 654.724 57.0103 655.287 57.0146 656.067H54.266ZM63.3896 653.455H62.158V651.886H60.3427V653.455H59.4478V654.818H60.3427V658.227C60.3342 659.51 61.2077 660.145 62.5245 660.089C62.9933 660.072 63.3256 659.979 63.5089 659.919L63.2234 658.568C63.1339 658.585 62.9421 658.628 62.7717 658.628C62.4094 658.628 62.158 658.491 62.158 657.989V654.818H63.3896V653.455ZM67.4847 660.128C69.104 660.128 70.195 659.339 70.4506 658.125L68.7717 658.014C68.5884 658.513 68.1197 658.773 67.5146 658.773C66.6069 658.773 66.0316 658.172 66.0316 657.196V657.192H70.489V656.693C70.489 654.469 69.1424 653.369 67.4123 653.369C65.4862 653.369 64.2376 654.737 64.2376 656.757C64.2376 658.832 65.4691 660.128 67.4847 660.128ZM66.0316 656.067C66.07 655.321 66.6367 654.724 67.4421 654.724C68.2305 654.724 68.7759 655.287 68.7802 656.067H66.0316ZM73.489 656.216C73.4933 655.372 73.9961 654.878 74.729 654.878C75.4577 654.878 75.8967 655.355 75.8924 656.156V660H77.7077V655.832C77.7077 654.307 76.8129 653.369 75.4492 653.369C74.4776 653.369 73.7745 653.847 73.4805 654.609H73.4038V653.455H71.6737V660H73.489V656.216Z" fill="black"/>
<path d="M19.6989 676.119C21.4418 676.119 22.6562 675.101 22.6648 673.682C22.6562 672.578 21.919 671.641 20.9773 671.466V671.415C21.7955 671.202 22.3324 670.401 22.3409 669.472C22.3324 668.142 21.2159 667.153 19.6989 667.153C18.1648 667.153 17.0483 668.142 17.0568 669.472C17.0483 670.401 17.5852 671.202 18.4205 671.415V671.466C17.4616 671.641 16.7244 672.578 16.733 673.682C16.7244 675.101 17.9389 676.119 19.6989 676.119ZM19.6989 675.182C18.5014 675.182 17.7642 674.568 17.7727 673.631C17.7642 672.646 18.5781 671.943 19.6989 671.943C20.8026 671.943 21.6165 672.646 21.625 673.631C21.6165 674.568 20.8793 675.182 19.6989 675.182ZM19.6989 671.04C18.7443 671.04 18.071 670.443 18.0795 669.54C18.071 668.653 18.7188 668.074 19.6989 668.074C20.6619 668.074 21.3097 668.653 21.3182 669.54C21.3097 670.443 20.6364 671.04 19.6989 671.04ZM27.8263 676H28.7979V674.994H28.9173C29.1388 675.352 29.565 676.136 30.8263 676.136C32.4627 676.136 33.6048 674.824 33.6048 672.744C33.6048 670.682 32.4627 669.369 30.8093 669.369C29.5309 669.369 29.1388 670.153 28.9173 670.494H28.832V667.273H27.8263V676ZM28.815 672.727C28.815 671.261 29.4627 670.273 30.69 670.273C31.9684 670.273 32.5991 671.347 32.5991 672.727C32.5991 674.125 31.9513 675.233 30.69 675.233C29.4798 675.233 28.815 674.21 28.815 672.727ZM37.8022 676.136C39.5749 676.136 40.7681 674.79 40.7681 672.761C40.7681 670.716 39.5749 669.369 37.8022 669.369C36.0295 669.369 34.8363 670.716 34.8363 672.761C34.8363 674.79 36.0295 676.136 37.8022 676.136ZM37.8022 675.233C36.4556 675.233 35.842 674.074 35.842 672.761C35.842 671.449 36.4556 670.273 37.8022 670.273C39.1488 670.273 39.7624 671.449 39.7624 672.761C39.7624 674.074 39.1488 675.233 37.8022 675.233ZM45.0476 676.136C46.3771 676.136 47.3487 675.472 47.6555 674.483L46.6839 674.21C46.4283 674.892 45.8359 675.233 45.0476 675.233C43.8672 675.233 43.0533 674.47 43.0064 673.068H47.7578V672.642C47.7578 670.205 46.3089 669.369 44.9453 669.369C43.1726 669.369 41.9964 670.767 41.9964 672.778C41.9964 674.79 43.1555 676.136 45.0476 676.136ZM43.0064 672.199C43.0746 671.18 43.7947 670.273 44.9453 670.273C46.0362 670.273 46.7351 671.091 46.7351 672.199H43.0064ZM49.2876 676H50.2933V673.55L50.9964 672.898L53.4467 676H54.7251L51.755 672.25L54.5206 669.455H53.2763L50.4126 672.369H50.2933V667.273H49.2876V676ZM58.2898 676.136C59.6193 676.136 60.5909 675.472 60.8977 674.483L59.9261 674.21C59.6705 674.892 59.0781 675.233 58.2898 675.233C57.1094 675.233 56.2955 674.47 56.2486 673.068H61V672.642C61 670.205 59.5511 669.369 58.1875 669.369C56.4148 669.369 55.2386 670.767 55.2386 672.778C55.2386 674.79 56.3977 676.136 58.2898 676.136ZM56.2486 672.199C56.3168 671.18 57.0369 670.273 58.1875 670.273C59.2784 670.273 59.9773 671.091 59.9773 672.199H56.2486ZM63.5355 672.062C63.5355 670.92 64.2429 670.273 65.206 670.273C66.1392 670.273 66.706 670.882 66.706 671.909V676H67.7116V671.841C67.7116 670.17 66.821 669.369 65.4957 669.369C64.5071 669.369 63.8935 669.812 63.5866 670.477H63.5014V669.455H62.5298V676H63.5355V672.062Z" fill="black"/>
<rect x="176.5" y="544.5" width="55" height="79" fill="white" stroke="black"/>
<path d="M177 545L231 623" stroke="black" stroke-linecap="round"/>
<path d="M231 545L177 623" stroke="black" stroke-linecap="round"/>
<rect x="154.5" y="536.5" width="67" height="95" fill="white" stroke="black"/>
<path d="M155 537L221 631" stroke="black" stroke-linecap="round"/>
<path d="M221 537L155 631" stroke="black" stroke-linecap="round"/>
<rect x="128.5" y="528.5" width="79" height="111" fill="white" stroke="black"/>
<path d="M129 529L207 639" stroke="black" stroke-linecap="round"/>
<path d="M207 529L129 639" stroke="black" stroke-linecap="round"/>
<path d="M134.545 654.094H136.42C136.182 652.368 134.661 651.153 132.688 651.153C130.382 651.153 128.605 652.815 128.605 655.645C128.605 658.406 130.267 660.119 132.726 660.119C134.929 660.119 136.501 658.726 136.501 656.429V655.33H132.849V656.719H134.724C134.699 657.801 133.962 658.487 132.734 658.487C131.349 658.487 130.476 657.452 130.476 655.628C130.476 653.812 131.384 652.786 132.717 652.786C133.668 652.786 134.311 653.276 134.545 654.094ZM140.836 660.128C142.456 660.128 143.547 659.339 143.802 658.125L142.123 658.014C141.94 658.513 141.471 658.773 140.866 658.773C139.958 658.773 139.383 658.172 139.383 657.196V657.192H143.841V656.693C143.841 654.469 142.494 653.369 140.764 653.369C138.838 653.369 137.589 654.737 137.589 656.757C137.589 658.832 138.821 660.128 140.836 660.128ZM139.383 656.067C139.422 655.321 139.988 654.724 140.794 654.724C141.582 654.724 142.127 655.287 142.132 656.067H139.383ZM146.841 651.273H145.025V660H146.841V651.273ZM151.278 660.128C152.897 660.128 153.988 659.339 154.244 658.125L152.565 658.014C152.381 658.513 151.913 658.773 151.308 658.773C150.4 658.773 149.825 658.172 149.825 657.196V657.192H154.282V656.693C154.282 654.469 152.935 653.369 151.205 653.369C149.279 653.369 148.031 654.737 148.031 656.757C148.031 658.832 149.262 660.128 151.278 660.128ZM149.825 656.067C149.863 655.321 150.43 654.724 151.235 654.724C152.023 654.724 152.569 655.287 152.573 656.067H149.825ZM155.433 660H160.934V658.551H157.815V658.504L160.823 654.635V653.455H155.543V654.903H158.637V654.95L155.433 658.918V660ZM165.118 660.128C166.737 660.128 167.828 659.339 168.083 658.125L166.404 658.014C166.221 658.513 165.752 658.773 165.147 658.773C164.24 658.773 163.664 658.172 163.664 657.196V657.192H168.122V656.693C168.122 654.469 166.775 653.369 165.045 653.369C163.119 653.369 161.87 654.737 161.87 656.757C161.87 658.832 163.102 660.128 165.118 660.128ZM163.664 656.067C163.703 655.321 164.27 654.724 165.075 654.724C165.863 654.724 166.409 655.287 166.413 656.067H163.664ZM171.122 656.216C171.126 655.372 171.629 654.878 172.362 654.878C173.091 654.878 173.529 655.355 173.525 656.156V660H175.341V655.832C175.341 654.307 174.446 653.369 173.082 653.369C172.11 653.369 171.407 653.847 171.113 654.609H171.037V653.455H169.306V660H171.122V656.216Z" fill="black"/>
<path d="M128.699 674.21H132.807V676H133.812V674.21H135.006V673.273H133.812V667.273H132.534L128.699 673.341V674.21ZM132.807 673.273H129.841V673.205L132.739 668.619H132.807V673.273ZM140.131 676H141.103V674.994H141.222C141.444 675.352 141.87 676.136 143.131 676.136C144.767 676.136 145.909 674.824 145.909 672.744C145.909 670.682 144.767 669.369 143.114 669.369C141.836 669.369 141.444 670.153 141.222 670.494H141.137V667.273H140.131V676ZM141.12 672.727C141.12 671.261 141.767 670.273 142.995 670.273C144.273 670.273 144.904 671.347 144.904 672.727C144.904 674.125 144.256 675.233 142.995 675.233C141.784 675.233 141.12 674.21 141.12 672.727ZM150.107 676.136C151.88 676.136 153.073 674.79 153.073 672.761C153.073 670.716 151.88 669.369 150.107 669.369C148.334 669.369 147.141 670.716 147.141 672.761C147.141 674.79 148.334 676.136 150.107 676.136ZM150.107 675.233C148.76 675.233 148.147 674.074 148.147 672.761C148.147 671.449 148.76 670.273 150.107 670.273C151.453 670.273 152.067 671.449 152.067 672.761C152.067 674.074 151.453 675.233 150.107 675.233ZM157.352 676.136C158.682 676.136 159.653 675.472 159.96 674.483L158.989 674.21C158.733 674.892 158.141 675.233 157.352 675.233C156.172 675.233 155.358 674.47 155.311 673.068H160.062V672.642C160.062 670.205 158.614 669.369 157.25 669.369C155.477 669.369 154.301 670.767 154.301 672.778C154.301 674.79 155.46 676.136 157.352 676.136ZM155.311 672.199C155.379 671.18 156.099 670.273 157.25 670.273C158.341 670.273 159.04 671.091 159.04 672.199H155.311ZM161.592 676H162.598V673.55L163.301 672.898L165.751 676H167.03L164.06 672.25L166.825 669.455H165.581L162.717 672.369H162.598V667.273H161.592V676ZM170.594 676.136C171.924 676.136 172.896 675.472 173.202 674.483L172.231 674.21C171.975 674.892 171.383 675.233 170.594 675.233C169.414 675.233 168.6 674.47 168.553 673.068H173.305V672.642C173.305 670.205 171.856 669.369 170.492 669.369C168.719 669.369 167.543 670.767 167.543 672.778C167.543 674.79 168.702 676.136 170.594 676.136ZM168.553 672.199C168.621 671.18 169.342 670.273 170.492 670.273C171.583 670.273 172.282 671.091 172.282 672.199H168.553ZM175.84 672.062C175.84 670.92 176.548 670.273 177.511 670.273C178.444 670.273 179.011 670.882 179.011 671.909V676H180.016V671.841C180.016 670.17 179.126 669.369 177.8 669.369C176.812 669.369 176.198 669.812 175.891 670.477H175.806V669.455H174.835V676H175.84V672.062Z" fill="black"/>
<rect x="288.5" y="544.5" width="55" height="79" fill="white" stroke="black"/>
<path d="M289 545L343 623" stroke="black" stroke-linecap="round"/>
<path d="M343 545L289 623" stroke="black" stroke-linecap="round"/>
<rect x="266.5" y="536.5" width="67" height="95" fill="white" stroke="black"/>
<path d="M267 537L333 631" stroke="black" stroke-linecap="round"/>
<path d="M333 537L267 631" stroke="black" stroke-linecap="round"/>
<rect x="240.5" y="528.5" width="79" height="111" fill="white" stroke="black"/>
<path d="M241 529L319 639" stroke="black" stroke-linecap="round"/>
<path d="M319 529L241 639" stroke="black" stroke-linecap="round"/>
<path d="M242.723 660H244.521L246.179 654.294H246.247L247.909 660H249.707L252.205 651.273H250.189L248.744 657.349H248.668L247.078 651.273H245.352L243.759 657.337H243.686L242.241 651.273H240.226L242.723 660ZM253.158 660H254.973V653.455H253.158V660ZM254.07 652.611C254.611 652.611 255.054 652.197 255.054 651.69C255.054 651.188 254.611 650.774 254.07 650.774C253.533 650.774 253.09 651.188 253.09 651.69C253.09 652.197 253.533 652.611 254.07 652.611ZM258.243 651.273H256.428V660H258.243V651.273ZM262.474 660H264.29V653.455H262.474V660ZM263.386 652.611C263.928 652.611 264.371 652.197 264.371 651.69C264.371 651.188 263.928 650.774 263.386 650.774C262.849 650.774 262.406 651.188 262.406 651.69C262.406 652.197 262.849 652.611 263.386 652.611ZM265.744 660H267.559V657.92L268.049 657.362L269.835 660H271.961L269.409 656.288L271.838 653.455H269.754L267.657 655.939H267.559V651.273H265.744V660ZM277.321 651.273H275.506V660H277.321V651.273ZM281.758 660.128C283.377 660.128 284.468 659.339 284.724 658.125L283.045 658.014C282.862 658.513 282.393 658.773 281.788 658.773C280.88 658.773 280.305 658.172 280.305 657.196V657.192H284.762V656.693C284.762 654.469 283.416 653.369 281.686 653.369C279.76 653.369 278.511 654.737 278.511 656.757C278.511 658.832 279.743 660.128 281.758 660.128ZM280.305 656.067C280.343 655.321 280.91 654.724 281.716 654.724C282.504 654.724 283.049 655.287 283.054 656.067H280.305ZM285.913 660H291.414V658.551H288.295V658.504L291.304 654.635V653.455H286.024V654.903H289.118V654.95L285.913 658.918V660ZM295.598 660.128C297.217 660.128 298.308 659.339 298.564 658.125L296.885 658.014C296.702 658.513 296.233 658.773 295.628 658.773C294.72 658.773 294.145 658.172 294.145 657.196V657.192H298.602V656.693C298.602 654.469 297.256 653.369 295.526 653.369C293.599 653.369 292.351 654.737 292.351 656.757C292.351 658.832 293.582 660.128 295.598 660.128ZM294.145 656.067C294.183 655.321 294.75 654.724 295.555 654.724C296.344 654.724 296.889 655.287 296.893 656.067H294.145ZM301.602 656.216C301.607 655.372 302.109 654.878 302.842 654.878C303.571 654.878 304.01 655.355 304.006 656.156V660H305.821V655.832C305.821 654.307 304.926 653.369 303.562 653.369C302.591 653.369 301.888 653.847 301.594 654.609H301.517V653.455H299.787V660H301.602V656.216Z" fill="black"/>
<path d="M243.699 667.273H242.761C242.706 667.362 242.08 668.568 240.733 668.568V669.455C241.734 669.455 242.45 669.045 242.574 668.807H242.642V676H243.699V667.273ZM246.2 676H251.706V675.062H247.649V674.994L249.609 672.898C251.109 671.291 251.553 670.541 251.553 669.574C251.553 668.227 250.462 667.153 248.928 667.153C247.398 667.153 246.234 668.193 246.234 669.727H247.24C247.24 668.734 247.884 668.074 248.893 668.074C249.839 668.074 250.564 668.653 250.564 669.574C250.564 670.379 250.091 670.976 249.081 672.08L246.2 675.233V676ZM256.994 676H257.966V674.994H258.085C258.307 675.352 258.733 676.136 259.994 676.136C261.631 676.136 262.773 674.824 262.773 672.744C262.773 670.682 261.631 669.369 259.977 669.369C258.699 669.369 258.307 670.153 258.085 670.494H258V667.273H256.994V676ZM257.983 672.727C257.983 671.261 258.631 670.273 259.858 670.273C261.136 670.273 261.767 671.347 261.767 672.727C261.767 674.125 261.119 675.233 259.858 675.233C258.648 675.233 257.983 674.21 257.983 672.727ZM266.97 676.136C268.743 676.136 269.936 674.79 269.936 672.761C269.936 670.716 268.743 669.369 266.97 669.369C265.197 669.369 264.004 670.716 264.004 672.761C264.004 674.79 265.197 676.136 266.97 676.136ZM266.97 675.233C265.624 675.233 265.01 674.074 265.01 672.761C265.01 671.449 265.624 670.273 266.97 670.273C268.317 670.273 268.93 671.449 268.93 672.761C268.93 674.074 268.317 675.233 266.97 675.233ZM274.216 676.136C275.545 676.136 276.517 675.472 276.824 674.483L275.852 674.21C275.596 674.892 275.004 675.233 274.216 675.233C273.035 675.233 272.221 674.47 272.174 673.068H276.926V672.642C276.926 670.205 275.477 669.369 274.113 669.369C272.341 669.369 271.164 670.767 271.164 672.778C271.164 674.79 272.324 676.136 274.216 676.136ZM272.174 672.199C272.243 671.18 272.963 670.273 274.113 670.273C275.204 670.273 275.903 671.091 275.903 672.199H272.174ZM278.456 676H279.461V673.55L280.164 672.898L282.615 676H283.893L280.923 672.25L283.689 669.455H282.444L279.581 672.369H279.461V667.273H278.456V676ZM287.458 676.136C288.787 676.136 289.759 675.472 290.066 674.483L289.094 674.21C288.838 674.892 288.246 675.233 287.458 675.233C286.277 675.233 285.463 674.47 285.417 673.068H290.168V672.642C290.168 670.205 288.719 669.369 287.355 669.369C285.583 669.369 284.407 670.767 284.407 672.778C284.407 674.79 285.566 676.136 287.458 676.136ZM285.417 672.199C285.485 671.18 286.205 670.273 287.355 670.273C288.446 670.273 289.145 671.091 289.145 672.199H285.417ZM292.703 672.062C292.703 670.92 293.411 670.273 294.374 670.273C295.307 670.273 295.874 670.882 295.874 671.909V676H296.88V671.841C296.88 670.17 295.989 669.369 294.664 669.369C293.675 669.369 293.061 669.812 292.755 670.477H292.669V669.455H291.698V676H292.703V672.062Z" fill="black"/>
<rect x="352.5" y="528.5" width="79" height="111" fill="white" stroke="black"/>
<path d="M353 529L431 639" stroke="black" stroke-linecap="round"/>
<path d="M431 529L353 639" stroke="black" stroke-linecap="round"/>
<path d="M354.263 660L354.911 658.01H358.06L358.707 660H360.685L357.676 651.273H355.298L352.286 660H354.263ZM355.379 656.57L356.453 653.267H356.521L357.595 656.57H355.379ZM363.567 660.124C364.535 660.124 365.161 659.702 365.481 659.092H365.532V660H367.254V655.585C367.254 654.026 365.933 653.369 364.475 653.369C362.907 653.369 361.876 654.119 361.624 655.312L363.303 655.449C363.427 655.014 363.815 654.695 364.467 654.695C365.085 654.695 365.438 655.006 365.438 655.543V655.568C365.438 655.99 364.991 656.045 363.853 656.156C362.558 656.276 361.394 656.71 361.394 658.172C361.394 659.467 362.319 660.124 363.567 660.124ZM364.087 658.871C363.529 658.871 363.129 658.611 363.129 658.112C363.129 657.601 363.55 657.349 364.19 657.26C364.586 657.205 365.234 657.111 365.451 656.966V657.661C365.451 658.347 364.884 658.871 364.087 658.871ZM370.477 656.216C370.482 655.372 370.984 654.878 371.717 654.878C372.446 654.878 372.885 655.355 372.881 656.156V660H374.696V655.832C374.696 654.307 373.801 653.369 372.438 653.369C371.466 653.369 370.763 653.847 370.469 654.609H370.392V653.455H368.662V660H370.477V656.216ZM380.719 656.216C380.724 655.372 381.239 654.878 381.981 654.878C382.718 654.878 383.153 655.351 383.148 656.156V660H384.964V655.832C384.968 654.298 384.065 653.369 382.701 653.369C381.708 653.369 381.043 653.838 380.745 654.609H380.668V651.273H378.904V660H380.719V656.216ZM389.375 660.128C390.995 660.128 392.086 659.339 392.341 658.125L390.662 658.014C390.479 658.513 390.01 658.773 389.405 658.773C388.498 658.773 387.922 658.172 387.922 657.196V657.192H392.38V656.693C392.38 654.469 391.033 653.369 389.303 653.369C387.377 653.369 386.128 654.737 386.128 656.757C386.128 658.832 387.36 660.128 389.375 660.128ZM387.922 656.067C387.961 655.321 388.527 654.724 389.333 654.724C390.121 654.724 390.667 655.287 390.671 656.067H387.922ZM397.046 653.455H395.814V651.886H393.999V653.455H393.104V654.818H393.999V658.227C393.99 659.51 394.864 660.145 396.181 660.089C396.65 660.072 396.982 659.979 397.165 659.919L396.88 658.568C396.79 658.585 396.598 658.628 396.428 658.628C396.066 658.628 395.814 658.491 395.814 657.989V654.818H397.046V653.455ZM402.821 651.273H401.006V660H402.821V651.273ZM407.258 660.128C408.877 660.128 409.968 659.339 410.224 658.125L408.545 658.014C408.362 658.513 407.893 658.773 407.288 658.773C406.38 658.773 405.805 658.172 405.805 657.196V657.192H410.262V656.693C410.262 654.469 408.916 653.369 407.186 653.369C405.26 653.369 404.011 654.737 404.011 656.757C404.011 658.832 405.243 660.128 407.258 660.128ZM405.805 656.067C405.843 655.321 406.41 654.724 407.216 654.724C408.004 654.724 408.549 655.287 408.554 656.067H405.805ZM411.413 660H416.914V658.551H413.795V658.504L416.804 654.635V653.455H411.524V654.903H414.618V654.95L411.413 658.918V660ZM421.098 660.128C422.717 660.128 423.808 659.339 424.064 658.125L422.385 658.014C422.202 658.513 421.733 658.773 421.128 658.773C420.22 658.773 419.645 658.172 419.645 657.196V657.192H424.102V656.693C424.102 654.469 422.756 653.369 421.026 653.369C419.099 653.369 417.851 654.737 417.851 656.757C417.851 658.832 419.082 660.128 421.098 660.128ZM419.645 656.067C419.683 655.321 420.25 654.724 421.055 654.724C421.844 654.724 422.389 655.287 422.393 656.067H419.645ZM427.102 656.216C427.107 655.372 427.609 654.878 428.342 654.878C429.071 654.878 429.51 655.355 429.506 656.156V660H431.321V655.832C431.321 654.307 430.426 653.369 429.062 653.369C428.091 653.369 427.388 653.847 427.094 654.609H427.017V653.455H425.287V660H427.102V656.216Z" fill="black"/>
<path d="M355.852 676.119C357.544 676.119 358.801 675.058 358.801 673.631C358.801 672.523 358.145 671.717 357.045 671.534V671.466C357.928 671.197 358.477 670.473 358.477 669.489C358.477 668.253 357.501 667.153 355.886 667.153C354.378 667.153 353.125 668.082 353.074 669.455H354.097C354.135 668.585 354.962 668.074 355.869 668.074C356.832 668.074 357.455 668.658 357.455 669.54C357.455 670.46 356.734 671.057 355.699 671.057H355V671.994H355.699C357.024 671.994 357.761 672.668 357.761 673.631C357.761 674.555 356.956 675.182 355.835 675.182C354.825 675.182 354.024 674.662 353.96 673.818H352.886C352.95 675.19 354.161 676.119 355.852 676.119ZM364.072 676H365.044V674.994H365.163C365.385 675.352 365.811 676.136 367.072 676.136C368.709 676.136 369.851 674.824 369.851 672.744C369.851 670.682 368.709 669.369 367.055 669.369C365.777 669.369 365.385 670.153 365.163 670.494H365.078V667.273H364.072V676ZM365.061 672.727C365.061 671.261 365.709 670.273 366.936 670.273C368.214 670.273 368.845 671.347 368.845 672.727C368.845 674.125 368.197 675.233 366.936 675.233C365.726 675.233 365.061 674.21 365.061 672.727ZM374.048 676.136C375.821 676.136 377.014 674.79 377.014 672.761C377.014 670.716 375.821 669.369 374.048 669.369C372.276 669.369 371.082 670.716 371.082 672.761C371.082 674.79 372.276 676.136 374.048 676.136ZM374.048 675.233C372.702 675.233 372.088 674.074 372.088 672.761C372.088 671.449 372.702 670.273 374.048 670.273C375.395 670.273 376.009 671.449 376.009 672.761C376.009 674.074 375.395 675.233 374.048 675.233ZM381.294 676.136C382.623 676.136 383.595 675.472 383.902 674.483L382.93 674.21C382.674 674.892 382.082 675.233 381.294 675.233C380.113 675.233 379.299 674.47 379.252 673.068H384.004V672.642C384.004 670.205 382.555 669.369 381.191 669.369C379.419 669.369 378.243 670.767 378.243 672.778C378.243 674.79 379.402 676.136 381.294 676.136ZM379.252 672.199C379.321 671.18 380.041 670.273 381.191 670.273C382.282 670.273 382.981 671.091 382.981 672.199H379.252ZM385.534 676H386.539V673.55L387.243 672.898L389.693 676H390.971L388.001 672.25L390.767 669.455H389.522L386.659 672.369H386.539V667.273H385.534V676ZM394.536 676.136C395.865 676.136 396.837 675.472 397.144 674.483L396.172 674.21C395.917 674.892 395.324 675.233 394.536 675.233C393.355 675.233 392.542 674.47 392.495 673.068H397.246V672.642C397.246 670.205 395.797 669.369 394.434 669.369C392.661 669.369 391.485 670.767 391.485 672.778C391.485 674.79 392.644 676.136 394.536 676.136ZM392.495 672.199C392.563 671.18 393.283 670.273 394.434 670.273C395.525 670.273 396.223 671.091 396.223 672.199H392.495ZM399.782 672.062C399.782 670.92 400.489 670.273 401.452 670.273C402.385 670.273 402.952 670.882 402.952 671.909V676H403.958V671.841C403.958 670.17 403.067 669.369 401.742 669.369C400.753 669.369 400.14 669.812 399.833 670.477H399.748V669.455H398.776V676H399.782V672.062Z" fill="black"/>
</g>
<g clip-path="url(#clip2)">
<rect y="208" width="8" height="112" fill="white"/>
<rect x="16.5" y="208.5" width="79" height="111" fill="white" stroke="black"/>
<path d="M17 209L95 319" stroke="black" stroke-linecap="round"/>
<path d="M95 209L17 319" stroke="black" stroke-linecap="round"/>
<rect x="104.5" y="208.5" width="79" height="111" fill="white" stroke="black"/>
<path d="M105 209L183 319" stroke="black" stroke-linecap="round"/>
<path d="M183 209L105 319" stroke="black" stroke-linecap="round"/>
<rect x="192.5" y="208.5" width="79" height="111" fill="white" stroke="black"/>
<path d="M193 209L271 319" stroke="black" stroke-linecap="round"/>
<path d="M271 209L193 319" stroke="black" stroke-linecap="round"/>
<rect x="280.5" y="208.5" width="79" height="111" fill="white" stroke="black"/>
<path d="M281 209L359 319" stroke="black" stroke-linecap="round"/>
<path d="M359 209L281 319" stroke="black" stroke-linecap="round"/>
<rect x="368.5" y="208.5" width="79" height="111" fill="white" stroke="black"/>
<path d="M369 209L447 319" stroke="black" stroke-linecap="round"/>
<path d="M447 209L369 319" stroke="black" stroke-linecap="round"/>
</g>
<path d="M17.0114 182.364V194H19.3977V186.398H19.4943L22.5057 193.943H24.1307L27.142 186.426H27.2386V194H29.625V182.364H26.5909L23.3864 190.182H23.25L20.0455 182.364H17.0114ZM35.7244 194.17C37.8835 194.17 39.3381 193.119 39.679 191.5L37.4403 191.352C37.196 192.017 36.571 192.364 35.7642 192.364C34.554 192.364 33.7869 191.562 33.7869 190.261V190.256H39.7301V189.591C39.7301 186.625 37.9347 185.159 35.6278 185.159C33.0597 185.159 31.3949 186.983 31.3949 189.676C31.3949 192.443 33.0369 194.17 35.7244 194.17ZM33.7869 188.756C33.8381 187.761 34.5938 186.966 35.6676 186.966C36.7188 186.966 37.446 187.716 37.4517 188.756H33.7869ZM45.2869 194.17C47.446 194.17 48.9006 193.119 49.2415 191.5L47.0028 191.352C46.7585 192.017 46.1335 192.364 45.3267 192.364C44.1165 192.364 43.3494 191.562 43.3494 190.261V190.256H49.2926V189.591C49.2926 186.625 47.4972 185.159 45.1903 185.159C42.6222 185.159 40.9574 186.983 40.9574 189.676C40.9574 192.443 42.5994 194.17 45.2869 194.17ZM43.3494 188.756C43.4006 187.761 44.1562 186.966 45.2301 186.966C46.2812 186.966 47.0085 187.716 47.0142 188.756H43.3494ZM58.1335 187.761C57.9176 186.153 56.6222 185.159 54.4176 185.159C52.1847 185.159 50.7131 186.193 50.7188 187.875C50.7131 189.182 51.5369 190.028 53.2415 190.369L54.7528 190.67C55.5142 190.824 55.8608 191.102 55.8722 191.54C55.8608 192.057 55.2983 192.426 54.4517 192.426C53.5881 192.426 53.0142 192.057 52.8665 191.347L50.4858 191.472C50.7131 193.142 52.1335 194.17 54.446 194.17C56.7074 194.17 58.3267 193.017 58.3324 191.295C58.3267 190.034 57.5028 189.278 55.8097 188.932L54.2301 188.614C53.4176 188.438 53.1165 188.159 53.1222 187.739C53.1165 187.216 53.7074 186.875 54.4574 186.875C55.2983 186.875 55.7983 187.335 55.9176 187.898L58.1335 187.761ZM64.4986 185.273H62.8565V183.182H60.4361V185.273H59.2429V187.091H60.4361V191.636C60.4247 193.347 61.5895 194.193 63.3452 194.119C63.9702 194.097 64.4134 193.972 64.6577 193.892L64.277 192.091C64.1577 192.114 63.902 192.17 63.6747 192.17C63.1918 192.17 62.8565 191.989 62.8565 191.318V187.091H64.4986V185.273ZM69.7784 197.273H72.1989V192.602H72.2727C72.608 193.33 73.3409 194.142 74.75 194.142C76.7386 194.142 78.2898 192.568 78.2898 189.648C78.2898 186.648 76.6705 185.159 74.7557 185.159C73.2955 185.159 72.5966 186.028 72.2727 186.739H72.1648V185.273H69.7784V197.273ZM72.1477 189.636C72.1477 188.08 72.8068 187.085 73.983 187.085C75.1818 187.085 75.8182 188.125 75.8182 189.636C75.8182 191.159 75.1705 192.216 73.983 192.216C72.8182 192.216 72.1477 191.193 72.1477 189.636ZM83.8466 194.17C86.4943 194.17 88.142 192.358 88.142 189.67C88.142 186.966 86.4943 185.159 83.8466 185.159C81.1989 185.159 79.5511 186.966 79.5511 189.67C79.5511 192.358 81.1989 194.17 83.8466 194.17ZM83.858 192.295C82.6364 192.295 82.0114 191.176 82.0114 189.653C82.0114 188.131 82.6364 187.006 83.858 187.006C85.0568 187.006 85.6818 188.131 85.6818 189.653C85.6818 191.176 85.0568 192.295 83.858 192.295ZM89.7159 197.273H92.1364V192.602H92.2102C92.5455 193.33 93.2784 194.142 94.6875 194.142C96.6761 194.142 98.2273 192.568 98.2273 189.648C98.2273 186.648 96.608 185.159 94.6932 185.159C93.233 185.159 92.5341 186.028 92.2102 186.739H92.1023V185.273H89.7159V197.273ZM92.0852 189.636C92.0852 188.08 92.7443 187.085 93.9205 187.085C95.1193 187.085 95.7557 188.125 95.7557 189.636C95.7557 191.159 95.108 192.216 93.9205 192.216C92.7557 192.216 92.0852 191.193 92.0852 189.636ZM105.438 190.284C105.443 191.455 104.642 192.068 103.773 192.068C102.858 192.068 102.267 191.426 102.261 190.398V185.273H99.8409V190.83C99.8466 192.869 101.04 194.114 102.795 194.114C104.108 194.114 105.051 193.438 105.443 192.415H105.534V194H107.858V185.273H105.438V190.284ZM112.214 182.364H109.794V194H112.214V182.364ZM116.642 194.165C117.932 194.165 118.767 193.602 119.193 192.79H119.261V194H121.557V188.114C121.557 186.034 119.795 185.159 117.852 185.159C115.761 185.159 114.386 186.159 114.051 187.75L116.29 187.932C116.455 187.352 116.972 186.926 117.841 186.926C118.665 186.926 119.136 187.341 119.136 188.057V188.091C119.136 188.653 118.54 188.727 117.023 188.875C115.295 189.034 113.744 189.614 113.744 191.562C113.744 193.29 114.977 194.165 116.642 194.165ZM117.335 192.494C116.591 192.494 116.057 192.148 116.057 191.483C116.057 190.801 116.619 190.466 117.472 190.347C118 190.273 118.864 190.148 119.153 189.955V190.881C119.153 191.795 118.398 192.494 117.335 192.494ZM123.435 194H125.855V185.273H123.435V194ZM124.651 184.148C125.372 184.148 125.963 183.597 125.963 182.92C125.963 182.25 125.372 181.699 124.651 181.699C123.935 181.699 123.344 182.25 123.344 182.92C123.344 183.597 123.935 184.148 124.651 184.148ZM127.794 194H130.214V189.062C130.22 187.994 130.993 187.261 131.97 187.261C132.3 187.261 132.567 187.352 132.794 187.466L133.521 185.466C133.203 185.273 132.794 185.148 132.328 185.148C131.345 185.148 130.55 185.716 130.232 186.795H130.141V185.273H127.794V194Z" fill="black"/>
<path d="M18.5284 87H24.679V74.983H37.1648V87H43.3011V57.9091H37.1648V69.9119H24.679V57.9091H18.5284V87ZM54.4801 87.4119C57.7045 87.4119 59.7926 86.0057 60.858 83.9744H61.0284V87H66.767V72.2841C66.767 67.0852 62.3636 64.8977 57.5057 64.8977C52.2784 64.8977 48.8409 67.3977 48.0028 71.375L53.5994 71.8295C54.0114 70.3807 55.304 69.3153 57.4773 69.3153C59.5369 69.3153 60.7159 70.3523 60.7159 72.142V72.2273C60.7159 73.6335 59.2244 73.8182 55.4318 74.1875C51.1136 74.5852 47.2358 76.0341 47.2358 80.9062C47.2358 85.2244 50.3182 87.4119 54.4801 87.4119ZM56.2131 83.2358C54.3523 83.2358 53.017 82.3693 53.017 80.7074C53.017 79.0028 54.4233 78.1648 56.554 77.8665C57.875 77.6818 60.0341 77.3693 60.7585 76.8864V79.2017C60.7585 81.4886 58.8693 83.2358 56.2131 83.2358ZM77.5128 57.9091H71.4616V87H77.5128V57.9091ZM88.4112 57.9091H82.3601V87H88.4112V57.9091ZM103.116 87.4261C109.736 87.4261 113.855 82.8949 113.855 76.1761C113.855 69.4148 109.736 64.8977 103.116 64.8977C96.4972 64.8977 92.3778 69.4148 92.3778 76.1761C92.3778 82.8949 96.4972 87.4261 103.116 87.4261ZM103.145 82.7386C100.091 82.7386 98.5284 79.9403 98.5284 76.1335C98.5284 72.3267 100.091 69.5142 103.145 69.5142C106.142 69.5142 107.705 72.3267 107.705 76.1335C107.705 79.9403 106.142 82.7386 103.145 82.7386ZM127.161 57.9091V87H133.127V67.9943H133.369L140.897 86.858H144.96L152.488 68.0653H152.729V87H158.695V57.9091H151.11L143.099 77.4545H142.758L134.746 57.9091H127.161ZM170.222 87.4119C173.447 87.4119 175.535 86.0057 176.6 83.9744H176.771V87H182.509V72.2841C182.509 67.0852 178.106 64.8977 173.248 64.8977C168.021 64.8977 164.583 67.3977 163.745 71.375L169.342 71.8295C169.754 70.3807 171.046 69.3153 173.219 69.3153C175.279 69.3153 176.458 70.3523 176.458 72.142V72.2273C176.458 73.6335 174.967 73.8182 171.174 74.1875C166.856 74.5852 162.978 76.0341 162.978 80.9062C162.978 85.2244 166.06 87.4119 170.222 87.4119ZM171.955 83.2358C170.094 83.2358 168.759 82.3693 168.759 80.7074C168.759 79.0028 170.165 78.1648 172.296 77.8665C173.617 77.6818 175.776 77.3693 176.501 76.8864V79.2017C176.501 81.4886 174.612 83.2358 171.955 83.2358ZM187.204 87H193.255V74.6562C193.269 71.9858 195.201 70.1534 197.644 70.1534C198.468 70.1534 199.136 70.3807 199.704 70.6648L201.522 65.6648C200.727 65.1818 199.704 64.8693 198.539 64.8693C196.082 64.8693 194.093 66.2898 193.298 68.9886H193.07V65.1818H187.204V87ZM210.403 57.9091H204.352V87H210.403V57.9091ZM225.109 87.4261C231.728 87.4261 235.847 82.8949 235.847 76.1761C235.847 69.4148 231.728 64.8977 225.109 64.8977C218.489 64.8977 214.37 69.4148 214.37 76.1761C214.37 82.8949 218.489 87.4261 225.109 87.4261ZM225.137 82.7386C222.083 82.7386 220.521 79.9403 220.521 76.1335C220.521 72.3267 222.083 69.5142 225.137 69.5142C228.134 69.5142 229.697 72.3267 229.697 76.1335C229.697 79.9403 228.134 82.7386 225.137 82.7386ZM249.725 87.4261C255.123 87.4261 258.759 84.7983 259.612 80.75L254.015 80.3807C253.404 82.0426 251.842 82.9091 249.825 82.9091C246.799 82.9091 244.881 80.9062 244.881 77.6534V77.6392H259.739V75.9773C259.739 68.5625 255.251 64.8977 249.484 64.8977C243.063 64.8977 238.901 69.4574 238.901 76.1903C238.901 83.108 243.006 87.4261 249.725 87.4261ZM244.881 73.8892C245.009 71.4034 246.898 69.4148 249.583 69.4148C252.211 69.4148 254.029 71.2898 254.043 73.8892H244.881ZM281.842 71.4034C281.302 67.3835 278.063 64.8977 272.552 64.8977C266.969 64.8977 263.29 67.483 263.305 71.6875C263.29 74.9545 265.35 77.071 269.612 77.9233L273.39 78.6761C275.293 79.0597 276.16 79.7557 276.188 80.8494C276.16 82.142 274.754 83.0653 272.637 83.0653C270.478 83.0653 269.043 82.142 268.674 80.3665L262.722 80.679C263.29 84.8551 266.842 87.4261 272.623 87.4261C278.276 87.4261 282.325 84.5426 282.339 80.2386C282.325 77.0852 280.265 75.196 276.032 74.3295L272.083 73.5341C270.052 73.0938 269.299 72.3977 269.313 71.3466C269.299 70.0398 270.776 69.1875 272.651 69.1875C274.754 69.1875 276.004 70.3381 276.302 71.7443L281.842 71.4034ZM292.726 83.0227H287.726L287.655 84.6136C287.484 88.4773 286.376 92.4403 285.964 94.1023H289.885C290.567 92.3835 292.186 88.3494 292.57 84.5852L292.726 83.0227ZM22.7188 135H29.1108L32.8608 121.278H33.1307L36.8807 135H43.2869L49.2102 113.182H43.1023L39.7784 127.756H39.5938L36.0142 113.182H30.0057L26.483 127.841H26.2841L22.9034 113.182H16.7812L22.7188 135ZM61.8345 135.426C67.2322 135.426 70.8686 132.798 71.7209 128.75L66.1243 128.381C65.5135 130.043 63.951 130.909 61.9339 130.909C58.9084 130.909 56.9908 128.906 56.9908 125.653V125.639H71.8487V123.977C71.8487 116.562 67.3601 112.898 61.593 112.898C55.1726 112.898 51.0107 117.457 51.0107 124.19C51.0107 131.108 55.1158 135.426 61.8345 135.426ZM56.9908 121.889C57.1186 119.403 59.0078 117.415 61.6925 117.415C64.3203 117.415 66.1385 119.29 66.1527 121.889H56.9908ZM81.8487 105.909H75.7976V135H81.8487V105.909ZM86.696 135H92.7472V128.068L94.3807 126.207L100.332 135H107.42L98.9119 122.628L107.009 113.182H100.062L93.0739 121.463H92.7472V105.909H86.696V135ZM118.937 135.426C125.556 135.426 129.675 130.895 129.675 124.176C129.675 117.415 125.556 112.898 118.937 112.898C112.317 112.898 108.198 117.415 108.198 124.176C108.198 130.895 112.317 135.426 118.937 135.426ZM118.965 130.739C115.911 130.739 114.349 127.94 114.349 124.134C114.349 120.327 115.911 117.514 118.965 117.514C121.962 117.514 123.525 120.327 123.525 124.134C123.525 127.94 121.962 130.739 118.965 130.739ZM133.61 135H139.661V121.903C139.661 119.489 141.195 117.884 143.212 117.884C145.201 117.884 146.536 119.247 146.536 121.392V135H152.403V121.676C152.403 119.418 153.695 117.884 155.897 117.884C157.829 117.884 159.278 119.091 159.278 121.52V135H165.315V120.327C165.315 115.597 162.502 112.898 158.44 112.898C155.244 112.898 152.758 114.531 151.863 117.031H151.636C150.94 114.503 148.71 112.898 145.712 112.898C142.772 112.898 140.542 114.46 139.633 117.031H139.377V113.182H133.61V135ZM190.957 113.182H186.852V107.955H180.801V113.182H177.818V117.727H180.801V129.091C180.773 133.366 183.685 135.483 188.074 135.298C189.636 135.241 190.744 134.929 191.355 134.73L190.403 130.227C190.105 130.284 189.466 130.426 188.898 130.426C187.69 130.426 186.852 129.972 186.852 128.295V117.727H190.957V113.182ZM204.608 135.426C210.006 135.426 213.642 132.798 214.494 128.75L208.898 128.381C208.287 130.043 206.724 130.909 204.707 130.909C201.682 130.909 199.764 128.906 199.764 125.653V125.639H214.622V123.977C214.622 116.562 210.134 112.898 204.366 112.898C197.946 112.898 193.784 117.457 193.784 124.19C193.784 131.108 197.889 135.426 204.608 135.426ZM199.764 121.889C199.892 119.403 201.781 117.415 204.466 117.415C207.094 117.415 208.912 119.29 208.926 121.889H199.764ZM218.571 135H224.622V122.656C224.622 119.972 226.582 118.125 229.253 118.125C230.091 118.125 231.241 118.267 231.81 118.452V113.082C231.27 112.955 230.517 112.869 229.906 112.869C227.463 112.869 225.46 114.29 224.665 116.989H224.438V113.182H218.571V135ZM248.93 125.71C248.944 128.636 246.941 130.17 244.768 130.17C242.481 130.17 241.004 128.565 240.989 125.994V113.182H234.938V127.074C234.952 132.173 237.935 135.284 242.325 135.284C245.606 135.284 247.964 133.594 248.944 131.037H249.171V135H254.981V113.182H248.93V125.71ZM269.651 143.494C275.886 143.494 280.318 140.653 280.318 135.213V113.182H274.31V116.847H274.082C273.273 115.071 271.497 112.898 267.847 112.898C263.06 112.898 259.011 116.619 259.011 124.048C259.011 131.307 262.946 134.688 267.861 134.688C271.341 134.688 273.287 132.94 274.082 131.136H274.338V135.128C274.338 137.983 272.42 139.148 269.793 139.148C267.122 139.148 265.773 137.983 265.276 136.804L259.679 137.557C260.403 140.852 263.77 143.494 269.651 143.494ZM269.778 130.142C266.81 130.142 265.19 127.784 265.19 124.02C265.19 120.312 266.781 117.713 269.778 117.713C272.719 117.713 274.366 120.199 274.366 124.02C274.366 127.869 272.69 130.142 269.778 130.142ZM292.364 105.909H286.043L286.611 126.278H291.81L292.364 105.909ZM289.21 135.369C291.028 135.369 292.605 133.849 292.619 131.96C292.605 130.099 291.028 128.58 289.21 128.58C287.335 128.58 285.787 130.099 285.801 131.96C285.787 133.849 287.335 135.369 289.21 135.369Z" fill="black"/>
<path d="M0 696H376V752H0V696Z" fill="white"/>
<path d="M47.375 713L56.375 706L65.375 713V724C65.375 724.53 65.1643 725.039 64.7892 725.414C64.4141 725.789 63.9054 726 63.375 726H49.375C48.8446 726 48.3359 725.789 47.9608 725.414C47.5857 725.039 47.375 724.53 47.375 724V713Z" stroke="black" stroke-width="1.6" stroke-linecap="round" stroke-linejoin="round"/>
<path d="M53.375 726V716H59.375V726" stroke="black" stroke-width="1.6" stroke-linecap="round" stroke-linejoin="round"/>
<path d="M45.5778 742H46.6317V739.528H49.3278V742H50.3846V736.182H49.3278V738.645H46.6317V736.182H45.5778V742ZM53.3888 742.085C54.6673 742.085 55.4798 741.185 55.4798 739.835C55.4798 738.483 54.6673 737.58 53.3888 737.58C52.1104 737.58 51.2979 738.483 51.2979 739.835C51.2979 741.185 52.1104 742.085 53.3888 742.085ZM53.3945 741.261C52.6871 741.261 52.3406 740.631 52.3406 739.832C52.3406 739.034 52.6871 738.395 53.3945 738.395C54.0906 738.395 54.4371 739.034 54.4371 739.832C54.4371 740.631 54.0906 741.261 53.3945 741.261ZM56.3526 742H57.381V739.347C57.381 738.81 57.739 738.446 58.1822 738.446C58.6168 738.446 58.9151 738.739 58.9151 739.188V742H59.9237V739.278C59.9237 738.787 60.2163 738.446 60.7134 738.446C61.1282 738.446 61.4577 738.69 61.4577 739.23V742H62.489V739.071C62.489 738.097 61.9265 737.58 61.1254 737.58C60.4918 737.58 60.0089 737.892 59.8157 738.378H59.7702C59.6026 737.884 59.1793 737.58 58.5913 737.58C58.006 737.58 57.5685 737.881 57.3867 738.378H57.3356V737.636H56.3526V742ZM65.4641 742.085C66.4812 742.085 67.18 741.588 67.3619 740.83L66.4016 740.722C66.2624 741.091 65.9215 741.284 65.4783 741.284C64.8136 741.284 64.3732 740.847 64.3647 740.099H67.4045V739.784C67.4045 738.253 66.484 737.58 65.4102 737.58C64.1602 737.58 63.3448 738.497 63.3448 739.844C63.3448 741.213 64.1488 742.085 65.4641 742.085ZM64.3675 739.406C64.3988 738.849 64.8107 738.381 65.4244 738.381C66.0153 738.381 66.413 738.812 66.4187 739.406H64.3675Z" fill="black"/>
<path d="M143.125 731C147.543 731 151.125 727.418 151.125 723C151.125 718.582 147.543 715 143.125 715C138.707 715 135.125 718.582 135.125 723C135.125 727.418 138.707 731 143.125 731Z" stroke="black" stroke-width="1.6" stroke-linecap="round" stroke-linejoin="round"/>
<path d="M153.125 733L148.775 728.65" stroke="black" stroke-width="1.6" stroke-linecap="round" stroke-linejoin="round"/>
<path d="M239.875 733V731C239.875 729.939 239.454 728.922 238.703 728.172C237.953 727.421 236.936 727 235.875 727H227.875C226.814 727 225.797 727.421 225.047 728.172C224.296 728.922 223.875 729.939 223.875 731V733" stroke="black" stroke-width="1.6" stroke-linecap="round" stroke-linejoin="round"/>
<path d="M231.875 723C234.084 723 235.875 721.209 235.875 719C235.875 716.791 234.084 715 231.875 715C229.666 715 227.875 716.791 227.875 719C227.875 721.209 229.666 723 231.875 723Z" stroke="black" stroke-width="1.6" stroke-linecap="round" stroke-linejoin="round"/>
<g clip-path="url(#clip3)">
<path d="M319.625 727C321.282 727 322.625 725.657 322.625 724C322.625 722.343 321.282 721 319.625 721C317.968 721 316.625 722.343 316.625 724C316.625 725.657 317.968 727 319.625 727Z" stroke="black" stroke-width="1.6" stroke-linecap="round" stroke-linejoin="round"/>
<path d="M327.025 727C326.892 727.302 326.852 727.636 326.911 727.961C326.97 728.285 327.124 728.584 327.355 728.82L327.415 728.88C327.601 729.066 327.748 729.286 327.849 729.529C327.95 729.772 328.002 730.032 328.002 730.295C328.002 730.558 327.95 730.818 327.849 731.061C327.748 731.304 327.601 731.524 327.415 731.71C327.229 731.896 327.009 732.043 326.766 732.144C326.523 732.245 326.263 732.297 326 732.297C325.737 732.297 325.477 732.245 325.234 732.144C324.991 732.043 324.771 731.896 324.585 731.71L324.525 731.65C324.289 731.419 323.99 731.265 323.666 731.206C323.341 731.147 323.007 731.187 322.705 731.32C322.409 731.447 322.157 731.657 321.979 731.926C321.802 732.194 321.706 732.508 321.705 732.83V733C321.705 733.53 321.494 734.039 321.119 734.414C320.744 734.789 320.235 735 319.705 735C319.175 735 318.666 734.789 318.291 734.414C317.916 734.039 317.705 733.53 317.705 733V732.91C317.697 732.579 317.59 732.258 317.398 731.989C317.205 731.719 316.936 731.514 316.625 731.4C316.323 731.267 315.989 731.227 315.664 731.286C315.34 731.345 315.041 731.499 314.805 731.73L314.745 731.79C314.559 731.976 314.339 732.123 314.096 732.224C313.853 732.325 313.593 732.377 313.33 732.377C313.067 732.377 312.807 732.325 312.564 732.224C312.321 732.123 312.101 731.976 311.915 731.79C311.729 731.604 311.582 731.384 311.481 731.141C311.38 730.898 311.328 730.638 311.328 730.375C311.328 730.112 311.38 729.852 311.481 729.609C311.582 729.366 311.729 729.146 311.915 728.96L311.975 728.9C312.206 728.664 312.36 728.365 312.419 728.041C312.478 727.716 312.438 727.382 312.305 727.08C312.178 726.784 311.968 726.532 311.699 726.354C311.431 726.177 311.117 726.081 310.795 726.08H310.625C310.095 726.08 309.586 725.869 309.211 725.494C308.836 725.119 308.625 724.61 308.625 724.08C308.625 723.55 308.836 723.041 309.211 722.666C309.586 722.291 310.095 722.08 310.625 722.08H310.715C311.046 722.072 311.367 721.965 311.636 721.773C311.906 721.58 312.111 721.311 312.225 721C312.358 720.698 312.398 720.364 312.339 720.039C312.28 719.715 312.126 719.416 311.895 719.18L311.835 719.12C311.649 718.934 311.502 718.714 311.401 718.471C311.3 718.228 311.248 717.968 311.248 717.705C311.248 717.442 311.3 717.182 311.401 716.939C311.502 716.696 311.649 716.476 311.835 716.29C312.021 716.104 312.241 715.957 312.484 715.856C312.727 715.755 312.987 715.703 313.25 715.703C313.513 715.703 313.773 715.755 314.016 715.856C314.259 715.957 314.479 716.104 314.665 716.29L314.725 716.35C314.961 716.581 315.26 716.735 315.584 716.794C315.909 716.853 316.243 716.813 316.545 716.68H316.625C316.921 716.553 317.173 716.343 317.351 716.074C317.528 715.806 317.624 715.492 317.625 715.17V715C317.625 714.47 317.836 713.961 318.211 713.586C318.586 713.211 319.095 713 319.625 713C320.155 713 320.664 713.211 321.039 713.586C321.414 713.961 321.625 714.47 321.625 715V715.09C321.626 715.412 321.722 715.726 321.899 715.994C322.077 716.263 322.329 716.473 322.625 716.6C322.927 716.733 323.261 716.773 323.586 716.714C323.91 716.655 324.209 716.501 324.445 716.27L324.505 716.21C324.691 716.024 324.911 715.877 325.154 715.776C325.397 715.675 325.657 715.623 325.92 715.623C326.183 715.623 326.443 715.675 326.686 715.776C326.929 715.877 327.149 716.024 327.335 716.21C327.521 716.396 327.668 716.616 327.769 716.859C327.87 717.102 327.922 717.362 327.922 717.625C327.922 717.888 327.87 718.148 327.769 718.391C327.668 718.634 327.521 718.854 327.335 719.04L327.275 719.1C327.044 719.336 326.89 719.635 326.831 719.959C326.772 720.284 326.812 720.618 326.945 720.92V721C327.072 721.296 327.282 721.548 327.551 721.726C327.819 721.903 328.133 721.999 328.455 722H328.625C329.155 722 329.664 722.211 330.039 722.586C330.414 722.961 330.625 723.47 330.625 724C330.625 724.53 330.414 725.039 330.039 725.414C329.664 725.789 329.155 726 328.625 726H328.535C328.213 726.001 327.899 726.097 327.631 726.274C327.362 726.452 327.152 726.704 327.025 727V727Z" stroke="black" stroke-width="1.6" stroke-linecap="round" stroke-linejoin="round"/>
</g>
<path d="M0 696V695H-1V696H0ZM376 696H377V695H376V696ZM376 752V753H377V752H376ZM0 752H-1V753H0V752ZM0 697H376V695H0V697ZM375 696V752H377V696H375ZM376 751H0V753H376V751ZM1 752V696H-1V752H1Z" fill="black"/>
</g>
<defs>
<clipPath id="clip0">
<rect width="376" height="752" fill="white"/>
</clipPath>
<clipPath id="clip1">
<rect width="376" height="152" fill="white" transform="translate(0 528)"/>
</clipPath>
<clipPath id="clip2">
<rect width="376" height="112" fill="white" transform="translate(0 208)"/>
</clipPath>
<clipPath id="clip3">
<rect width="24" height="24" fill="white" transform="translate(307.625 712)"/>
</clipPath>
</defs>
</svg>
