<svg width="376" height="752" viewBox="0 0 376 752" fill="none" xmlns="http://www.w3.org/2000/svg">
<g clip-path="url(#clip0)">
<rect width="376" height="752" fill="white"/>
<rect x="-0.5" y="-0.5" width="377" height="161" fill="white" stroke="black"/>
<path d="M32.7727 83.6136H36.4318V94H37.8409V83.6136H41.5V82.3636H32.7727V83.6136ZM43.3111 97.3864C44.5384 97.3864 45.3793 96.75 45.8793 95.4091L49.6293 85.2727H48.1747L45.7656 92.2273H45.6747L43.2656 85.2727H41.8111L45.0384 94.0455L44.7429 94.8636C44.2713 96.1705 43.652 96.2955 42.6747 96.0455L42.3338 97.2273C42.4702 97.2955 42.8565 97.3864 43.3111 97.3864ZM51.3991 97.2727H52.7401V92.6591H52.8537C53.1491 93.1364 53.7173 94.1818 55.3991 94.1818C57.581 94.1818 59.1037 92.4318 59.1037 89.6591C59.1037 86.9091 57.581 85.1591 55.3764 85.1591C53.6719 85.1591 53.1491 86.2045 52.8537 86.6591H52.6946V85.2727H51.3991V97.2727ZM52.7173 89.6364C52.7173 87.6818 53.581 86.3636 55.2173 86.3636C56.9219 86.3636 57.7628 87.7955 57.7628 89.6364C57.7628 91.5 56.8991 92.9773 55.2173 92.9773C53.6037 92.9773 52.7173 91.6136 52.7173 89.6364ZM69.1946 94.1818C71.5582 94.1818 73.1491 92.3864 73.1491 89.6818C73.1491 86.9545 71.5582 85.1591 69.1946 85.1591C66.831 85.1591 65.2401 86.9545 65.2401 89.6818C65.2401 92.3864 66.831 94.1818 69.1946 94.1818ZM69.1946 92.9773C67.3991 92.9773 66.581 91.4318 66.581 89.6818C66.581 87.9318 67.3991 86.3636 69.1946 86.3636C70.9901 86.3636 71.8082 87.9318 71.8082 89.6818C71.8082 91.4318 70.9901 92.9773 69.1946 92.9773ZM75.196 94H76.5369V88.5455C76.5369 87.267 77.4688 86.3636 78.5142 86.3636C79.5312 86.3636 80.2415 87.0284 80.2415 88.0227V94H81.6051V88.3182C81.6051 87.1932 82.3097 86.3636 83.5369 86.3636C84.4915 86.3636 85.3097 86.8693 85.3097 88.1591V94H86.6506V88.1591C86.6506 86.108 85.5483 85.1591 83.9915 85.1591C82.7415 85.1591 81.8267 85.733 81.3778 86.6364H81.2869C80.8551 85.7045 80.0938 85.1591 78.946 85.1591C77.8097 85.1591 76.9688 85.7045 76.6051 86.6364H76.4915V85.2727H75.196V94ZM97.3977 85.2727H95.5341V83.1818H94.1932V85.2727H92.875V86.4091H94.1932V91.8636C94.1932 93.3864 95.4205 94.1136 96.5568 94.1136C97.0568 94.1136 97.375 94.0227 97.5568 93.9545L97.2841 92.75C97.1705 92.7727 96.9886 92.8182 96.6932 92.8182C96.1023 92.8182 95.5341 92.6364 95.5341 91.5V86.4091H97.3977V85.2727ZM102.98 94.1818C104.753 94.1818 106.048 93.2955 106.457 91.9773L105.162 91.6136C104.821 92.5227 104.031 92.9773 102.98 92.9773C101.406 92.9773 100.321 91.9602 100.259 90.0909H106.594V89.5227C106.594 86.2727 104.662 85.1591 102.844 85.1591C100.48 85.1591 98.9119 87.0227 98.9119 89.7045C98.9119 92.3864 100.457 94.1818 102.98 94.1818ZM100.259 88.9318C100.349 87.5739 101.31 86.3636 102.844 86.3636C104.298 86.3636 105.23 87.4545 105.23 88.9318H100.259ZM112.884 94H119.724V92.75H114.747V92.6591L119.565 86.3409V85.2727H113.043V86.5227H117.838V86.6136L112.884 92.9773V94ZM125.085 94.1818C127.449 94.1818 129.04 92.3864 129.04 89.6818C129.04 86.9545 127.449 85.1591 125.085 85.1591C122.722 85.1591 121.131 86.9545 121.131 89.6818C121.131 92.3864 122.722 94.1818 125.085 94.1818ZM125.085 92.9773C123.29 92.9773 122.472 91.4318 122.472 89.6818C122.472 87.9318 123.29 86.3636 125.085 86.3636C126.881 86.3636 127.699 87.9318 127.699 89.6818C127.699 91.4318 126.881 92.9773 125.085 92.9773ZM134.746 94.1818C136.518 94.1818 137.814 93.2955 138.223 91.9773L136.928 91.6136C136.587 92.5227 135.797 92.9773 134.746 92.9773C133.172 92.9773 132.087 91.9602 132.024 90.0909H138.359V89.5227C138.359 86.2727 136.428 85.1591 134.609 85.1591C132.246 85.1591 130.678 87.0227 130.678 89.7045C130.678 92.3864 132.223 94.1818 134.746 94.1818ZM132.024 88.9318C132.115 87.5739 133.075 86.3636 134.609 86.3636C136.064 86.3636 136.996 87.4545 136.996 88.9318H132.024ZM140.399 94H141.74V90.733L142.678 89.8636L145.945 94H147.649L143.689 89L147.376 85.2727H145.717L141.899 89.1591H141.74V82.3636H140.399V94ZM152.402 94.1818C154.175 94.1818 155.47 93.2955 155.879 91.9773L154.584 91.6136C154.243 92.5227 153.453 92.9773 152.402 92.9773C150.828 92.9773 149.743 91.9602 149.68 90.0909H156.016V89.5227C156.016 86.2727 154.084 85.1591 152.266 85.1591C149.902 85.1591 148.334 87.0227 148.334 89.7045C148.334 92.3864 149.879 94.1818 152.402 94.1818ZM149.68 88.9318C149.771 87.5739 150.732 86.3636 152.266 86.3636C153.72 86.3636 154.652 87.4545 154.652 88.9318H149.68ZM159.396 88.75C159.396 87.2273 160.339 86.3636 161.624 86.3636C162.868 86.3636 163.624 87.1761 163.624 88.5455V94H164.964V88.4545C164.964 86.2273 163.777 85.1591 162.01 85.1591C160.692 85.1591 159.874 85.75 159.464 86.6364H159.351V85.2727H158.055V94H159.396V88.75ZM168.392 94.0909C168.955 94.0909 169.415 93.6307 169.415 93.0682C169.415 92.5057 168.955 92.0455 168.392 92.0455C167.83 92.0455 167.369 92.5057 167.369 93.0682C167.369 93.6307 167.83 94.0909 168.392 94.0909ZM172.798 94.0909C173.361 94.0909 173.821 93.6307 173.821 93.0682C173.821 92.5057 173.361 92.0455 172.798 92.0455C172.236 92.0455 171.776 92.5057 171.776 93.0682C171.776 93.6307 172.236 94.0909 172.798 94.0909ZM177.205 94.0909C177.767 94.0909 178.227 93.6307 178.227 93.0682C178.227 92.5057 177.767 92.0455 177.205 92.0455C176.642 92.0455 176.182 92.5057 176.182 93.0682C176.182 93.6307 176.642 94.0909 177.205 94.0909Z" fill="#666666"/>
<rect x="16.5" y="64.5" width="287" height="47" stroke="black"/>
<path d="M18.642 146L19.6023 143.131H23.9773L24.9432 146H27.1932L23.0909 134.364H20.4886L16.392 146H18.642ZM20.1705 141.438L21.7443 136.75H21.8352L23.4091 141.438H20.1705ZM30.6918 134.364H28.6349V146H30.6918V134.364ZM34.8636 134.364H32.8068V146H34.8636V134.364ZM40.8423 146.17C42.8764 146.17 44.2741 145.176 44.6378 143.659L42.7173 143.443C42.4389 144.182 41.7571 144.568 40.8707 144.568C39.5412 144.568 38.6605 143.693 38.6435 142.199H44.723V141.568C44.723 138.506 42.8821 137.159 40.7344 137.159C38.2344 137.159 36.6037 138.994 36.6037 141.688C36.6037 144.426 38.2116 146.17 40.8423 146.17ZM38.6491 140.812C38.7116 139.699 39.5355 138.761 40.7628 138.761C41.9446 138.761 42.7401 139.625 42.7514 140.812H38.6491ZM53.3608 139.58C53.0767 138.102 51.8949 137.159 49.8494 137.159C47.7472 137.159 46.3153 138.193 46.321 139.807C46.3153 141.08 47.0994 141.92 48.7756 142.267L50.2642 142.58C51.0653 142.756 51.4403 143.08 51.4403 143.574C51.4403 144.17 50.7926 144.619 49.8153 144.619C48.8722 144.619 48.2585 144.21 48.0824 143.426L46.0767 143.619C46.3324 145.222 47.679 146.17 49.821 146.17C52.0028 146.17 53.5426 145.04 53.5483 143.386C53.5426 142.142 52.7415 141.381 51.0938 141.023L49.6051 140.705C48.7188 140.506 48.3665 140.199 48.3722 139.693C48.3665 139.102 49.0199 138.693 49.8778 138.693C50.8267 138.693 51.3267 139.21 51.4858 139.784L53.3608 139.58Z" fill="black"/>
<rect x="16" y="158" width="39" height="2" fill="black"/>
<path d="M72.1477 146H76.858C79.5227 146 80.8295 144.642 80.8295 142.83C80.8295 141.068 79.5795 140.034 78.3409 139.972V139.858C79.4773 139.591 80.375 138.795 80.375 137.381C80.375 135.648 79.125 134.364 76.6023 134.364H72.1477V146ZM74.2557 144.239V140.83H76.5795C77.8807 140.83 78.6875 141.625 78.6875 142.665C78.6875 143.591 78.0511 144.239 76.5227 144.239H74.2557ZM74.2557 139.312V136.102H76.3864C77.625 136.102 78.267 136.756 78.267 137.653C78.267 138.676 77.4375 139.312 76.3409 139.312H74.2557ZM86.3793 146.17C88.9361 146.17 90.5611 144.369 90.5611 141.67C90.5611 138.966 88.9361 137.159 86.3793 137.159C83.8224 137.159 82.1974 138.966 82.1974 141.67C82.1974 144.369 83.8224 146.17 86.3793 146.17ZM86.3906 144.523C84.9759 144.523 84.2827 143.261 84.2827 141.665C84.2827 140.068 84.9759 138.79 86.3906 138.79C87.7827 138.79 88.4759 140.068 88.4759 141.665C88.4759 143.261 87.7827 144.523 86.3906 144.523ZM96.1705 146.17C98.2045 146.17 99.6023 145.176 99.9659 143.659L98.0455 143.443C97.767 144.182 97.0852 144.568 96.1989 144.568C94.8693 144.568 93.9886 143.693 93.9716 142.199H100.051V141.568C100.051 138.506 98.2102 137.159 96.0625 137.159C93.5625 137.159 91.9318 138.994 91.9318 141.688C91.9318 144.426 93.5398 146.17 96.1705 146.17ZM93.9773 140.812C94.0398 139.699 94.8636 138.761 96.0909 138.761C97.2727 138.761 98.0682 139.625 98.0795 140.812H93.9773ZM101.791 146H103.848V143.068L104.598 142.267L107.268 146H109.729L106.149 141.04L109.53 137.273H107.126L103.99 140.778H103.848V134.364H101.791V146ZM114.405 146.17C116.439 146.17 117.837 145.176 118.2 143.659L116.28 143.443C116.001 144.182 115.32 144.568 114.433 144.568C113.104 144.568 112.223 143.693 112.206 142.199H118.286V141.568C118.286 138.506 116.445 137.159 114.297 137.159C111.797 137.159 110.166 138.994 110.166 141.688C110.166 144.426 111.774 146.17 114.405 146.17ZM112.212 140.812C112.274 139.699 113.098 138.761 114.325 138.761C115.507 138.761 116.303 139.625 116.314 140.812H112.212ZM122.082 140.886C122.082 139.625 122.844 138.898 123.929 138.898C124.991 138.898 125.628 139.597 125.628 140.761V146H127.685V140.443C127.69 138.352 126.497 137.159 124.696 137.159C123.389 137.159 122.491 137.784 122.094 138.756H121.991V137.273H120.026V146H122.082V140.886Z" fill="#999999"/>
<path d="M147.642 146L148.602 143.131H152.977L153.943 146H156.193L152.091 134.364H149.489L145.392 146H147.642ZM149.17 141.438L150.744 136.75H150.835L152.409 141.438H149.17ZM163.197 142.33C163.197 143.659 162.249 144.318 161.339 144.318C160.351 144.318 159.692 143.619 159.692 142.511V137.273H157.635V142.83C157.635 144.926 158.828 146.114 160.544 146.114C161.851 146.114 162.771 145.426 163.169 144.449H163.26V146H165.254V137.273H163.197V142.33ZM171.727 137.273H170.006V135.182H167.949V137.273H166.71V138.864H167.949V143.716C167.938 145.358 169.131 146.165 170.676 146.119C171.261 146.102 171.665 145.989 171.886 145.915L171.54 144.307C171.426 144.335 171.193 144.386 170.938 144.386C170.42 144.386 170.006 144.205 170.006 143.375V138.864H171.727V137.273ZM177.217 146.17C179.251 146.17 180.649 145.176 181.013 143.659L179.092 143.443C178.814 144.182 178.132 144.568 177.246 144.568C175.916 144.568 175.036 143.693 175.018 142.199H181.098V141.568C181.098 138.506 179.257 137.159 177.109 137.159C174.609 137.159 172.979 138.994 172.979 141.688C172.979 144.426 174.587 146.17 177.217 146.17ZM175.024 140.812C175.087 139.699 175.911 138.761 177.138 138.761C178.32 138.761 179.115 139.625 179.126 140.812H175.024ZM188.401 142.33C188.401 143.659 187.452 144.318 186.543 144.318C185.554 144.318 184.895 143.619 184.895 142.511V137.273H182.838V142.83C182.838 144.926 184.031 146.114 185.747 146.114C187.054 146.114 187.974 145.426 188.372 144.449H188.463V146H190.457V137.273H188.401V142.33ZM192.572 146H194.629V140.869C194.629 139.767 195.459 138.989 196.533 138.989C196.868 138.989 197.124 139.068 197.345 139.17L197.982 137.466C197.675 137.273 197.283 137.148 196.811 137.148C195.805 137.148 194.976 137.716 194.658 138.727H194.567V137.273H192.572V146ZM206.095 139.58C205.811 138.102 204.629 137.159 202.584 137.159C200.482 137.159 199.05 138.193 199.055 139.807C199.05 141.08 199.834 141.92 201.51 142.267L202.999 142.58C203.8 142.756 204.175 143.08 204.175 143.574C204.175 144.17 203.527 144.619 202.55 144.619C201.607 144.619 200.993 144.21 200.817 143.426L198.811 143.619C199.067 145.222 200.413 146.17 202.555 146.17C204.737 146.17 206.277 145.04 206.283 143.386C206.277 142.142 205.476 141.381 203.828 141.023L202.339 140.705C201.453 140.506 201.101 140.199 201.107 139.693C201.101 139.102 201.754 138.693 202.612 138.693C203.561 138.693 204.061 139.21 204.22 139.784L206.095 139.58Z" fill="#999999"/>
<path d="M234.108 138.29C233.75 135.705 231.761 134.205 229.182 134.205C226.142 134.205 223.852 136.42 223.852 140.182C223.852 143.938 226.114 146.159 229.182 146.159C231.949 146.159 233.784 144.369 234.108 142.148L231.983 142.136C231.716 143.5 230.602 144.267 229.21 144.267C227.324 144.267 225.972 142.852 225.972 140.182C225.972 137.557 227.312 136.097 229.216 136.097C230.631 136.097 231.739 136.898 231.983 138.29H234.108ZM238.459 146.176C239.828 146.176 240.646 145.534 241.021 144.801H241.089V146H243.067V140.159C243.067 137.852 241.186 137.159 239.521 137.159C237.686 137.159 236.277 137.977 235.822 139.568L237.743 139.841C237.947 139.244 238.527 138.733 239.533 138.733C240.487 138.733 241.01 139.222 241.01 140.08V140.114C241.01 140.705 240.391 140.733 238.851 140.898C237.158 141.08 235.538 141.585 235.538 143.551C235.538 145.267 236.794 146.176 238.459 146.176ZM238.993 144.665C238.135 144.665 237.521 144.273 237.521 143.517C237.521 142.727 238.209 142.398 239.129 142.267C239.669 142.193 240.749 142.057 241.016 141.841V142.869C241.016 143.841 240.232 144.665 238.993 144.665ZM249.493 137.273H247.771V135.182H245.714V137.273H244.476V138.864H245.714V143.716C245.703 145.358 246.896 146.165 248.442 146.119C249.027 146.102 249.43 145.989 249.652 145.915L249.305 144.307C249.192 144.335 248.959 144.386 248.703 144.386C248.186 144.386 247.771 144.205 247.771 143.375V138.864H249.493V137.273ZM254.983 146.17C257.017 146.17 258.415 145.176 258.778 143.659L256.858 143.443C256.58 144.182 255.898 144.568 255.011 144.568C253.682 144.568 252.801 143.693 252.784 142.199H258.864V141.568C258.864 138.506 257.023 137.159 254.875 137.159C252.375 137.159 250.744 138.994 250.744 141.688C250.744 144.426 252.352 146.17 254.983 146.17ZM252.79 140.812C252.852 139.699 253.676 138.761 254.903 138.761C256.085 138.761 256.881 139.625 256.892 140.812H252.79ZM264.399 149.42C266.757 149.42 268.496 148.341 268.496 146.142V137.273H266.467V138.716H266.354C266.041 138.085 265.388 137.159 263.848 137.159C261.831 137.159 260.246 138.739 260.246 141.608C260.246 144.455 261.831 145.875 263.842 145.875C265.337 145.875 266.036 145.074 266.354 144.432H266.456V146.085C266.456 147.335 265.604 147.864 264.433 147.864C263.195 147.864 262.649 147.278 262.399 146.801L260.547 147.25C260.922 148.438 262.178 149.42 264.399 149.42ZM264.416 144.261C263.058 144.261 262.342 143.205 262.342 141.597C262.342 140.011 263.047 138.847 264.416 138.847C265.74 138.847 266.467 139.943 266.467 141.597C266.467 143.261 265.729 144.261 264.416 144.261ZM274.411 146.17C276.967 146.17 278.592 144.369 278.592 141.67C278.592 138.966 276.967 137.159 274.411 137.159C271.854 137.159 270.229 138.966 270.229 141.67C270.229 144.369 271.854 146.17 274.411 146.17ZM274.422 144.523C273.007 144.523 272.314 143.261 272.314 141.665C272.314 140.068 273.007 138.79 274.422 138.79C275.814 138.79 276.507 140.068 276.507 141.665C276.507 143.261 275.814 144.523 274.422 144.523ZM280.338 146H282.395V140.869C282.395 139.761 283.23 138.977 284.361 138.977C284.707 138.977 285.139 139.04 285.315 139.097V137.205C285.128 137.17 284.804 137.148 284.577 137.148C283.577 137.148 282.741 137.716 282.423 138.727H282.332V137.273H280.338V146ZM286.682 146H288.739V137.273H286.682V146ZM287.716 136.034C288.369 136.034 288.903 135.534 288.903 134.92C288.903 134.301 288.369 133.801 287.716 133.801C287.057 133.801 286.523 134.301 286.523 134.92C286.523 135.534 287.057 136.034 287.716 136.034ZM294.717 146.17C296.751 146.17 298.149 145.176 298.513 143.659L296.592 143.443C296.314 144.182 295.632 144.568 294.746 144.568C293.416 144.568 292.536 143.693 292.518 142.199H298.598V141.568C298.598 138.506 296.757 137.159 294.609 137.159C292.109 137.159 290.479 138.994 290.479 141.688C290.479 144.426 292.087 146.17 294.717 146.17ZM292.524 140.812C292.587 139.699 293.411 138.761 294.638 138.761C295.82 138.761 296.615 139.625 296.626 140.812H292.524ZM304.202 146.17C306.236 146.17 307.634 145.176 307.997 143.659L306.077 143.443C305.798 144.182 305.116 144.568 304.23 144.568C302.901 144.568 302.02 143.693 302.003 142.199H308.082V141.568C308.082 138.506 306.241 137.159 304.094 137.159C301.594 137.159 299.963 138.994 299.963 141.688C299.963 144.426 301.571 146.17 304.202 146.17ZM302.009 140.812C302.071 139.699 302.895 138.761 304.122 138.761C305.304 138.761 306.099 139.625 306.111 140.812H302.009ZM302.338 135.989C302.952 135.989 303.429 135.494 303.429 134.92C303.429 134.312 302.952 133.847 302.338 133.847C301.741 133.847 301.236 134.312 301.236 134.92C301.236 135.494 301.741 135.989 302.338 135.989ZM305.747 135.989C306.361 135.989 306.838 135.494 306.838 134.92C306.838 134.312 306.361 133.847 305.747 133.847C305.151 133.847 304.645 134.312 304.645 134.92C304.645 135.494 305.151 135.989 305.747 135.989ZM311.879 140.886C311.879 139.625 312.641 138.898 313.726 138.898C314.788 138.898 315.425 139.597 315.425 140.761V146H317.482V140.443C317.487 138.352 316.294 137.159 314.493 137.159C313.186 137.159 312.288 137.784 311.891 138.756H311.788V137.273H309.822V146H311.879V140.886Z" fill="#999999"/>
<path d="M312 64H360V112H312V64Z" fill="white"/>
<path d="M342.667 82H329.333L334.667 88.3067V92.6667L337.333 94V88.3067L342.667 82Z" stroke="black" stroke-width="1.6" stroke-linecap="round"/>
<path d="M312 64V63H311V64H312ZM360 64H361V63H360V64ZM360 112V113H361V112H360ZM312 112H311V113H312V112ZM312 65H360V63H312V65ZM359 64V112H361V64H359ZM360 111H312V113H360V111ZM313 112V64H311V112H313Z" fill="black"/>
<path d="M17.3295 41H30.6932V37.9574H21.9574L30.6761 25.7358V23.5455H17.3125V26.5881H26.0398L17.3295 38.8097V41ZM39.3714 41.2557C43.343 41.2557 45.8146 38.5369 45.8146 34.5057C45.8146 30.4489 43.343 27.7386 39.3714 27.7386C35.3999 27.7386 32.9283 30.4489 32.9283 34.5057C32.9283 38.5369 35.3999 41.2557 39.3714 41.2557ZM39.3885 38.4432C37.5561 38.4432 36.6186 36.7642 36.6186 34.4801C36.6186 32.196 37.5561 30.5085 39.3885 30.5085C41.1868 30.5085 42.1243 32.196 42.1243 34.4801C42.1243 36.7642 41.1868 38.4432 39.3885 38.4432ZM54.1413 41.2557C57.38 41.2557 59.5618 39.679 60.0732 37.25L56.7152 37.0284C56.3487 38.0256 55.4112 38.5455 54.201 38.5455C52.3857 38.5455 51.2351 37.3438 51.2351 35.392V35.3835H60.1499V34.3864C60.1499 29.9375 57.4567 27.7386 53.9964 27.7386C50.1442 27.7386 47.647 30.4744 47.647 34.5142C47.647 38.6648 50.1101 41.2557 54.1413 41.2557ZM51.2351 33.1335C51.3118 31.642 52.4453 30.4489 54.0561 30.4489C55.6328 30.4489 56.7237 31.5739 56.7322 33.1335H51.2351ZM62.5192 41H66.1499V36.8409L67.13 35.7244L70.701 41H74.9538L69.8487 33.5767L74.7067 27.9091H70.5391L66.3459 32.8778H66.1499V23.5455H62.5192V41ZM81.9148 41.2557C85.1534 41.2557 87.3352 39.679 87.8466 37.25L84.4886 37.0284C84.1222 38.0256 83.1847 38.5455 81.9744 38.5455C80.1591 38.5455 79.0085 37.3438 79.0085 35.392V35.3835H87.9233V34.3864C87.9233 29.9375 85.2301 27.7386 81.7699 27.7386C77.9176 27.7386 75.4205 30.4744 75.4205 34.5142C75.4205 38.6648 77.8835 41.2557 81.9148 41.2557ZM79.0085 33.1335C79.0852 31.642 80.2188 30.4489 81.8295 30.4489C83.4062 30.4489 84.4972 31.5739 84.5057 33.1335H79.0085ZM93.9233 33.4318C93.9318 31.7443 94.9375 30.7557 96.4034 30.7557C97.8608 30.7557 98.7386 31.7102 98.7301 33.3125V41H102.361V32.6648C102.361 29.6136 100.571 27.7386 97.8438 27.7386C95.9006 27.7386 94.4943 28.6932 93.9062 30.2188H93.7528V27.9091H90.2926V41H93.9233V33.4318Z" fill="black"/>
<g clip-path="url(#clip1)">
<rect y="208" width="8" height="112" fill="white"/>
<rect x="16.5" y="208.5" width="79" height="111" fill="white" stroke="black"/>
<path d="M17 209L95 319" stroke="black" stroke-linecap="round"/>
<path d="M95 209L17 319" stroke="black" stroke-linecap="round"/>
<rect x="104.5" y="208.5" width="79" height="111" fill="white" stroke="black"/>
<path d="M105 209L183 319" stroke="black" stroke-linecap="round"/>
<path d="M183 209L105 319" stroke="black" stroke-linecap="round"/>
<rect x="192.5" y="208.5" width="79" height="111" fill="white" stroke="black"/>
<path d="M193 209L271 319" stroke="black" stroke-linecap="round"/>
<path d="M271 209L193 319" stroke="black" stroke-linecap="round"/>
<rect x="280.5" y="208.5" width="79" height="111" fill="white" stroke="black"/>
<path d="M281 209L359 319" stroke="black" stroke-linecap="round"/>
<path d="M359 209L281 319" stroke="black" stroke-linecap="round"/>
<rect x="368.5" y="208.5" width="79" height="111" fill="white" stroke="black"/>
<path d="M369 209L447 319" stroke="black" stroke-linecap="round"/>
<path d="M447 209L369 319" stroke="black" stroke-linecap="round"/>
</g>
<g clip-path="url(#clip2)">
<rect y="360" width="8" height="112" fill="white"/>
<rect x="16.5" y="360.5" width="79" height="111" fill="white" stroke="black"/>
<path d="M17 361L95 471" stroke="black" stroke-linecap="round"/>
<path d="M95 361L17 471" stroke="black" stroke-linecap="round"/>
<rect x="104.5" y="360.5" width="79" height="111" fill="white" stroke="black"/>
<path d="M105 361L183 471" stroke="black" stroke-linecap="round"/>
<path d="M183 361L105 471" stroke="black" stroke-linecap="round"/>
<rect x="192.5" y="360.5" width="79" height="111" fill="white" stroke="black"/>
<path d="M193 361L271 471" stroke="black" stroke-linecap="round"/>
<path d="M271 361L193 471" stroke="black" stroke-linecap="round"/>
<rect x="280.5" y="360.5" width="79" height="111" fill="white" stroke="black"/>
<path d="M281 361L359 471" stroke="black" stroke-linecap="round"/>
<path d="M359 361L281 471" stroke="black" stroke-linecap="round"/>
<rect x="368.5" y="360.5" width="79" height="111" fill="white" stroke="black"/>
<path d="M369 361L447 471" stroke="black" stroke-linecap="round"/>
<path d="M447 361L369 471" stroke="black" stroke-linecap="round"/>
</g>
<g clip-path="url(#clip3)">
<rect y="512" width="8" height="112" fill="white"/>
<rect x="16.5" y="512.5" width="79" height="111" fill="white" stroke="black"/>
<path d="M17 513L95 623" stroke="black" stroke-linecap="round"/>
<path d="M95 513L17 623" stroke="black" stroke-linecap="round"/>
<rect x="104.5" y="512.5" width="79" height="111" fill="white" stroke="black"/>
<path d="M105 513L183 623" stroke="black" stroke-linecap="round"/>
<path d="M183 513L105 623" stroke="black" stroke-linecap="round"/>
<rect x="192.5" y="512.5" width="79" height="111" fill="white" stroke="black"/>
<path d="M193 513L271 623" stroke="black" stroke-linecap="round"/>
<path d="M271 513L193 623" stroke="black" stroke-linecap="round"/>
<rect x="280.5" y="512.5" width="79" height="111" fill="white" stroke="black"/>
<path d="M281 513L359 623" stroke="black" stroke-linecap="round"/>
<path d="M359 513L281 623" stroke="black" stroke-linecap="round"/>
<rect x="368.5" y="512.5" width="79" height="111" fill="white" stroke="black"/>
<path d="M369 513L447 623" stroke="black" stroke-linecap="round"/>
<path d="M447 513L369 623" stroke="black" stroke-linecap="round"/>
</g>
<g clip-path="url(#clip4)">
<rect y="664" width="8" height="112" fill="white"/>
<rect x="16.5" y="664.5" width="79" height="111" fill="white" stroke="black"/>
<path d="M17 665L95 775" stroke="black" stroke-linecap="round"/>
<path d="M95 665L17 775" stroke="black" stroke-linecap="round"/>
<rect x="104.5" y="664.5" width="79" height="111" fill="white" stroke="black"/>
<path d="M105 665L183 775" stroke="black" stroke-linecap="round"/>
<path d="M183 665L105 775" stroke="black" stroke-linecap="round"/>
<rect x="192.5" y="664.5" width="79" height="111" fill="white" stroke="black"/>
<path d="M193 665L271 775" stroke="black" stroke-linecap="round"/>
<path d="M271 665L193 775" stroke="black" stroke-linecap="round"/>
<rect x="280.5" y="664.5" width="79" height="111" fill="white" stroke="black"/>
<path d="M281 665L359 775" stroke="black" stroke-linecap="round"/>
<path d="M359 665L281 775" stroke="black" stroke-linecap="round"/>
<rect x="368.5" y="664.5" width="79" height="111" fill="white" stroke="black"/>
<path d="M369 665L447 775" stroke="black" stroke-linecap="round"/>
<path d="M447 665L369 775" stroke="black" stroke-linecap="round"/>
</g>
<path d="M17.0114 194H19.4716V189.875H21.267L23.4716 194H26.1875L23.7159 189.477C25.0398 188.909 25.7727 187.756 25.7727 186.165C25.7727 183.852 24.2443 182.364 21.6023 182.364H17.0114V194ZM19.4716 187.898V184.375H21.1307C22.5511 184.375 23.2386 185.006 23.2386 186.165C23.2386 187.318 22.5511 187.898 21.142 187.898H19.4716ZM31.2685 194.17C33.9162 194.17 35.5639 192.358 35.5639 189.67C35.5639 186.966 33.9162 185.159 31.2685 185.159C28.6207 185.159 26.973 186.966 26.973 189.67C26.973 192.358 28.6207 194.17 31.2685 194.17ZM31.2798 192.295C30.0582 192.295 29.4332 191.176 29.4332 189.653C29.4332 188.131 30.0582 187.006 31.2798 187.006C32.4787 187.006 33.1037 188.131 33.1037 189.653C33.1037 191.176 32.4787 192.295 31.2798 192.295ZM37.1378 194H39.5582V188.761C39.5582 187.795 40.1719 187.153 40.9787 187.153C41.7741 187.153 42.3082 187.699 42.3082 188.557V194H44.6548V188.67C44.6548 187.767 45.1719 187.153 46.0526 187.153C46.8253 187.153 47.4048 187.636 47.4048 188.608V194H49.8196V188.131C49.8196 186.239 48.6946 185.159 47.0696 185.159C45.7912 185.159 44.7969 185.812 44.4389 186.812H44.348C44.0696 185.801 43.1776 185.159 41.9787 185.159C40.8026 185.159 39.9105 185.784 39.5469 186.812H39.4446V185.273H37.1378V194ZM54.2202 194.165C55.5099 194.165 56.3452 193.602 56.7713 192.79H56.8395V194H59.1349V188.114C59.1349 186.034 57.3736 185.159 55.4304 185.159C53.3395 185.159 51.9645 186.159 51.6293 187.75L53.8679 187.932C54.0327 187.352 54.5497 186.926 55.419 186.926C56.2429 186.926 56.7145 187.341 56.7145 188.057V188.091C56.7145 188.653 56.1179 188.727 54.6009 188.875C52.8736 189.034 51.3224 189.614 51.3224 191.562C51.3224 193.29 52.5554 194.165 54.2202 194.165ZM54.9134 192.494C54.169 192.494 53.6349 192.148 53.6349 191.483C53.6349 190.801 54.1974 190.466 55.0497 190.347C55.5781 190.273 56.4418 190.148 56.7315 189.955V190.881C56.7315 191.795 55.9759 192.494 54.9134 192.494ZM63.4332 188.955C63.4389 187.83 64.1094 187.17 65.0866 187.17C66.0582 187.17 66.6435 187.807 66.6378 188.875V194H69.0582V188.443C69.0582 186.409 67.8651 185.159 66.0469 185.159C64.7514 185.159 63.8139 185.795 63.4219 186.812H63.3196V185.273H61.0128V194H63.4332V188.955ZM78.2273 187.761C78.0114 186.153 76.7159 185.159 74.5114 185.159C72.2784 185.159 70.8068 186.193 70.8125 187.875C70.8068 189.182 71.6307 190.028 73.3352 190.369L74.8466 190.67C75.608 190.824 75.9545 191.102 75.9659 191.54C75.9545 192.057 75.392 192.426 74.5455 192.426C73.6818 192.426 73.108 192.057 72.9602 191.347L70.5795 191.472C70.8068 193.142 72.2273 194.17 74.5398 194.17C76.8011 194.17 78.4205 193.017 78.4261 191.295C78.4205 190.034 77.5966 189.278 75.9034 188.932L74.3239 188.614C73.5114 188.438 73.2102 188.159 73.2159 187.739C73.2102 187.216 73.8011 186.875 74.5511 186.875C75.392 186.875 75.892 187.335 76.0114 187.898L78.2273 187.761Z" fill="black"/>
<path d="M23.3239 337.71H25.6818C25.6477 335.636 23.9432 334.205 21.3523 334.205C18.8011 334.205 16.9318 335.614 16.9432 337.727C16.9375 339.443 18.1477 340.426 20.1136 340.898L21.3807 341.216C22.6477 341.523 23.3523 341.886 23.358 342.67C23.3523 343.523 22.5455 344.102 21.2955 344.102C20.017 344.102 19.0966 343.511 19.017 342.347H16.6364C16.6989 344.864 18.5 346.165 21.3239 346.165C24.1648 346.165 25.8352 344.807 25.8409 342.676C25.8352 340.739 24.375 339.71 22.3523 339.256L21.3068 339.006C20.2955 338.773 19.4489 338.398 19.4659 337.562C19.4659 336.812 20.1307 336.261 21.3352 336.261C22.5114 336.261 23.233 336.795 23.3239 337.71ZM31.3935 346.17C33.7173 346.17 35.1776 344.807 35.2912 342.801H33.0071C32.8651 343.733 32.2514 344.256 31.4219 344.256C30.2912 344.256 29.5582 343.307 29.5582 341.636C29.5582 339.989 30.2969 339.045 31.4219 339.045C32.3082 339.045 32.8764 339.631 33.0071 340.5H35.2912C35.1889 338.483 33.6605 337.159 31.3821 337.159C28.7344 337.159 27.098 338.994 27.098 341.67C27.098 344.324 28.706 346.17 31.3935 346.17ZM36.8409 346H39.2614V337.273H36.8409V346ZM38.0568 336.148C38.7784 336.148 39.3693 335.597 39.3693 334.92C39.3693 334.25 38.7784 333.699 38.0568 333.699C37.3409 333.699 36.75 334.25 36.75 334.92C36.75 335.597 37.3409 336.148 38.0568 336.148ZM45.1776 346.17C47.3366 346.17 48.7912 345.119 49.1321 343.5L46.8935 343.352C46.6491 344.017 46.0241 344.364 45.2173 344.364C44.0071 344.364 43.2401 343.562 43.2401 342.261V342.256H49.1832V341.591C49.1832 338.625 47.3878 337.159 45.081 337.159C42.5128 337.159 40.848 338.983 40.848 341.676C40.848 344.443 42.4901 346.17 45.1776 346.17ZM43.2401 340.756C43.2912 339.761 44.0469 338.966 45.1207 338.966C46.1719 338.966 46.8991 339.716 46.9048 340.756H43.2401ZM53.1832 340.955C53.1889 339.83 53.8594 339.17 54.8366 339.17C55.8082 339.17 56.3935 339.807 56.3878 340.875V346H58.8082V340.443C58.8082 338.409 57.6151 337.159 55.7969 337.159C54.5014 337.159 53.5639 337.795 53.1719 338.812H53.0696V337.273H50.7628V346H53.1832V340.955ZM64.6591 346.17C66.983 346.17 68.4432 344.807 68.5568 342.801H66.2727C66.1307 343.733 65.517 344.256 64.6875 344.256C63.5568 344.256 62.8239 343.307 62.8239 341.636C62.8239 339.989 63.5625 339.045 64.6875 339.045C65.5739 339.045 66.142 339.631 66.2727 340.5H68.5568C68.4545 338.483 66.9261 337.159 64.6477 337.159C62 337.159 60.3636 338.994 60.3636 341.67C60.3636 344.324 61.9716 346.17 64.6591 346.17ZM74.0838 346.17C76.2429 346.17 77.6974 345.119 78.0384 343.5L75.7997 343.352C75.5554 344.017 74.9304 344.364 74.1236 344.364C72.9134 344.364 72.1463 343.562 72.1463 342.261V342.256H78.0895V341.591C78.0895 338.625 76.294 337.159 73.9872 337.159C71.419 337.159 69.7543 338.983 69.7543 341.676C69.7543 344.443 71.3963 346.17 74.0838 346.17ZM72.1463 340.756C72.1974 339.761 72.9531 338.966 74.027 338.966C75.0781 338.966 75.8054 339.716 75.8111 340.756H72.1463ZM85.1065 340.261H79.7997V342.182H85.1065V340.261ZM87.2145 346H89.6747V341.193H94.4077V339.165H89.6747V336.392H94.919V334.364H87.2145V346ZM96.5284 346H98.9489V337.273H96.5284V346ZM97.7443 336.148C98.4659 336.148 99.0568 335.597 99.0568 334.92C99.0568 334.25 98.4659 333.699 97.7443 333.699C97.0284 333.699 96.4375 334.25 96.4375 334.92C96.4375 335.597 97.0284 336.148 97.7443 336.148ZM104.831 346.17C107.155 346.17 108.615 344.807 108.729 342.801H106.445C106.303 343.733 105.689 344.256 104.859 344.256C103.729 344.256 102.996 343.307 102.996 341.636C102.996 339.989 103.734 339.045 104.859 339.045C105.746 339.045 106.314 339.631 106.445 340.5H108.729C108.626 338.483 107.098 337.159 104.82 337.159C102.172 337.159 100.536 338.994 100.536 341.67C100.536 344.324 102.143 346.17 104.831 346.17ZM114.92 337.273H113.278V335.182H110.858V337.273H109.665V339.091H110.858V343.636C110.847 345.347 112.011 346.193 113.767 346.119C114.392 346.097 114.835 345.972 115.08 345.892L114.699 344.091C114.58 344.114 114.324 344.17 114.097 344.17C113.614 344.17 113.278 343.989 113.278 343.318V339.091H114.92V337.273ZM116.497 346H118.918V337.273H116.497V346ZM117.713 336.148C118.435 336.148 119.026 335.597 119.026 334.92C119.026 334.25 118.435 333.699 117.713 333.699C116.997 333.699 116.406 334.25 116.406 334.92C116.406 335.597 116.997 336.148 117.713 336.148ZM124.834 346.17C126.993 346.17 128.447 345.119 128.788 343.5L126.55 343.352C126.305 344.017 125.68 344.364 124.874 344.364C123.663 344.364 122.896 343.562 122.896 342.261V342.256H128.839V341.591C128.839 338.625 127.044 337.159 124.737 337.159C122.169 337.159 120.504 338.983 120.504 341.676C120.504 344.443 122.146 346.17 124.834 346.17ZM122.896 340.756C122.947 339.761 123.703 338.966 124.777 338.966C125.828 338.966 126.555 339.716 126.561 340.756H122.896Z" fill="black"/>
<path d="M26.7443 486.364H24.2955V493.682H24.1932L19.1705 486.364H17.0114V498H19.4716V490.676H19.5568L24.6193 498H26.7443V486.364ZM32.6747 498.17C35.3224 498.17 36.9702 496.358 36.9702 493.67C36.9702 490.966 35.3224 489.159 32.6747 489.159C30.027 489.159 28.3793 490.966 28.3793 493.67C28.3793 496.358 30.027 498.17 32.6747 498.17ZM32.6861 496.295C31.4645 496.295 30.8395 495.176 30.8395 493.653C30.8395 492.131 31.4645 491.006 32.6861 491.006C33.8849 491.006 34.5099 492.131 34.5099 493.653C34.5099 495.176 33.8849 496.295 32.6861 496.295ZM40.9645 492.955C40.9702 491.83 41.6406 491.17 42.6179 491.17C43.5895 491.17 44.1747 491.807 44.169 492.875V498H46.5895V492.443C46.5895 490.409 45.3963 489.159 43.5781 489.159C42.2827 489.159 41.3452 489.795 40.9531 490.812H40.8509V489.273H38.544V498H40.9645V492.955ZM53.9347 492.261H48.6278V494.182H53.9347V492.261ZM56.0426 498H58.5028V493.193H63.2358V491.165H58.5028V488.392H63.7472V486.364H56.0426V498ZM65.3565 498H67.777V489.273H65.3565V498ZM66.5724 488.148C67.294 488.148 67.8849 487.597 67.8849 486.92C67.8849 486.25 67.294 485.699 66.5724 485.699C65.8565 485.699 65.2656 486.25 65.2656 486.92C65.2656 487.597 65.8565 488.148 66.5724 488.148ZM73.6591 498.17C75.983 498.17 77.4432 496.807 77.5568 494.801H75.2727C75.1307 495.733 74.517 496.256 73.6875 496.256C72.5568 496.256 71.8239 495.307 71.8239 493.636C71.8239 491.989 72.5625 491.045 73.6875 491.045C74.5739 491.045 75.142 491.631 75.2727 492.5H77.5568C77.4545 490.483 75.9261 489.159 73.6477 489.159C71 489.159 69.3636 490.994 69.3636 493.67C69.3636 496.324 70.9716 498.17 73.6591 498.17ZM83.7486 489.273H82.1065V487.182H79.6861V489.273H78.4929V491.091H79.6861V495.636C79.6747 497.347 80.8395 498.193 82.5952 498.119C83.2202 498.097 83.6634 497.972 83.9077 497.892L83.527 496.091C83.4077 496.114 83.152 496.17 82.9247 496.17C82.4418 496.17 82.1065 495.989 82.1065 495.318V491.091H83.7486V489.273ZM85.3253 498H87.7457V489.273H85.3253V498ZM86.5412 488.148C87.2628 488.148 87.8537 487.597 87.8537 486.92C87.8537 486.25 87.2628 485.699 86.5412 485.699C85.8253 485.699 85.2344 486.25 85.2344 486.92C85.2344 487.597 85.8253 488.148 86.5412 488.148ZM93.6619 498.17C95.821 498.17 97.2756 497.119 97.6165 495.5L95.3778 495.352C95.1335 496.017 94.5085 496.364 93.7017 496.364C92.4915 496.364 91.7244 495.562 91.7244 494.261V494.256H97.6676V493.591C97.6676 490.625 95.8722 489.159 93.5653 489.159C90.9972 489.159 89.3324 490.983 89.3324 493.676C89.3324 496.443 90.9744 498.17 93.6619 498.17ZM91.7244 492.756C91.7756 491.761 92.5312 490.966 93.6051 490.966C94.6562 490.966 95.3835 491.716 95.3892 492.756H91.7244Z" fill="black"/>
<path d="M16.5682 640.392H20.1307V650H22.5625V640.392H26.125V638.364H16.5682V640.392ZM30.0739 644.955C30.0795 643.83 30.767 643.17 31.7557 643.17C32.7386 643.17 33.3182 643.801 33.3125 644.875V650H35.733V644.443C35.7386 642.398 34.5341 641.159 32.7159 641.159C31.392 641.159 30.5057 641.784 30.108 642.812H30.0057V638.364H27.6534V650H30.0739V644.955ZM37.6378 650H40.0582V645.062C40.0582 643.989 40.8423 643.25 41.9105 643.25C42.2457 643.25 42.706 643.307 42.9332 643.381V641.233C42.7173 641.182 42.4162 641.148 42.1719 641.148C41.1946 641.148 40.3935 641.716 40.0753 642.795H39.9844V641.273H37.6378V650ZM44.1847 650H46.6051V641.273H44.1847V650ZM45.4006 640.148C46.1222 640.148 46.7131 639.597 46.7131 638.92C46.7131 638.25 46.1222 637.699 45.4006 637.699C44.6847 637.699 44.0938 638.25 44.0938 638.92C44.0938 639.597 44.6847 640.148 45.4006 640.148ZM50.9645 638.364H48.544V650H50.9645V638.364ZM55.3239 638.364H52.9034V650H55.3239V638.364ZM61.2401 650.17C63.3991 650.17 64.8537 649.119 65.1946 647.5L62.956 647.352C62.7116 648.017 62.0866 648.364 61.2798 648.364C60.0696 648.364 59.3026 647.562 59.3026 646.261V646.256H65.2457V645.591C65.2457 642.625 63.4503 641.159 61.1435 641.159C58.5753 641.159 56.9105 642.983 56.9105 645.676C56.9105 648.443 58.5526 650.17 61.2401 650.17ZM59.3026 644.756C59.3537 643.761 60.1094 642.966 61.1832 642.966C62.2344 642.966 62.9616 643.716 62.9673 644.756H59.3026ZM66.8253 650H69.2457V645.062C69.2457 643.989 70.0298 643.25 71.098 643.25C71.4332 643.25 71.8935 643.307 72.1207 643.381V641.233C71.9048 641.182 71.6037 641.148 71.3594 641.148C70.3821 641.148 69.581 641.716 69.2628 642.795H69.1719V641.273H66.8253V650ZM80.6335 643.761C80.4176 642.153 79.1222 641.159 76.9176 641.159C74.6847 641.159 73.2131 642.193 73.2188 643.875C73.2131 645.182 74.0369 646.028 75.7415 646.369L77.2528 646.67C78.0142 646.824 78.3608 647.102 78.3722 647.54C78.3608 648.057 77.7983 648.426 76.9517 648.426C76.0881 648.426 75.5142 648.057 75.3665 647.347L72.9858 647.472C73.2131 649.142 74.6335 650.17 76.946 650.17C79.2074 650.17 80.8267 649.017 80.8324 647.295C80.8267 646.034 80.0028 645.278 78.3097 644.932L76.7301 644.614C75.9176 644.438 75.6165 644.159 75.6222 643.739C75.6165 643.216 76.2074 642.875 76.9574 642.875C77.7983 642.875 78.2983 643.335 78.4176 643.898L80.6335 643.761Z" fill="black"/>
<path d="M0 696H376V752H0V696Z" fill="white"/>
<path d="M47 721L56 714L65 721V732C65 732.53 64.7893 733.039 64.4142 733.414C64.0391 733.789 63.5304 734 63 734H49C48.4696 734 47.9609 733.789 47.5858 733.414C47.2107 733.039 47 732.53 47 732V721Z" stroke="black" stroke-width="1.6" stroke-linecap="round" stroke-linejoin="round"/>
<path d="M53 734V724H59V734" stroke="black" stroke-width="1.6" stroke-linecap="round" stroke-linejoin="round"/>
<path d="M143 723C147.418 723 151 719.418 151 715C151 710.582 147.418 707 143 707C138.582 707 135 710.582 135 715C135 719.418 138.582 723 143 723Z" stroke="black" stroke-width="1.6" stroke-linecap="round" stroke-linejoin="round"/>
<path d="M153 725L148.65 720.65" stroke="black" stroke-width="1.6" stroke-linecap="round" stroke-linejoin="round"/>
<path d="M130.056 742H134.363V741.116H131.365L134.346 736.838V736.182H130.039V737.065H133.039L130.056 741.344V742ZM137.24 742.085C138.519 742.085 139.331 741.185 139.331 739.835C139.331 738.483 138.519 737.58 137.24 737.58C135.962 737.58 135.15 738.483 135.15 739.835C135.15 741.185 135.962 742.085 137.24 742.085ZM137.246 741.261C136.539 741.261 136.192 740.631 136.192 739.832C136.192 739.034 136.539 738.395 137.246 738.395C137.942 738.395 138.289 739.034 138.289 739.832C138.289 740.631 137.942 741.261 137.246 741.261ZM142.136 742.085C143.153 742.085 143.852 741.588 144.034 740.83L143.074 740.722C142.934 741.091 142.593 741.284 142.15 741.284C141.485 741.284 141.045 740.847 141.037 740.099H144.076V739.784C144.076 738.253 143.156 737.58 142.082 737.58C140.832 737.58 140.017 738.497 140.017 739.844C140.017 741.213 140.821 742.085 142.136 742.085ZM141.039 739.406C141.071 738.849 141.483 738.381 142.096 738.381C142.687 738.381 143.085 738.812 143.091 739.406H141.039ZM144.946 742H145.975V740.534L146.35 740.134L147.685 742H148.915L147.125 739.52L148.816 737.636H147.614L146.046 739.389H145.975V736.182H144.946V742ZM151.253 742.085C152.27 742.085 152.969 741.588 153.151 740.83L152.191 740.722C152.051 741.091 151.711 741.284 151.267 741.284C150.603 741.284 150.162 740.847 150.154 740.099H153.194V739.784C153.194 738.253 152.273 737.58 151.199 737.58C149.949 737.58 149.134 738.497 149.134 739.844C149.134 741.213 149.938 742.085 151.253 742.085ZM150.157 739.406C150.188 738.849 150.6 738.381 151.213 738.381C151.804 738.381 152.202 738.812 152.208 739.406H150.157ZM155.092 739.443C155.092 738.812 155.473 738.449 156.015 738.449C156.547 738.449 156.865 738.798 156.865 739.381V742H157.893V739.222C157.896 738.176 157.299 737.58 156.399 737.58C155.745 737.58 155.297 737.892 155.098 738.378H155.047V737.636H154.064V742H155.092V739.443Z" fill="black"/>
<path d="M240 733V731C240 729.939 239.579 728.922 238.828 728.172C238.078 727.421 237.061 727 236 727H228C226.939 727 225.922 727.421 225.172 728.172C224.421 728.922 224 729.939 224 731V733" stroke="black" stroke-width="1.6" stroke-linecap="round" stroke-linejoin="round"/>
<path d="M232 723C234.209 723 236 721.209 236 719C236 716.791 234.209 715 232 715C229.791 715 228 716.791 228 719C228 721.209 229.791 723 232 723Z" stroke="black" stroke-width="1.6" stroke-linecap="round" stroke-linejoin="round"/>
<path d="M320 727C321.657 727 323 725.657 323 724C323 722.343 321.657 721 320 721C318.343 721 317 722.343 317 724C317 725.657 318.343 727 320 727Z" stroke="black" stroke-width="1.6" stroke-linecap="round" stroke-linejoin="round"/>
<path d="M327.4 727C327.267 727.302 327.227 727.636 327.286 727.961C327.345 728.285 327.499 728.584 327.73 728.82L327.79 728.88C327.976 729.066 328.123 729.286 328.224 729.529C328.325 729.772 328.377 730.032 328.377 730.295C328.377 730.558 328.325 730.818 328.224 731.061C328.123 731.304 327.976 731.524 327.79 731.71C327.604 731.896 327.384 732.043 327.141 732.144C326.898 732.245 326.638 732.297 326.375 732.297C326.112 732.297 325.852 732.245 325.609 732.144C325.366 732.043 325.146 731.896 324.96 731.71L324.9 731.65C324.664 731.419 324.365 731.265 324.041 731.206C323.716 731.147 323.382 731.187 323.08 731.32C322.784 731.447 322.532 731.657 322.354 731.926C322.177 732.194 322.081 732.508 322.08 732.83V733C322.08 733.53 321.869 734.039 321.494 734.414C321.119 734.789 320.61 735 320.08 735C319.55 735 319.041 734.789 318.666 734.414C318.291 734.039 318.08 733.53 318.08 733V732.91C318.072 732.579 317.965 732.258 317.773 731.989C317.58 731.719 317.311 731.514 317 731.4C316.698 731.267 316.364 731.227 316.039 731.286C315.715 731.345 315.416 731.499 315.18 731.73L315.12 731.79C314.934 731.976 314.714 732.123 314.471 732.224C314.228 732.325 313.968 732.377 313.705 732.377C313.442 732.377 313.182 732.325 312.939 732.224C312.696 732.123 312.476 731.976 312.29 731.79C312.104 731.604 311.957 731.384 311.856 731.141C311.755 730.898 311.703 730.638 311.703 730.375C311.703 730.112 311.755 729.852 311.856 729.609C311.957 729.366 312.104 729.146 312.29 728.96L312.35 728.9C312.581 728.664 312.735 728.365 312.794 728.041C312.853 727.716 312.813 727.382 312.68 727.08C312.553 726.784 312.343 726.532 312.074 726.354C311.806 726.177 311.492 726.081 311.17 726.08H311C310.47 726.08 309.961 725.869 309.586 725.494C309.211 725.119 309 724.61 309 724.08C309 723.55 309.211 723.041 309.586 722.666C309.961 722.291 310.47 722.08 311 722.08H311.09C311.421 722.072 311.742 721.965 312.011 721.773C312.281 721.58 312.486 721.311 312.6 721C312.733 720.698 312.773 720.364 312.714 720.039C312.655 719.715 312.501 719.416 312.27 719.18L312.21 719.12C312.024 718.934 311.877 718.714 311.776 718.471C311.675 718.228 311.623 717.968 311.623 717.705C311.623 717.442 311.675 717.182 311.776 716.939C311.877 716.696 312.024 716.476 312.21 716.29C312.396 716.104 312.616 715.957 312.859 715.856C313.102 715.755 313.362 715.703 313.625 715.703C313.888 715.703 314.148 715.755 314.391 715.856C314.634 715.957 314.854 716.104 315.04 716.29L315.1 716.35C315.336 716.581 315.635 716.735 315.959 716.794C316.284 716.853 316.618 716.813 316.92 716.68H317C317.296 716.553 317.548 716.343 317.726 716.074C317.903 715.806 317.999 715.492 318 715.17V715C318 714.47 318.211 713.961 318.586 713.586C318.961 713.211 319.47 713 320 713C320.53 713 321.039 713.211 321.414 713.586C321.789 713.961 322 714.47 322 715V715.09C322.001 715.412 322.097 715.726 322.274 715.994C322.452 716.263 322.704 716.473 323 716.6C323.302 716.733 323.636 716.773 323.961 716.714C324.285 716.655 324.584 716.501 324.82 716.27L324.88 716.21C325.066 716.024 325.286 715.877 325.529 715.776C325.772 715.675 326.032 715.623 326.295 715.623C326.558 715.623 326.818 715.675 327.061 715.776C327.304 715.877 327.524 716.024 327.71 716.21C327.896 716.396 328.043 716.616 328.144 716.859C328.245 717.102 328.297 717.362 328.297 717.625C328.297 717.888 328.245 718.148 328.144 718.391C328.043 718.634 327.896 718.854 327.71 719.04L327.65 719.1C327.419 719.336 327.265 719.635 327.206 719.959C327.147 720.284 327.187 720.618 327.32 720.92V721C327.447 721.296 327.657 721.548 327.926 721.726C328.194 721.903 328.508 721.999 328.83 722H329C329.53 722 330.039 722.211 330.414 722.586C330.789 722.961 331 723.47 331 724C331 724.53 330.789 725.039 330.414 725.414C330.039 725.789 329.53 726 329 726H328.91C328.588 726.001 328.274 726.097 328.006 726.274C327.737 726.452 327.527 726.704 327.4 727V727Z" stroke="black" stroke-width="1.6" stroke-linecap="round" stroke-linejoin="round"/>
<path d="M0 696V695H-1V696H0ZM376 696H377V695H376V696ZM376 752V753H377V752H376ZM0 752H-1V753H0V752ZM0 697H376V695H0V697ZM375 696V752H377V696H375ZM376 751H0V753H376V751ZM1 752V696H-1V752H1Z" fill="black"/>
</g>
<defs>
<clipPath id="clip0">
<rect width="376" height="752" fill="white"/>
</clipPath>
<clipPath id="clip1">
<rect width="376" height="112" fill="white" transform="translate(0 208)"/>
</clipPath>
<clipPath id="clip2">
<rect width="376" height="112" fill="white" transform="translate(0 360)"/>
</clipPath>
<clipPath id="clip3">
<rect width="376" height="112" fill="white" transform="translate(0 512)"/>
</clipPath>
<clipPath id="clip4">
<rect width="376" height="112" fill="white" transform="translate(0 664)"/>
</clipPath>
</defs>
</svg>
