<svg width="376" height="752" viewBox="0 0 376 752" fill="none" xmlns="http://www.w3.org/2000/svg">
<g clip-path="url(#clip0)">
<rect width="376" height="752" fill="white"/>
<rect x="-0.5" y="-0.5" width="377" height="161" fill="white" stroke="black"/>
<path d="M32.7727 83.6136H36.4318V94H37.8409V83.6136H41.5V82.3636H32.7727V83.6136ZM43.3111 97.3864C44.5384 97.3864 45.3793 96.75 45.8793 95.4091L49.6293 85.2727H48.1747L45.7656 92.2273H45.6747L43.2656 85.2727H41.8111L45.0384 94.0455L44.7429 94.8636C44.2713 96.1705 43.652 96.2955 42.6747 96.0455L42.3338 97.2273C42.4702 97.2955 42.8565 97.3864 43.3111 97.3864ZM51.3991 97.2727H52.7401V92.6591H52.8537C53.1491 93.1364 53.7173 94.1818 55.3991 94.1818C57.581 94.1818 59.1037 92.4318 59.1037 89.6591C59.1037 86.9091 57.581 85.1591 55.3764 85.1591C53.6719 85.1591 53.1491 86.2045 52.8537 86.6591H52.6946V85.2727H51.3991V97.2727ZM52.7173 89.6364C52.7173 87.6818 53.581 86.3636 55.2173 86.3636C56.9219 86.3636 57.7628 87.7955 57.7628 89.6364C57.7628 91.5 56.8991 92.9773 55.2173 92.9773C53.6037 92.9773 52.7173 91.6136 52.7173 89.6364ZM69.1946 94.1818C71.5582 94.1818 73.1491 92.3864 73.1491 89.6818C73.1491 86.9545 71.5582 85.1591 69.1946 85.1591C66.831 85.1591 65.2401 86.9545 65.2401 89.6818C65.2401 92.3864 66.831 94.1818 69.1946 94.1818ZM69.1946 92.9773C67.3991 92.9773 66.581 91.4318 66.581 89.6818C66.581 87.9318 67.3991 86.3636 69.1946 86.3636C70.9901 86.3636 71.8082 87.9318 71.8082 89.6818C71.8082 91.4318 70.9901 92.9773 69.1946 92.9773ZM75.196 94H76.5369V88.5455C76.5369 87.267 77.4688 86.3636 78.5142 86.3636C79.5312 86.3636 80.2415 87.0284 80.2415 88.0227V94H81.6051V88.3182C81.6051 87.1932 82.3097 86.3636 83.5369 86.3636C84.4915 86.3636 85.3097 86.8693 85.3097 88.1591V94H86.6506V88.1591C86.6506 86.108 85.5483 85.1591 83.9915 85.1591C82.7415 85.1591 81.8267 85.733 81.3778 86.6364H81.2869C80.8551 85.7045 80.0938 85.1591 78.946 85.1591C77.8097 85.1591 76.9688 85.7045 76.6051 86.6364H76.4915V85.2727H75.196V94ZM97.3977 85.2727H95.5341V83.1818H94.1932V85.2727H92.875V86.4091H94.1932V91.8636C94.1932 93.3864 95.4205 94.1136 96.5568 94.1136C97.0568 94.1136 97.375 94.0227 97.5568 93.9545L97.2841 92.75C97.1705 92.7727 96.9886 92.8182 96.6932 92.8182C96.1023 92.8182 95.5341 92.6364 95.5341 91.5V86.4091H97.3977V85.2727ZM102.98 94.1818C104.753 94.1818 106.048 93.2955 106.457 91.9773L105.162 91.6136C104.821 92.5227 104.031 92.9773 102.98 92.9773C101.406 92.9773 100.321 91.9602 100.259 90.0909H106.594V89.5227C106.594 86.2727 104.662 85.1591 102.844 85.1591C100.48 85.1591 98.9119 87.0227 98.9119 89.7045C98.9119 92.3864 100.457 94.1818 102.98 94.1818ZM100.259 88.9318C100.349 87.5739 101.31 86.3636 102.844 86.3636C104.298 86.3636 105.23 87.4545 105.23 88.9318H100.259ZM112.884 94H119.724V92.75H114.747V92.6591L119.565 86.3409V85.2727H113.043V86.5227H117.838V86.6136L112.884 92.9773V94ZM125.085 94.1818C127.449 94.1818 129.04 92.3864 129.04 89.6818C129.04 86.9545 127.449 85.1591 125.085 85.1591C122.722 85.1591 121.131 86.9545 121.131 89.6818C121.131 92.3864 122.722 94.1818 125.085 94.1818ZM125.085 92.9773C123.29 92.9773 122.472 91.4318 122.472 89.6818C122.472 87.9318 123.29 86.3636 125.085 86.3636C126.881 86.3636 127.699 87.9318 127.699 89.6818C127.699 91.4318 126.881 92.9773 125.085 92.9773ZM134.746 94.1818C136.518 94.1818 137.814 93.2955 138.223 91.9773L136.928 91.6136C136.587 92.5227 135.797 92.9773 134.746 92.9773C133.172 92.9773 132.087 91.9602 132.024 90.0909H138.359V89.5227C138.359 86.2727 136.428 85.1591 134.609 85.1591C132.246 85.1591 130.678 87.0227 130.678 89.7045C130.678 92.3864 132.223 94.1818 134.746 94.1818ZM132.024 88.9318C132.115 87.5739 133.075 86.3636 134.609 86.3636C136.064 86.3636 136.996 87.4545 136.996 88.9318H132.024ZM140.399 94H141.74V90.733L142.678 89.8636L145.945 94H147.649L143.689 89L147.376 85.2727H145.717L141.899 89.1591H141.74V82.3636H140.399V94ZM152.402 94.1818C154.175 94.1818 155.47 93.2955 155.879 91.9773L154.584 91.6136C154.243 92.5227 153.453 92.9773 152.402 92.9773C150.828 92.9773 149.743 91.9602 149.68 90.0909H156.016V89.5227C156.016 86.2727 154.084 85.1591 152.266 85.1591C149.902 85.1591 148.334 87.0227 148.334 89.7045C148.334 92.3864 149.879 94.1818 152.402 94.1818ZM149.68 88.9318C149.771 87.5739 150.732 86.3636 152.266 86.3636C153.72 86.3636 154.652 87.4545 154.652 88.9318H149.68ZM159.396 88.75C159.396 87.2273 160.339 86.3636 161.624 86.3636C162.868 86.3636 163.624 87.1761 163.624 88.5455V94H164.964V88.4545C164.964 86.2273 163.777 85.1591 162.01 85.1591C160.692 85.1591 159.874 85.75 159.464 86.6364H159.351V85.2727H158.055V94H159.396V88.75ZM168.392 94.0909C168.955 94.0909 169.415 93.6307 169.415 93.0682C169.415 92.5057 168.955 92.0455 168.392 92.0455C167.83 92.0455 167.369 92.5057 167.369 93.0682C167.369 93.6307 167.83 94.0909 168.392 94.0909ZM172.798 94.0909C173.361 94.0909 173.821 93.6307 173.821 93.0682C173.821 92.5057 173.361 92.0455 172.798 92.0455C172.236 92.0455 171.776 92.5057 171.776 93.0682C171.776 93.6307 172.236 94.0909 172.798 94.0909ZM177.205 94.0909C177.767 94.0909 178.227 93.6307 178.227 93.0682C178.227 92.5057 177.767 92.0455 177.205 92.0455C176.642 92.0455 176.182 92.5057 176.182 93.0682C176.182 93.6307 176.642 94.0909 177.205 94.0909Z" fill="#666666"/>
<rect x="16.5" y="64.5" width="287" height="47" stroke="black"/>
<path d="M18.642 146L19.6023 143.131H23.9773L24.9432 146H27.1932L23.0909 134.364H20.4886L16.392 146H18.642ZM20.1705 141.438L21.7443 136.75H21.8352L23.4091 141.438H20.1705ZM30.6918 134.364H28.6349V146H30.6918V134.364ZM34.8636 134.364H32.8068V146H34.8636V134.364ZM40.8423 146.17C42.8764 146.17 44.2741 145.176 44.6378 143.659L42.7173 143.443C42.4389 144.182 41.7571 144.568 40.8707 144.568C39.5412 144.568 38.6605 143.693 38.6435 142.199H44.723V141.568C44.723 138.506 42.8821 137.159 40.7344 137.159C38.2344 137.159 36.6037 138.994 36.6037 141.688C36.6037 144.426 38.2116 146.17 40.8423 146.17ZM38.6491 140.812C38.7116 139.699 39.5355 138.761 40.7628 138.761C41.9446 138.761 42.7401 139.625 42.7514 140.812H38.6491ZM53.3608 139.58C53.0767 138.102 51.8949 137.159 49.8494 137.159C47.7472 137.159 46.3153 138.193 46.321 139.807C46.3153 141.08 47.0994 141.92 48.7756 142.267L50.2642 142.58C51.0653 142.756 51.4403 143.08 51.4403 143.574C51.4403 144.17 50.7926 144.619 49.8153 144.619C48.8722 144.619 48.2585 144.21 48.0824 143.426L46.0767 143.619C46.3324 145.222 47.679 146.17 49.821 146.17C52.0028 146.17 53.5426 145.04 53.5483 143.386C53.5426 142.142 52.7415 141.381 51.0938 141.023L49.6051 140.705C48.7188 140.506 48.3665 140.199 48.3722 139.693C48.3665 139.102 49.0199 138.693 49.8778 138.693C50.8267 138.693 51.3267 139.21 51.4858 139.784L53.3608 139.58Z" fill="#999999"/>
<path d="M72.1477 146H76.858C79.5227 146 80.8295 144.642 80.8295 142.83C80.8295 141.068 79.5795 140.034 78.3409 139.972V139.858C79.4773 139.591 80.375 138.795 80.375 137.381C80.375 135.648 79.125 134.364 76.6023 134.364H72.1477V146ZM74.2557 144.239V140.83H76.5795C77.8807 140.83 78.6875 141.625 78.6875 142.665C78.6875 143.591 78.0511 144.239 76.5227 144.239H74.2557ZM74.2557 139.312V136.102H76.3864C77.625 136.102 78.267 136.756 78.267 137.653C78.267 138.676 77.4375 139.312 76.3409 139.312H74.2557ZM86.3793 146.17C88.9361 146.17 90.5611 144.369 90.5611 141.67C90.5611 138.966 88.9361 137.159 86.3793 137.159C83.8224 137.159 82.1974 138.966 82.1974 141.67C82.1974 144.369 83.8224 146.17 86.3793 146.17ZM86.3906 144.523C84.9759 144.523 84.2827 143.261 84.2827 141.665C84.2827 140.068 84.9759 138.79 86.3906 138.79C87.7827 138.79 88.4759 140.068 88.4759 141.665C88.4759 143.261 87.7827 144.523 86.3906 144.523ZM96.1705 146.17C98.2045 146.17 99.6023 145.176 99.9659 143.659L98.0455 143.443C97.767 144.182 97.0852 144.568 96.1989 144.568C94.8693 144.568 93.9886 143.693 93.9716 142.199H100.051V141.568C100.051 138.506 98.2102 137.159 96.0625 137.159C93.5625 137.159 91.9318 138.994 91.9318 141.688C91.9318 144.426 93.5398 146.17 96.1705 146.17ZM93.9773 140.812C94.0398 139.699 94.8636 138.761 96.0909 138.761C97.2727 138.761 98.0682 139.625 98.0795 140.812H93.9773ZM101.791 146H103.848V143.068L104.598 142.267L107.268 146H109.729L106.149 141.04L109.53 137.273H107.126L103.99 140.778H103.848V134.364H101.791V146ZM114.405 146.17C116.439 146.17 117.837 145.176 118.2 143.659L116.28 143.443C116.001 144.182 115.32 144.568 114.433 144.568C113.104 144.568 112.223 143.693 112.206 142.199H118.286V141.568C118.286 138.506 116.445 137.159 114.297 137.159C111.797 137.159 110.166 138.994 110.166 141.688C110.166 144.426 111.774 146.17 114.405 146.17ZM112.212 140.812C112.274 139.699 113.098 138.761 114.325 138.761C115.507 138.761 116.303 139.625 116.314 140.812H112.212ZM122.082 140.886C122.082 139.625 122.844 138.898 123.929 138.898C124.991 138.898 125.628 139.597 125.628 140.761V146H127.685V140.443C127.69 138.352 126.497 137.159 124.696 137.159C123.389 137.159 122.491 137.784 122.094 138.756H121.991V137.273H120.026V146H122.082V140.886Z" fill="#999999"/>
<path d="M147.642 146L148.602 143.131H152.977L153.943 146H156.193L152.091 134.364H149.489L145.392 146H147.642ZM149.17 141.438L150.744 136.75H150.835L152.409 141.438H149.17ZM163.197 142.33C163.197 143.659 162.249 144.318 161.339 144.318C160.351 144.318 159.692 143.619 159.692 142.511V137.273H157.635V142.83C157.635 144.926 158.828 146.114 160.544 146.114C161.851 146.114 162.771 145.426 163.169 144.449H163.26V146H165.254V137.273H163.197V142.33ZM171.727 137.273H170.006V135.182H167.949V137.273H166.71V138.864H167.949V143.716C167.938 145.358 169.131 146.165 170.676 146.119C171.261 146.102 171.665 145.989 171.886 145.915L171.54 144.307C171.426 144.335 171.193 144.386 170.938 144.386C170.42 144.386 170.006 144.205 170.006 143.375V138.864H171.727V137.273ZM177.217 146.17C179.251 146.17 180.649 145.176 181.013 143.659L179.092 143.443C178.814 144.182 178.132 144.568 177.246 144.568C175.916 144.568 175.036 143.693 175.018 142.199H181.098V141.568C181.098 138.506 179.257 137.159 177.109 137.159C174.609 137.159 172.979 138.994 172.979 141.688C172.979 144.426 174.587 146.17 177.217 146.17ZM175.024 140.812C175.087 139.699 175.911 138.761 177.138 138.761C178.32 138.761 179.115 139.625 179.126 140.812H175.024ZM188.401 142.33C188.401 143.659 187.452 144.318 186.543 144.318C185.554 144.318 184.895 143.619 184.895 142.511V137.273H182.838V142.83C182.838 144.926 184.031 146.114 185.747 146.114C187.054 146.114 187.974 145.426 188.372 144.449H188.463V146H190.457V137.273H188.401V142.33ZM192.572 146H194.629V140.869C194.629 139.767 195.459 138.989 196.533 138.989C196.868 138.989 197.124 139.068 197.345 139.17L197.982 137.466C197.675 137.273 197.283 137.148 196.811 137.148C195.805 137.148 194.976 137.716 194.658 138.727H194.567V137.273H192.572V146ZM206.095 139.58C205.811 138.102 204.629 137.159 202.584 137.159C200.482 137.159 199.05 138.193 199.055 139.807C199.05 141.08 199.834 141.92 201.51 142.267L202.999 142.58C203.8 142.756 204.175 143.08 204.175 143.574C204.175 144.17 203.527 144.619 202.55 144.619C201.607 144.619 200.993 144.21 200.817 143.426L198.811 143.619C199.067 145.222 200.413 146.17 202.555 146.17C204.737 146.17 206.277 145.04 206.283 143.386C206.277 142.142 205.476 141.381 203.828 141.023L202.339 140.705C201.453 140.506 201.101 140.199 201.107 139.693C201.101 139.102 201.754 138.693 202.612 138.693C203.561 138.693 204.061 139.21 204.22 139.784L206.095 139.58Z" fill="#999999"/>
<path d="M234.108 138.29C233.75 135.705 231.761 134.205 229.182 134.205C226.142 134.205 223.852 136.42 223.852 140.182C223.852 143.938 226.114 146.159 229.182 146.159C231.949 146.159 233.784 144.369 234.108 142.148L231.983 142.136C231.716 143.5 230.602 144.267 229.21 144.267C227.324 144.267 225.972 142.852 225.972 140.182C225.972 137.557 227.312 136.097 229.216 136.097C230.631 136.097 231.739 136.898 231.983 138.29H234.108ZM238.459 146.176C239.828 146.176 240.646 145.534 241.021 144.801H241.089V146H243.067V140.159C243.067 137.852 241.186 137.159 239.521 137.159C237.686 137.159 236.277 137.977 235.822 139.568L237.743 139.841C237.947 139.244 238.527 138.733 239.533 138.733C240.487 138.733 241.01 139.222 241.01 140.08V140.114C241.01 140.705 240.391 140.733 238.851 140.898C237.158 141.08 235.538 141.585 235.538 143.551C235.538 145.267 236.794 146.176 238.459 146.176ZM238.993 144.665C238.135 144.665 237.521 144.273 237.521 143.517C237.521 142.727 238.209 142.398 239.129 142.267C239.669 142.193 240.749 142.057 241.016 141.841V142.869C241.016 143.841 240.232 144.665 238.993 144.665ZM249.493 137.273H247.771V135.182H245.714V137.273H244.476V138.864H245.714V143.716C245.703 145.358 246.896 146.165 248.442 146.119C249.027 146.102 249.43 145.989 249.652 145.915L249.305 144.307C249.192 144.335 248.959 144.386 248.703 144.386C248.186 144.386 247.771 144.205 247.771 143.375V138.864H249.493V137.273ZM254.983 146.17C257.017 146.17 258.415 145.176 258.778 143.659L256.858 143.443C256.58 144.182 255.898 144.568 255.011 144.568C253.682 144.568 252.801 143.693 252.784 142.199H258.864V141.568C258.864 138.506 257.023 137.159 254.875 137.159C252.375 137.159 250.744 138.994 250.744 141.688C250.744 144.426 252.352 146.17 254.983 146.17ZM252.79 140.812C252.852 139.699 253.676 138.761 254.903 138.761C256.085 138.761 256.881 139.625 256.892 140.812H252.79ZM264.399 149.455C266.757 149.455 268.496 148.375 268.496 146.142V137.273H266.467V138.716H266.354C266.041 138.085 265.388 137.159 263.848 137.159C261.831 137.159 260.246 138.739 260.246 141.608C260.246 144.455 261.831 145.875 263.842 145.875C265.337 145.875 266.036 145.074 266.354 144.432H266.456V146.085C266.456 147.369 265.604 147.898 264.433 147.898C263.195 147.898 262.649 147.312 262.399 146.801L260.547 147.25C260.922 148.472 262.178 149.455 264.399 149.455ZM264.416 144.261C263.058 144.261 262.342 143.205 262.342 141.597C262.342 140.011 263.047 138.847 264.416 138.847C265.74 138.847 266.467 139.943 266.467 141.597C266.467 143.261 265.729 144.261 264.416 144.261ZM274.411 146.17C276.967 146.17 278.592 144.369 278.592 141.67C278.592 138.966 276.967 137.159 274.411 137.159C271.854 137.159 270.229 138.966 270.229 141.67C270.229 144.369 271.854 146.17 274.411 146.17ZM274.422 144.523C273.007 144.523 272.314 143.261 272.314 141.665C272.314 140.068 273.007 138.79 274.422 138.79C275.814 138.79 276.507 140.068 276.507 141.665C276.507 143.261 275.814 144.523 274.422 144.523ZM280.338 146H282.395V140.869C282.395 139.761 283.23 138.977 284.361 138.977C284.707 138.977 285.139 139.04 285.315 139.097V137.205C285.128 137.17 284.804 137.148 284.577 137.148C283.577 137.148 282.741 137.716 282.423 138.727H282.332V137.273H280.338V146ZM286.682 146H288.739V137.273H286.682V146ZM287.716 136.034C288.369 136.034 288.903 135.534 288.903 134.92C288.903 134.301 288.369 133.801 287.716 133.801C287.057 133.801 286.523 134.301 286.523 134.92C286.523 135.534 287.057 136.034 287.716 136.034ZM294.717 146.17C296.751 146.17 298.149 145.176 298.513 143.659L296.592 143.443C296.314 144.182 295.632 144.568 294.746 144.568C293.416 144.568 292.536 143.693 292.518 142.199H298.598V141.568C298.598 138.506 296.757 137.159 294.609 137.159C292.109 137.159 290.479 138.994 290.479 141.688C290.479 144.426 292.087 146.17 294.717 146.17ZM292.524 140.812C292.587 139.699 293.411 138.761 294.638 138.761C295.82 138.761 296.615 139.625 296.626 140.812H292.524ZM304.202 146.17C306.236 146.17 307.634 145.176 307.997 143.659L306.077 143.443C305.798 144.182 305.116 144.568 304.23 144.568C302.901 144.568 302.02 143.693 302.003 142.199H308.082V141.568C308.082 138.506 306.241 137.159 304.094 137.159C301.594 137.159 299.963 138.994 299.963 141.688C299.963 144.426 301.571 146.17 304.202 146.17ZM302.009 140.812C302.071 139.699 302.895 138.761 304.122 138.761C305.304 138.761 306.099 139.625 306.111 140.812H302.009ZM302.338 135.989C302.952 135.989 303.429 135.494 303.429 134.92C303.429 134.312 302.952 133.847 302.338 133.847C301.741 133.847 301.236 134.312 301.236 134.92C301.236 135.494 301.741 135.989 302.338 135.989ZM305.747 135.989C306.361 135.989 306.838 135.494 306.838 134.92C306.838 134.312 306.361 133.847 305.747 133.847C305.151 133.847 304.645 134.312 304.645 134.92C304.645 135.494 305.151 135.989 305.747 135.989ZM311.879 140.886C311.879 139.625 312.641 138.898 313.726 138.898C314.788 138.898 315.425 139.597 315.425 140.761V146H317.482V140.443C317.487 138.352 316.294 137.159 314.493 137.159C313.186 137.159 312.288 137.784 311.891 138.756H311.788V137.273H309.822V146H311.879V140.886Z" fill="black"/>
<rect x="223" y="158" width="96" height="2" fill="black"/>
<path d="M312 64H360V112H312V64Z" fill="white"/>
<path d="M342.667 82H329.333L334.667 88.3067V92.6667L337.333 94V88.3067L342.667 82Z" stroke="black" stroke-width="1.6" stroke-linecap="round"/>
<path d="M312 64V63H311V64H312ZM360 64H361V63H360V64ZM360 112V113H361V112H360ZM312 112H311V113H312V112ZM312 65H360V63H312V65ZM359 64V112H361V64H359ZM360 111H312V113H360V111ZM313 112V64H311V112H313Z" fill="black"/>
<path d="M17.3295 41H30.6932V37.9574H21.9574L30.6761 25.7358V23.5455H17.3125V26.5881H26.0398L17.3295 38.8097V41ZM39.3714 41.2557C43.343 41.2557 45.8146 38.5369 45.8146 34.5057C45.8146 30.4489 43.343 27.7386 39.3714 27.7386C35.3999 27.7386 32.9283 30.4489 32.9283 34.5057C32.9283 38.5369 35.3999 41.2557 39.3714 41.2557ZM39.3885 38.4432C37.5561 38.4432 36.6186 36.7642 36.6186 34.4801C36.6186 32.196 37.5561 30.5085 39.3885 30.5085C41.1868 30.5085 42.1243 32.196 42.1243 34.4801C42.1243 36.7642 41.1868 38.4432 39.3885 38.4432ZM54.1413 41.2557C57.38 41.2557 59.5618 39.679 60.0732 37.25L56.7152 37.0284C56.3487 38.0256 55.4112 38.5455 54.201 38.5455C52.3857 38.5455 51.2351 37.3438 51.2351 35.392V35.3835H60.1499V34.3864C60.1499 29.9375 57.4567 27.7386 53.9964 27.7386C50.1442 27.7386 47.647 30.4744 47.647 34.5142C47.647 38.6648 50.1101 41.2557 54.1413 41.2557ZM51.2351 33.1335C51.3118 31.642 52.4453 30.4489 54.0561 30.4489C55.6328 30.4489 56.7237 31.5739 56.7322 33.1335H51.2351ZM62.5192 41H66.1499V36.8409L67.13 35.7244L70.701 41H74.9538L69.8487 33.5767L74.7067 27.9091H70.5391L66.3459 32.8778H66.1499V23.5455H62.5192V41ZM81.9148 41.2557C85.1534 41.2557 87.3352 39.679 87.8466 37.25L84.4886 37.0284C84.1222 38.0256 83.1847 38.5455 81.9744 38.5455C80.1591 38.5455 79.0085 37.3438 79.0085 35.392V35.3835H87.9233V34.3864C87.9233 29.9375 85.2301 27.7386 81.7699 27.7386C77.9176 27.7386 75.4205 30.4744 75.4205 34.5142C75.4205 38.6648 77.8835 41.2557 81.9148 41.2557ZM79.0085 33.1335C79.0852 31.642 80.2188 30.4489 81.8295 30.4489C83.4062 30.4489 84.4972 31.5739 84.5057 33.1335H79.0085ZM93.9233 33.4318C93.9318 31.7443 94.9375 30.7557 96.4034 30.7557C97.8608 30.7557 98.7386 31.7102 98.7301 33.3125V41H102.361V32.6648C102.361 29.6136 100.571 27.7386 97.8438 27.7386C95.9006 27.7386 94.4943 28.6932 93.9062 30.2188H93.7528V27.9091H90.2926V41H93.9233V33.4318Z" fill="black"/>
<rect x="16.5" y="176.5" width="167" height="95" fill="white"/>
<rect x="88.8" y="200.8" width="22.4" height="22.4" stroke="black" stroke-width="1.6"/>
<path d="M89 201L111 223" stroke="black" stroke-width="1.6" stroke-linecap="round"/>
<path d="M111 201L89 223" stroke="black" stroke-width="1.6" stroke-linecap="round"/>
<path d="M84.5398 244H86.3849V240.395H89.9347V238.874H86.3849V236.794H90.3182V235.273H84.5398V244ZM91.5252 244H93.3406V237.455H91.5252V244ZM92.4371 236.611C92.9783 236.611 93.4215 236.197 93.4215 235.69C93.4215 235.188 92.9783 234.774 92.4371 234.774C91.9002 234.774 91.457 235.188 91.457 235.69C91.457 236.197 91.9002 236.611 92.4371 236.611ZM97.7521 244.128C99.495 244.128 100.59 243.105 100.675 241.601H98.9624C98.8558 242.3 98.3956 242.692 97.7734 242.692C96.9254 242.692 96.3757 241.98 96.3757 240.727C96.3757 239.491 96.9297 238.784 97.7734 238.784C98.4382 238.784 98.8643 239.223 98.9624 239.875H100.675C100.599 238.362 99.4524 237.369 97.7436 237.369C95.7578 237.369 94.5305 238.746 94.5305 240.753C94.5305 242.743 95.7365 244.128 97.7521 244.128ZM105.319 237.455H104.088V235.886H102.272V237.455H101.377V238.818H102.272V242.227C102.264 243.51 103.137 244.145 104.454 244.089C104.923 244.072 105.255 243.979 105.439 243.919L105.153 242.568C105.064 242.585 104.872 242.628 104.701 242.628C104.339 242.628 104.088 242.491 104.088 241.989V238.818H105.319V237.455ZM106.502 244H108.317V237.455H106.502V244ZM107.414 236.611C107.955 236.611 108.398 236.197 108.398 235.69C108.398 235.188 107.955 234.774 107.414 234.774C106.877 234.774 106.434 235.188 106.434 235.69C106.434 236.197 106.877 236.611 107.414 236.611ZM112.754 244.128C114.374 244.128 115.464 243.339 115.72 242.125L114.041 242.014C113.858 242.513 113.389 242.773 112.784 242.773C111.876 242.773 111.301 242.172 111.301 241.196V241.192H115.759V240.693C115.759 238.469 114.412 237.369 112.682 237.369C110.756 237.369 109.507 238.737 109.507 240.757C109.507 242.832 110.739 244.128 112.754 244.128ZM111.301 240.067C111.339 239.321 111.906 238.724 112.712 238.724C113.5 238.724 114.045 239.287 114.05 240.067H111.301Z" fill="black"/>
<rect x="16.5" y="176.5" width="167" height="95" stroke="black"/>
<rect x="16.5" y="280.5" width="167" height="95" fill="white"/>
<rect x="88.8" y="304.8" width="22.4" height="22.4" stroke="black" stroke-width="1.6"/>
<path d="M89 305L111 327" stroke="black" stroke-width="1.6" stroke-linecap="round"/>
<path d="M111 305L89 327" stroke="black" stroke-width="1.6" stroke-linecap="round"/>
<path d="M76.0559 339.273H74.0062L77.019 348H79.3968L82.4054 339.273H80.3599L78.2463 345.903H78.1653L76.0559 339.273ZM83.4217 348H85.237V344.297C85.237 343.491 85.8251 342.938 86.6262 342.938C86.8777 342.938 87.2228 342.98 87.3933 343.036V341.425C87.2314 341.386 87.0055 341.361 86.8223 341.361C86.0893 341.361 85.4885 341.787 85.2498 342.597H85.1816V341.455H83.4217V348ZM88.3319 348H90.1472V341.455H88.3319V348ZM89.2438 340.611C89.785 340.611 90.2282 340.197 90.2282 339.69C90.2282 339.188 89.785 338.774 89.2438 338.774C88.7069 338.774 88.2637 339.188 88.2637 339.69C88.2637 340.197 88.7069 340.611 89.2438 340.611ZM91.6014 341.455V348.273C91.6014 348.767 91.3926 349.014 90.8088 349.014C90.7321 349.014 90.6639 349.014 90.5701 349.006V350.425C90.7108 350.433 90.8088 350.433 90.9068 350.433C92.4792 350.476 93.4167 349.82 93.4167 348.303V341.455H91.6014ZM92.5048 340.611C93.046 340.611 93.4892 340.197 93.4892 339.69C93.4892 339.188 93.046 338.774 92.5048 338.774C91.9679 338.774 91.5247 339.188 91.5247 339.69C91.5247 340.197 91.9679 340.611 92.5048 340.611ZM97.8539 348.128C99.4732 348.128 100.564 347.339 100.82 346.125L99.1408 346.014C98.9576 346.513 98.4888 346.773 97.8837 346.773C96.976 346.773 96.4007 346.172 96.4007 345.196V345.192H100.858V344.693C100.858 342.469 99.5115 341.369 97.7814 341.369C95.8553 341.369 94.6067 342.737 94.6067 344.757C94.6067 346.832 95.8382 348.128 97.8539 348.128ZM96.4007 344.067C96.4391 343.321 97.0059 342.724 97.8113 342.724C98.5996 342.724 99.1451 343.287 99.1493 344.067H96.4007ZM104.522 340.794H107.194V348H109.018V340.794H111.689V339.273H104.522V340.794ZM112.836 348H114.651V341.455H112.836V348ZM113.748 340.611C114.289 340.611 114.732 340.197 114.732 339.69C114.732 339.188 114.289 338.774 113.748 338.774C113.211 338.774 112.768 339.188 112.768 339.69C112.768 340.197 113.211 340.611 113.748 340.611ZM116.105 341.455V348.273C116.105 348.767 115.896 349.014 115.313 349.014C115.236 349.014 115.168 349.014 115.074 349.006V350.425C115.215 350.433 115.313 350.433 115.411 350.433C116.983 350.476 117.921 349.82 117.921 348.303V341.455H116.105ZM117.009 340.611C117.55 340.611 117.993 340.197 117.993 339.69C117.993 339.188 117.55 338.774 117.009 338.774C116.472 338.774 116.029 339.188 116.029 339.69C116.029 340.197 116.472 340.611 117.009 340.611ZM121.787 348.107C122.844 348.107 123.393 347.497 123.645 346.952H123.721V348H125.511V339.273H123.7V342.554H123.645C123.402 342.021 122.878 341.369 121.782 341.369C120.346 341.369 119.132 342.486 119.132 344.736C119.132 346.926 120.295 348.107 121.787 348.107ZM122.362 346.662C121.471 346.662 120.986 345.869 120.986 344.727C120.986 343.594 121.463 342.814 122.362 342.814C123.244 342.814 123.738 343.56 123.738 344.727C123.738 345.895 123.236 346.662 122.362 346.662Z" fill="black"/>
<rect x="16.5" y="280.5" width="167" height="95" stroke="black"/>
<rect x="192.5" y="176.5" width="167" height="95" fill="white"/>
<rect x="264.8" y="200.8" width="22.4" height="22.4" stroke="black" stroke-width="1.6"/>
<path d="M265 201L287 223" stroke="black" stroke-width="1.6" stroke-linecap="round"/>
<path d="M287 201L265 223" stroke="black" stroke-width="1.6" stroke-linecap="round"/>
<path d="M253.203 235.273H251.366V240.761H251.289L247.522 235.273H245.903V244H247.748V238.507H247.812L251.609 244H253.203V235.273ZM257.651 244.128C259.636 244.128 260.872 242.768 260.872 240.753C260.872 238.724 259.636 237.369 257.651 237.369C255.665 237.369 254.429 238.724 254.429 240.753C254.429 242.768 255.665 244.128 257.651 244.128ZM257.659 242.722C256.743 242.722 256.274 241.882 256.274 240.74C256.274 239.598 256.743 238.754 257.659 238.754C258.558 238.754 259.027 239.598 259.027 240.74C259.027 241.882 258.558 242.722 257.659 242.722ZM263.868 240.216C263.872 239.372 264.375 238.878 265.108 238.878C265.837 238.878 266.276 239.355 266.271 240.156V244H268.087V239.832C268.087 238.307 267.192 237.369 265.828 237.369C264.857 237.369 264.153 237.847 263.859 238.609H263.783V237.455H262.053V244H263.868V240.216ZM273.596 239.696H269.615V241.136H273.596V239.696ZM275.176 244H277.022V240.395H280.571V238.874H277.022V236.794H280.955V235.273H275.176V244ZM282.162 244H283.977V237.455H282.162V244ZM283.074 236.611C283.615 236.611 284.058 236.197 284.058 235.69C284.058 235.188 283.615 234.774 283.074 234.774C282.537 234.774 282.094 235.188 282.094 235.69C282.094 236.197 282.537 236.611 283.074 236.611ZM288.389 244.128C290.132 244.128 291.227 243.105 291.312 241.601H289.599C289.493 242.3 289.032 242.692 288.41 242.692C287.562 242.692 287.012 241.98 287.012 240.727C287.012 239.491 287.566 238.784 288.41 238.784C289.075 238.784 289.501 239.223 289.599 239.875H291.312C291.235 238.362 290.089 237.369 288.38 237.369C286.395 237.369 285.167 238.746 285.167 240.753C285.167 242.743 286.373 244.128 288.389 244.128ZM295.956 237.455H294.724V235.886H292.909V237.455H292.014V238.818H292.909V242.227C292.901 243.51 293.774 244.145 295.091 244.089C295.56 244.072 295.892 243.979 296.075 243.919L295.79 242.568C295.7 242.585 295.509 242.628 295.338 242.628C294.976 242.628 294.724 242.491 294.724 241.989V238.818H295.956V237.455ZM297.138 244H298.954V237.455H297.138V244ZM298.05 236.611C298.592 236.611 299.035 236.197 299.035 235.69C299.035 235.188 298.592 234.774 298.05 234.774C297.513 234.774 297.07 235.188 297.07 235.69C297.07 236.197 297.513 236.611 298.05 236.611ZM303.391 244.128C305.01 244.128 306.101 243.339 306.357 242.125L304.678 242.014C304.495 242.513 304.026 242.773 303.421 242.773C302.513 242.773 301.938 242.172 301.938 241.196V241.192H306.395V240.693C306.395 238.469 305.049 237.369 303.319 237.369C301.392 237.369 300.144 238.737 300.144 240.757C300.144 242.832 301.375 244.128 303.391 244.128ZM301.938 240.067C301.976 239.321 302.543 238.724 303.348 238.724C304.137 238.724 304.682 239.287 304.686 240.067H301.938Z" fill="black"/>
<rect x="192.5" y="176.5" width="167" height="95" stroke="black"/>
<rect x="192.5" y="280.5" width="167" height="95" fill="white"/>
<rect x="264.8" y="304.8" width="22.4" height="22.4" stroke="black" stroke-width="1.6"/>
<path d="M265 305L287 327" stroke="black" stroke-width="1.6" stroke-linecap="round"/>
<path d="M287 305L265 327" stroke="black" stroke-width="1.6" stroke-linecap="round"/>
<path d="M265.208 343.636C265.208 340.781 263.435 339.153 261.121 339.153C258.795 339.153 257.035 340.781 257.035 343.636C257.035 346.479 258.795 348.119 261.121 348.119C263.435 348.119 265.208 346.491 265.208 343.636ZM263.337 343.636C263.337 345.486 262.46 346.487 261.121 346.487C259.779 346.487 258.906 345.486 258.906 343.636C258.906 341.787 259.779 340.786 261.121 340.786C262.46 340.786 263.337 341.787 263.337 343.636ZM272.643 341.455H270.721L269.366 346.138H269.298L267.939 341.455H266.021L268.309 348H270.355L272.643 341.455ZM276.332 348.128C277.952 348.128 279.043 347.339 279.298 346.125L277.619 346.014C277.436 346.513 276.967 346.773 276.362 346.773C275.455 346.773 274.879 346.172 274.879 345.196V345.192H279.337V344.693C279.337 342.469 277.99 341.369 276.26 341.369C274.334 341.369 273.085 342.737 273.085 344.757C273.085 346.832 274.317 348.128 276.332 348.128ZM274.879 344.067C274.918 343.321 275.484 342.724 276.29 342.724C277.078 342.724 277.624 343.287 277.628 344.067H274.879ZM280.521 348H282.337V344.297C282.337 343.491 282.925 342.938 283.726 342.938C283.977 342.938 284.322 342.98 284.493 343.036V341.425C284.331 341.386 284.105 341.361 283.922 341.361C283.189 341.361 282.588 341.787 282.349 342.597H282.281V341.455H280.521V348ZM285.431 348H287.247V341.455H285.431V348ZM286.343 340.611C286.885 340.611 287.328 340.197 287.328 339.69C287.328 339.188 286.885 338.774 286.343 338.774C285.806 338.774 285.363 339.188 285.363 339.69C285.363 340.197 285.806 340.611 286.343 340.611ZM291.65 350.548C293.521 350.548 294.85 349.696 294.85 348.064V341.455H293.048V342.554H292.979C292.737 342.021 292.204 341.369 291.109 341.369C289.673 341.369 288.458 342.486 288.458 344.714C288.458 346.892 289.638 347.906 291.113 347.906C292.157 347.906 292.741 347.382 292.979 346.841H293.056V348.038C293.056 348.895 292.481 349.244 291.692 349.244C290.891 349.244 290.487 348.895 290.337 348.541L288.658 348.767C288.876 349.756 289.886 350.548 291.65 350.548ZM291.688 346.543C290.798 346.543 290.312 345.835 290.312 344.706C290.312 343.594 290.789 342.814 291.688 342.814C292.57 342.814 293.065 343.56 293.065 344.706C293.065 345.861 292.562 346.543 291.688 346.543Z" fill="black"/>
<rect x="192.5" y="280.5" width="167" height="95" stroke="black"/>
<path d="M0 696H376V752H0V696Z" fill="white"/>
<path d="M47 721L56 714L65 721V732C65 732.53 64.7893 733.039 64.4142 733.414C64.0391 733.789 63.5304 734 63 734H49C48.4696 734 47.9609 733.789 47.5858 733.414C47.2107 733.039 47 732.53 47 732V721Z" stroke="black" stroke-width="1.6" stroke-linecap="round" stroke-linejoin="round"/>
<path d="M53 734V724H59V734" stroke="black" stroke-width="1.6" stroke-linecap="round" stroke-linejoin="round"/>
<path d="M143 723C147.418 723 151 719.418 151 715C151 710.582 147.418 707 143 707C138.582 707 135 710.582 135 715C135 719.418 138.582 723 143 723Z" stroke="black" stroke-width="1.6" stroke-linecap="round" stroke-linejoin="round"/>
<path d="M153 725L148.65 720.65" stroke="black" stroke-width="1.6" stroke-linecap="round" stroke-linejoin="round"/>
<path d="M130.056 742H134.363V741.116H131.365L134.346 736.838V736.182H130.039V737.065H133.039L130.056 741.344V742ZM137.24 742.085C138.519 742.085 139.331 741.185 139.331 739.835C139.331 738.483 138.519 737.58 137.24 737.58C135.962 737.58 135.15 738.483 135.15 739.835C135.15 741.185 135.962 742.085 137.24 742.085ZM137.246 741.261C136.539 741.261 136.192 740.631 136.192 739.832C136.192 739.034 136.539 738.395 137.246 738.395C137.942 738.395 138.289 739.034 138.289 739.832C138.289 740.631 137.942 741.261 137.246 741.261ZM142.136 742.085C143.153 742.085 143.852 741.588 144.034 740.83L143.074 740.722C142.934 741.091 142.593 741.284 142.15 741.284C141.485 741.284 141.045 740.847 141.037 740.099H144.076V739.784C144.076 738.253 143.156 737.58 142.082 737.58C140.832 737.58 140.017 738.497 140.017 739.844C140.017 741.213 140.821 742.085 142.136 742.085ZM141.039 739.406C141.071 738.849 141.483 738.381 142.096 738.381C142.687 738.381 143.085 738.812 143.091 739.406H141.039ZM144.946 742H145.975V740.534L146.35 740.134L147.685 742H148.915L147.125 739.52L148.816 737.636H147.614L146.046 739.389H145.975V736.182H144.946V742ZM151.253 742.085C152.27 742.085 152.969 741.588 153.151 740.83L152.191 740.722C152.051 741.091 151.711 741.284 151.267 741.284C150.603 741.284 150.162 740.847 150.154 740.099H153.194V739.784C153.194 738.253 152.273 737.58 151.199 737.58C149.949 737.58 149.134 738.497 149.134 739.844C149.134 741.213 149.938 742.085 151.253 742.085ZM150.157 739.406C150.188 738.849 150.6 738.381 151.213 738.381C151.804 738.381 152.202 738.812 152.208 739.406H150.157ZM155.092 739.443C155.092 738.812 155.473 738.449 156.015 738.449C156.547 738.449 156.865 738.798 156.865 739.381V742H157.893V739.222C157.896 738.176 157.299 737.58 156.399 737.58C155.745 737.58 155.297 737.892 155.098 738.378H155.047V737.636H154.064V742H155.092V739.443Z" fill="black"/>
<path d="M240 733V731C240 729.939 239.579 728.922 238.828 728.172C238.078 727.421 237.061 727 236 727H228C226.939 727 225.922 727.421 225.172 728.172C224.421 728.922 224 729.939 224 731V733" stroke="black" stroke-width="1.6" stroke-linecap="round" stroke-linejoin="round"/>
<path d="M232 723C234.209 723 236 721.209 236 719C236 716.791 234.209 715 232 715C229.791 715 228 716.791 228 719C228 721.209 229.791 723 232 723Z" stroke="black" stroke-width="1.6" stroke-linecap="round" stroke-linejoin="round"/>
<path d="M320 727C321.657 727 323 725.657 323 724C323 722.343 321.657 721 320 721C318.343 721 317 722.343 317 724C317 725.657 318.343 727 320 727Z" stroke="black" stroke-width="1.6" stroke-linecap="round" stroke-linejoin="round"/>
<path d="M327.4 727C327.267 727.302 327.227 727.636 327.286 727.961C327.345 728.285 327.499 728.584 327.73 728.82L327.79 728.88C327.976 729.066 328.123 729.286 328.224 729.529C328.325 729.772 328.377 730.032 328.377 730.295C328.377 730.558 328.325 730.818 328.224 731.061C328.123 731.304 327.976 731.524 327.79 731.71C327.604 731.896 327.384 732.043 327.141 732.144C326.898 732.245 326.638 732.297 326.375 732.297C326.112 732.297 325.852 732.245 325.609 732.144C325.366 732.043 325.146 731.896 324.96 731.71L324.9 731.65C324.664 731.419 324.365 731.265 324.041 731.206C323.716 731.147 323.382 731.187 323.08 731.32C322.784 731.447 322.532 731.657 322.354 731.926C322.177 732.194 322.081 732.508 322.08 732.83V733C322.08 733.53 321.869 734.039 321.494 734.414C321.119 734.789 320.61 735 320.08 735C319.55 735 319.041 734.789 318.666 734.414C318.291 734.039 318.08 733.53 318.08 733V732.91C318.072 732.579 317.965 732.258 317.773 731.989C317.58 731.719 317.311 731.514 317 731.4C316.698 731.267 316.364 731.227 316.039 731.286C315.715 731.345 315.416 731.499 315.18 731.73L315.12 731.79C314.934 731.976 314.714 732.123 314.471 732.224C314.228 732.325 313.968 732.377 313.705 732.377C313.442 732.377 313.182 732.325 312.939 732.224C312.696 732.123 312.476 731.976 312.29 731.79C312.104 731.604 311.957 731.384 311.856 731.141C311.755 730.898 311.703 730.638 311.703 730.375C311.703 730.112 311.755 729.852 311.856 729.609C311.957 729.366 312.104 729.146 312.29 728.96L312.35 728.9C312.581 728.664 312.735 728.365 312.794 728.041C312.853 727.716 312.813 727.382 312.68 727.08C312.553 726.784 312.343 726.532 312.074 726.354C311.806 726.177 311.492 726.081 311.17 726.08H311C310.47 726.08 309.961 725.869 309.586 725.494C309.211 725.119 309 724.61 309 724.08C309 723.55 309.211 723.041 309.586 722.666C309.961 722.291 310.47 722.08 311 722.08H311.09C311.421 722.072 311.742 721.965 312.011 721.773C312.281 721.58 312.486 721.311 312.6 721C312.733 720.698 312.773 720.364 312.714 720.039C312.655 719.715 312.501 719.416 312.27 719.18L312.21 719.12C312.024 718.934 311.877 718.714 311.776 718.471C311.675 718.228 311.623 717.968 311.623 717.705C311.623 717.442 311.675 717.182 311.776 716.939C311.877 716.696 312.024 716.476 312.21 716.29C312.396 716.104 312.616 715.957 312.859 715.856C313.102 715.755 313.362 715.703 313.625 715.703C313.888 715.703 314.148 715.755 314.391 715.856C314.634 715.957 314.854 716.104 315.04 716.29L315.1 716.35C315.336 716.581 315.635 716.735 315.959 716.794C316.284 716.853 316.618 716.813 316.92 716.68H317C317.296 716.553 317.548 716.343 317.726 716.074C317.903 715.806 317.999 715.492 318 715.17V715C318 714.47 318.211 713.961 318.586 713.586C318.961 713.211 319.47 713 320 713C320.53 713 321.039 713.211 321.414 713.586C321.789 713.961 322 714.47 322 715V715.09C322.001 715.412 322.097 715.726 322.274 715.994C322.452 716.263 322.704 716.473 323 716.6C323.302 716.733 323.636 716.773 323.961 716.714C324.285 716.655 324.584 716.501 324.82 716.27L324.88 716.21C325.066 716.024 325.286 715.877 325.529 715.776C325.772 715.675 326.032 715.623 326.295 715.623C326.558 715.623 326.818 715.675 327.061 715.776C327.304 715.877 327.524 716.024 327.71 716.21C327.896 716.396 328.043 716.616 328.144 716.859C328.245 717.102 328.297 717.362 328.297 717.625C328.297 717.888 328.245 718.148 328.144 718.391C328.043 718.634 327.896 718.854 327.71 719.04L327.65 719.1C327.419 719.336 327.265 719.635 327.206 719.959C327.147 720.284 327.187 720.618 327.32 720.92V721C327.447 721.296 327.657 721.548 327.926 721.726C328.194 721.903 328.508 721.999 328.83 722H329C329.53 722 330.039 722.211 330.414 722.586C330.789 722.961 331 723.47 331 724C331 724.53 330.789 725.039 330.414 725.414C330.039 725.789 329.53 726 329 726H328.91C328.588 726.001 328.274 726.097 328.006 726.274C327.737 726.452 327.527 726.704 327.4 727V727Z" stroke="black" stroke-width="1.6" stroke-linecap="round" stroke-linejoin="round"/>
<path d="M0 696V695H-1V696H0ZM376 696H377V695H376V696ZM376 752V753H377V752H376ZM0 752H-1V753H0V752ZM0 697H376V695H0V697ZM375 696V752H377V696H375ZM376 751H0V753H376V751ZM1 752V696H-1V752H1Z" fill="black"/>
</g>
<defs>
<clipPath id="clip0">
<rect width="376" height="752" fill="white"/>
</clipPath>
</defs>
</svg>
