<svg width="376" height="752" viewBox="0 0 376 752" fill="none" xmlns="http://www.w3.org/2000/svg">
<g clip-path="url(#clip0)">
<rect width="376" height="752" fill="white"/>
<rect x="-0.5" y="-0.5" width="377" height="161" fill="white" stroke="black"/>
<path d="M33.4091 94H34.8182V89.4545H37.3636C37.4659 89.4545 37.5625 89.4545 37.6591 89.4489L40.1136 94H41.75L39.1193 89.1932C40.6023 88.6875 41.2955 87.4773 41.2955 85.9318C41.2955 83.875 40.0682 82.3636 37.3409 82.3636H33.4091V94ZM34.8182 88.1818V83.6136H37.2955C39.1818 83.6136 39.9091 84.5341 39.9091 85.9318C39.9091 87.3295 39.1818 88.1818 37.3182 88.1818H34.8182ZM46.9134 94.1818C49.277 94.1818 50.8679 92.3864 50.8679 89.6818C50.8679 86.9545 49.277 85.1591 46.9134 85.1591C44.5497 85.1591 42.9588 86.9545 42.9588 89.6818C42.9588 92.3864 44.5497 94.1818 46.9134 94.1818ZM46.9134 92.9773C45.1179 92.9773 44.2997 91.4318 44.2997 89.6818C44.2997 87.9318 45.1179 86.3636 46.9134 86.3636C48.7088 86.3636 49.527 87.9318 49.527 89.6818C49.527 91.4318 48.7088 92.9773 46.9134 92.9773ZM53.0966 94H54.392V92.6591H54.5511C54.8466 93.1364 55.4148 94.1818 57.0966 94.1818C59.2784 94.1818 60.8011 92.4318 60.8011 89.6591C60.8011 86.9091 59.2784 85.1591 57.0739 85.1591C55.3693 85.1591 54.8466 86.2045 54.5511 86.6591H54.4375V82.3636H53.0966V94ZM54.4148 89.6364C54.4148 87.6818 55.2784 86.3636 56.9148 86.3636C58.6193 86.3636 59.4602 87.7955 59.4602 89.6364C59.4602 91.5 58.5966 92.9773 56.9148 92.9773C55.3011 92.9773 54.4148 91.6136 54.4148 89.6364ZM64.8068 78.6136H63.6705V97.75H64.8068V78.6136Z" fill="black"/>
<path d="M284 84L276 92" stroke="black" stroke-width="1.6" stroke-linecap="square"/>
<path d="M276 84L284 92" stroke="black" stroke-width="1.6" stroke-linecap="square"/>
<rect x="16.5" y="64.5" width="287" height="47" stroke="black"/>
<path d="M18.642 146L19.6023 143.131H23.9773L24.9432 146H27.1932L23.0909 134.364H20.4886L16.392 146H18.642ZM20.1705 141.438L21.7443 136.75H21.8352L23.4091 141.438H20.1705ZM30.6918 134.364H28.6349V146H30.6918V134.364ZM34.8636 134.364H32.8068V146H34.8636V134.364ZM40.8423 146.17C42.8764 146.17 44.2741 145.176 44.6378 143.659L42.7173 143.443C42.4389 144.182 41.7571 144.568 40.8707 144.568C39.5412 144.568 38.6605 143.693 38.6435 142.199H44.723V141.568C44.723 138.506 42.8821 137.159 40.7344 137.159C38.2344 137.159 36.6037 138.994 36.6037 141.688C36.6037 144.426 38.2116 146.17 40.8423 146.17ZM38.6491 140.812C38.7116 139.699 39.5355 138.761 40.7628 138.761C41.9446 138.761 42.7401 139.625 42.7514 140.812H38.6491ZM53.3608 139.58C53.0767 138.102 51.8949 137.159 49.8494 137.159C47.7472 137.159 46.3153 138.193 46.321 139.807C46.3153 141.08 47.0994 141.92 48.7756 142.267L50.2642 142.58C51.0653 142.756 51.4403 143.08 51.4403 143.574C51.4403 144.17 50.7926 144.619 49.8153 144.619C48.8722 144.619 48.2585 144.21 48.0824 143.426L46.0767 143.619C46.3324 145.222 47.679 146.17 49.821 146.17C52.0028 146.17 53.5426 145.04 53.5483 143.386C53.5426 142.142 52.7415 141.381 51.0938 141.023L49.6051 140.705C48.7188 140.506 48.3665 140.199 48.3722 139.693C48.3665 139.102 49.0199 138.693 49.8778 138.693C50.8267 138.693 51.3267 139.21 51.4858 139.784L53.3608 139.58Z" fill="black"/>
<rect x="16" y="158" width="39" height="2" fill="black"/>
<path d="M72.1477 146H76.858C79.5227 146 80.8295 144.642 80.8295 142.83C80.8295 141.068 79.5795 140.034 78.3409 139.972V139.858C79.4773 139.591 80.375 138.795 80.375 137.381C80.375 135.648 79.125 134.364 76.6023 134.364H72.1477V146ZM74.2557 144.239V140.83H76.5795C77.8807 140.83 78.6875 141.625 78.6875 142.665C78.6875 143.591 78.0511 144.239 76.5227 144.239H74.2557ZM74.2557 139.312V136.102H76.3864C77.625 136.102 78.267 136.756 78.267 137.653C78.267 138.676 77.4375 139.312 76.3409 139.312H74.2557ZM86.3793 146.17C88.9361 146.17 90.5611 144.369 90.5611 141.67C90.5611 138.966 88.9361 137.159 86.3793 137.159C83.8224 137.159 82.1974 138.966 82.1974 141.67C82.1974 144.369 83.8224 146.17 86.3793 146.17ZM86.3906 144.523C84.9759 144.523 84.2827 143.261 84.2827 141.665C84.2827 140.068 84.9759 138.79 86.3906 138.79C87.7827 138.79 88.4759 140.068 88.4759 141.665C88.4759 143.261 87.7827 144.523 86.3906 144.523ZM96.1705 146.17C98.2045 146.17 99.6023 145.176 99.9659 143.659L98.0455 143.443C97.767 144.182 97.0852 144.568 96.1989 144.568C94.8693 144.568 93.9886 143.693 93.9716 142.199H100.051V141.568C100.051 138.506 98.2102 137.159 96.0625 137.159C93.5625 137.159 91.9318 138.994 91.9318 141.688C91.9318 144.426 93.5398 146.17 96.1705 146.17ZM93.9773 140.812C94.0398 139.699 94.8636 138.761 96.0909 138.761C97.2727 138.761 98.0682 139.625 98.0795 140.812H93.9773ZM101.791 146H103.848V143.068L104.598 142.267L107.268 146H109.729L106.149 141.04L109.53 137.273H107.126L103.99 140.778H103.848V134.364H101.791V146ZM114.405 146.17C116.439 146.17 117.837 145.176 118.2 143.659L116.28 143.443C116.001 144.182 115.32 144.568 114.433 144.568C113.104 144.568 112.223 143.693 112.206 142.199H118.286V141.568C118.286 138.506 116.445 137.159 114.297 137.159C111.797 137.159 110.166 138.994 110.166 141.688C110.166 144.426 111.774 146.17 114.405 146.17ZM112.212 140.812C112.274 139.699 113.098 138.761 114.325 138.761C115.507 138.761 116.303 139.625 116.314 140.812H112.212ZM122.082 140.886C122.082 139.625 122.844 138.898 123.929 138.898C124.991 138.898 125.628 139.597 125.628 140.761V146H127.685V140.443C127.69 138.352 126.497 137.159 124.696 137.159C123.389 137.159 122.491 137.784 122.094 138.756H121.991V137.273H120.026V146H122.082V140.886Z" fill="#999999"/>
<path d="M147.642 146L148.602 143.131H152.977L153.943 146H156.193L152.091 134.364H149.489L145.392 146H147.642ZM149.17 141.438L150.744 136.75H150.835L152.409 141.438H149.17ZM163.197 142.33C163.197 143.659 162.249 144.318 161.339 144.318C160.351 144.318 159.692 143.619 159.692 142.511V137.273H157.635V142.83C157.635 144.926 158.828 146.114 160.544 146.114C161.851 146.114 162.771 145.426 163.169 144.449H163.26V146H165.254V137.273H163.197V142.33ZM171.727 137.273H170.006V135.182H167.949V137.273H166.71V138.864H167.949V143.716C167.938 145.358 169.131 146.165 170.676 146.119C171.261 146.102 171.665 145.989 171.886 145.915L171.54 144.307C171.426 144.335 171.193 144.386 170.938 144.386C170.42 144.386 170.006 144.205 170.006 143.375V138.864H171.727V137.273ZM177.217 146.17C179.251 146.17 180.649 145.176 181.013 143.659L179.092 143.443C178.814 144.182 178.132 144.568 177.246 144.568C175.916 144.568 175.036 143.693 175.018 142.199H181.098V141.568C181.098 138.506 179.257 137.159 177.109 137.159C174.609 137.159 172.979 138.994 172.979 141.688C172.979 144.426 174.587 146.17 177.217 146.17ZM175.024 140.812C175.087 139.699 175.911 138.761 177.138 138.761C178.32 138.761 179.115 139.625 179.126 140.812H175.024ZM188.401 142.33C188.401 143.659 187.452 144.318 186.543 144.318C185.554 144.318 184.895 143.619 184.895 142.511V137.273H182.838V142.83C182.838 144.926 184.031 146.114 185.747 146.114C187.054 146.114 187.974 145.426 188.372 144.449H188.463V146H190.457V137.273H188.401V142.33ZM192.572 146H194.629V140.869C194.629 139.767 195.459 138.989 196.533 138.989C196.868 138.989 197.124 139.068 197.345 139.17L197.982 137.466C197.675 137.273 197.283 137.148 196.811 137.148C195.805 137.148 194.976 137.716 194.658 138.727H194.567V137.273H192.572V146ZM206.095 139.58C205.811 138.102 204.629 137.159 202.584 137.159C200.482 137.159 199.05 138.193 199.055 139.807C199.05 141.08 199.834 141.92 201.51 142.267L202.999 142.58C203.8 142.756 204.175 143.08 204.175 143.574C204.175 144.17 203.527 144.619 202.55 144.619C201.607 144.619 200.993 144.21 200.817 143.426L198.811 143.619C199.067 145.222 200.413 146.17 202.555 146.17C204.737 146.17 206.277 145.04 206.283 143.386C206.277 142.142 205.476 141.381 203.828 141.023L202.339 140.705C201.453 140.506 201.101 140.199 201.107 139.693C201.101 139.102 201.754 138.693 202.612 138.693C203.561 138.693 204.061 139.21 204.22 139.784L206.095 139.58Z" fill="#999999"/>
<path d="M234.108 138.29C233.75 135.705 231.761 134.205 229.182 134.205C226.142 134.205 223.852 136.42 223.852 140.182C223.852 143.938 226.114 146.159 229.182 146.159C231.949 146.159 233.784 144.369 234.108 142.148L231.983 142.136C231.716 143.5 230.602 144.267 229.21 144.267C227.324 144.267 225.972 142.852 225.972 140.182C225.972 137.557 227.312 136.097 229.216 136.097C230.631 136.097 231.739 136.898 231.983 138.29H234.108ZM238.459 146.176C239.828 146.176 240.646 145.534 241.021 144.801H241.089V146H243.067V140.159C243.067 137.852 241.186 137.159 239.521 137.159C237.686 137.159 236.277 137.977 235.822 139.568L237.743 139.841C237.947 139.244 238.527 138.733 239.533 138.733C240.487 138.733 241.01 139.222 241.01 140.08V140.114C241.01 140.705 240.391 140.733 238.851 140.898C237.158 141.08 235.538 141.585 235.538 143.551C235.538 145.267 236.794 146.176 238.459 146.176ZM238.993 144.665C238.135 144.665 237.521 144.273 237.521 143.517C237.521 142.727 238.209 142.398 239.129 142.267C239.669 142.193 240.749 142.057 241.016 141.841V142.869C241.016 143.841 240.232 144.665 238.993 144.665ZM249.493 137.273H247.771V135.182H245.714V137.273H244.476V138.864H245.714V143.716C245.703 145.358 246.896 146.165 248.442 146.119C249.027 146.102 249.43 145.989 249.652 145.915L249.305 144.307C249.192 144.335 248.959 144.386 248.703 144.386C248.186 144.386 247.771 144.205 247.771 143.375V138.864H249.493V137.273ZM254.983 146.17C257.017 146.17 258.415 145.176 258.778 143.659L256.858 143.443C256.58 144.182 255.898 144.568 255.011 144.568C253.682 144.568 252.801 143.693 252.784 142.199H258.864V141.568C258.864 138.506 257.023 137.159 254.875 137.159C252.375 137.159 250.744 138.994 250.744 141.688C250.744 144.426 252.352 146.17 254.983 146.17ZM252.79 140.812C252.852 139.699 253.676 138.761 254.903 138.761C256.085 138.761 256.881 139.625 256.892 140.812H252.79ZM264.399 149.42C266.757 149.42 268.496 148.341 268.496 146.142V137.273H266.467V138.716H266.354C266.041 138.085 265.388 137.159 263.848 137.159C261.831 137.159 260.246 138.739 260.246 141.608C260.246 144.455 261.831 145.875 263.842 145.875C265.337 145.875 266.036 145.074 266.354 144.432H266.456V146.085C266.456 147.335 265.604 147.864 264.433 147.864C263.195 147.864 262.649 147.278 262.399 146.801L260.547 147.25C260.922 148.438 262.178 149.42 264.399 149.42ZM264.416 144.261C263.058 144.261 262.342 143.205 262.342 141.597C262.342 140.011 263.047 138.847 264.416 138.847C265.74 138.847 266.467 139.943 266.467 141.597C266.467 143.261 265.729 144.261 264.416 144.261ZM274.411 146.17C276.967 146.17 278.592 144.369 278.592 141.67C278.592 138.966 276.967 137.159 274.411 137.159C271.854 137.159 270.229 138.966 270.229 141.67C270.229 144.369 271.854 146.17 274.411 146.17ZM274.422 144.523C273.007 144.523 272.314 143.261 272.314 141.665C272.314 140.068 273.007 138.79 274.422 138.79C275.814 138.79 276.507 140.068 276.507 141.665C276.507 143.261 275.814 144.523 274.422 144.523ZM280.338 146H282.395V140.869C282.395 139.761 283.23 138.977 284.361 138.977C284.707 138.977 285.139 139.04 285.315 139.097V137.205C285.128 137.17 284.804 137.148 284.577 137.148C283.577 137.148 282.741 137.716 282.423 138.727H282.332V137.273H280.338V146ZM286.682 146H288.739V137.273H286.682V146ZM287.716 136.034C288.369 136.034 288.903 135.534 288.903 134.92C288.903 134.301 288.369 133.801 287.716 133.801C287.057 133.801 286.523 134.301 286.523 134.92C286.523 135.534 287.057 136.034 287.716 136.034ZM294.717 146.17C296.751 146.17 298.149 145.176 298.513 143.659L296.592 143.443C296.314 144.182 295.632 144.568 294.746 144.568C293.416 144.568 292.536 143.693 292.518 142.199H298.598V141.568C298.598 138.506 296.757 137.159 294.609 137.159C292.109 137.159 290.479 138.994 290.479 141.688C290.479 144.426 292.087 146.17 294.717 146.17ZM292.524 140.812C292.587 139.699 293.411 138.761 294.638 138.761C295.82 138.761 296.615 139.625 296.626 140.812H292.524ZM304.202 146.17C306.236 146.17 307.634 145.176 307.997 143.659L306.077 143.443C305.798 144.182 305.116 144.568 304.23 144.568C302.901 144.568 302.02 143.693 302.003 142.199H308.082V141.568C308.082 138.506 306.241 137.159 304.094 137.159C301.594 137.159 299.963 138.994 299.963 141.688C299.963 144.426 301.571 146.17 304.202 146.17ZM302.009 140.812C302.071 139.699 302.895 138.761 304.122 138.761C305.304 138.761 306.099 139.625 306.111 140.812H302.009ZM302.338 135.989C302.952 135.989 303.429 135.494 303.429 134.92C303.429 134.312 302.952 133.847 302.338 133.847C301.741 133.847 301.236 134.312 301.236 134.92C301.236 135.494 301.741 135.989 302.338 135.989ZM305.747 135.989C306.361 135.989 306.838 135.494 306.838 134.92C306.838 134.312 306.361 133.847 305.747 133.847C305.151 133.847 304.645 134.312 304.645 134.92C304.645 135.494 305.151 135.989 305.747 135.989ZM311.879 140.886C311.879 139.625 312.641 138.898 313.726 138.898C314.788 138.898 315.425 139.597 315.425 140.761V146H317.482V140.443C317.487 138.352 316.294 137.159 314.493 137.159C313.186 137.159 312.288 137.784 311.891 138.756H311.788V137.273H309.822V146H311.879V140.886Z" fill="#999999"/>
<path d="M312 64H360V112H312V64Z" fill="white"/>
<path d="M342.667 82H329.333L334.667 88.3067V92.6667L337.333 94V88.3067L342.667 82Z" stroke="black" stroke-width="1.6" stroke-linecap="round"/>
<path d="M312 64V63H311V64H312ZM360 64H361V63H360V64ZM360 112V113H361V112H360ZM312 112H311V113H312V112ZM312 65H360V63H312V65ZM359 64V112H361V64H359ZM360 111H312V113H360V111ZM313 112V64H311V112H313Z" fill="black"/>
<path d="M17.3295 41H30.6932V37.9574H21.9574L30.6761 25.7358V23.5455H17.3125V26.5881H26.0398L17.3295 38.8097V41ZM39.3714 41.2557C43.343 41.2557 45.8146 38.5369 45.8146 34.5057C45.8146 30.4489 43.343 27.7386 39.3714 27.7386C35.3999 27.7386 32.9283 30.4489 32.9283 34.5057C32.9283 38.5369 35.3999 41.2557 39.3714 41.2557ZM39.3885 38.4432C37.5561 38.4432 36.6186 36.7642 36.6186 34.4801C36.6186 32.196 37.5561 30.5085 39.3885 30.5085C41.1868 30.5085 42.1243 32.196 42.1243 34.4801C42.1243 36.7642 41.1868 38.4432 39.3885 38.4432ZM54.1413 41.2557C57.38 41.2557 59.5618 39.679 60.0732 37.25L56.7152 37.0284C56.3487 38.0256 55.4112 38.5455 54.201 38.5455C52.3857 38.5455 51.2351 37.3438 51.2351 35.392V35.3835H60.1499V34.3864C60.1499 29.9375 57.4567 27.7386 53.9964 27.7386C50.1442 27.7386 47.647 30.4744 47.647 34.5142C47.647 38.6648 50.1101 41.2557 54.1413 41.2557ZM51.2351 33.1335C51.3118 31.642 52.4453 30.4489 54.0561 30.4489C55.6328 30.4489 56.7237 31.5739 56.7322 33.1335H51.2351ZM62.5192 41H66.1499V36.8409L67.13 35.7244L70.701 41H74.9538L69.8487 33.5767L74.7067 27.9091H70.5391L66.3459 32.8778H66.1499V23.5455H62.5192V41ZM81.9148 41.2557C85.1534 41.2557 87.3352 39.679 87.8466 37.25L84.4886 37.0284C84.1222 38.0256 83.1847 38.5455 81.9744 38.5455C80.1591 38.5455 79.0085 37.3438 79.0085 35.392V35.3835H87.9233V34.3864C87.9233 29.9375 85.2301 27.7386 81.7699 27.7386C77.9176 27.7386 75.4205 30.4744 75.4205 34.5142C75.4205 38.6648 77.8835 41.2557 81.9148 41.2557ZM79.0085 33.1335C79.0852 31.642 80.2188 30.4489 81.8295 30.4489C83.4062 30.4489 84.4972 31.5739 84.5057 33.1335H79.0085ZM93.9233 33.4318C93.9318 31.7443 94.9375 30.7557 96.4034 30.7557C97.8608 30.7557 98.7386 31.7102 98.7301 33.3125V41H102.361V32.6648C102.361 29.6136 100.571 27.7386 97.8438 27.7386C95.9006 27.7386 94.4943 28.6932 93.9062 30.2188H93.7528V27.9091H90.2926V41H93.9233V33.4318Z" fill="black"/>
<rect x="16.5" y="184.5" width="47" height="63" fill="white" stroke="black"/>
<path d="M17 185L63 247" stroke="black" stroke-linecap="round"/>
<path d="M63 185L17 247" stroke="black" stroke-linecap="round"/>
<path d="M80.0114 214H82.4716V209.875H84.267L86.4716 214H89.1875L86.7159 209.477C88.0398 208.909 88.7727 207.756 88.7727 206.165C88.7727 203.852 87.2443 202.364 84.6023 202.364H80.0114V214ZM82.4716 207.898V204.375H84.1307C85.5511 204.375 86.2386 205.006 86.2386 206.165C86.2386 207.318 85.5511 207.898 84.142 207.898H82.4716ZM94.2685 214.17C96.9162 214.17 98.5639 212.358 98.5639 209.67C98.5639 206.966 96.9162 205.159 94.2685 205.159C91.6207 205.159 89.973 206.966 89.973 209.67C89.973 212.358 91.6207 214.17 94.2685 214.17ZM94.2798 212.295C93.0582 212.295 92.4332 211.176 92.4332 209.653C92.4332 208.131 93.0582 207.006 94.2798 207.006C95.4787 207.006 96.1037 208.131 96.1037 209.653C96.1037 211.176 95.4787 212.295 94.2798 212.295ZM100.183 214H102.57V212.602H102.678C103.013 213.33 103.746 214.142 105.155 214.142C107.143 214.142 108.695 212.568 108.695 209.648C108.695 206.648 107.075 205.159 105.161 205.159C103.7 205.159 103.001 206.028 102.678 206.739H102.604V202.364H100.183V214ZM102.553 209.636C102.553 208.08 103.212 207.085 104.388 207.085C105.587 207.085 106.223 208.125 106.223 209.636C106.223 211.159 105.575 212.216 104.388 212.216C103.223 212.216 102.553 211.193 102.553 209.636Z" fill="black"/>
<path d="M110.31 214H112.73V205.273H110.31V214ZM111.526 204.148C112.247 204.148 112.838 203.597 112.838 202.92C112.838 202.25 112.247 201.699 111.526 201.699C110.81 201.699 110.219 202.25 110.219 202.92C110.219 203.597 110.81 204.148 111.526 204.148ZM117.089 208.955C117.095 207.83 117.766 207.17 118.743 207.17C119.714 207.17 120.3 207.807 120.294 208.875V214H122.714V208.443C122.714 206.409 121.521 205.159 119.703 205.159C118.408 205.159 117.47 205.795 117.078 206.812H116.976V205.273H114.669V214H117.089V208.955ZM131.884 207.761C131.668 206.153 130.372 205.159 128.168 205.159C125.935 205.159 124.463 206.193 124.469 207.875C124.463 209.182 125.287 210.028 126.991 210.369L128.503 210.67C129.264 210.824 129.611 211.102 129.622 211.54C129.611 212.057 129.048 212.426 128.202 212.426C127.338 212.426 126.764 212.057 126.616 211.347L124.236 211.472C124.463 213.142 125.884 214.17 128.196 214.17C130.457 214.17 132.077 213.017 132.082 211.295C132.077 210.034 131.253 209.278 129.56 208.932L127.98 208.614C127.168 208.438 126.866 208.159 126.872 207.739C126.866 207.216 127.457 206.875 128.207 206.875C129.048 206.875 129.548 207.335 129.668 207.898L131.884 207.761ZM137.55 214.17C140.197 214.17 141.845 212.358 141.845 209.67C141.845 206.966 140.197 205.159 137.55 205.159C134.902 205.159 133.254 206.966 133.254 209.67C133.254 212.358 134.902 214.17 137.55 214.17ZM137.561 212.295C136.339 212.295 135.714 211.176 135.714 209.653C135.714 208.131 136.339 207.006 137.561 207.006C138.76 207.006 139.385 208.131 139.385 209.653C139.385 211.176 138.76 212.295 137.561 212.295ZM145.839 208.955C145.845 207.83 146.516 207.17 147.493 207.17C148.464 207.17 149.05 207.807 149.044 208.875V214H151.464V208.443C151.464 206.409 150.271 205.159 148.453 205.159C147.158 205.159 146.22 205.795 145.828 206.812H145.726V205.273H143.419V214H145.839V208.955ZM167.388 206.438C167.064 203.75 165.03 202.205 162.337 202.205C159.263 202.205 156.916 204.375 156.916 208.182C156.916 211.977 159.223 214.159 162.337 214.159C165.32 214.159 167.121 212.176 167.388 210.034L164.899 210.023C164.666 211.267 163.689 211.983 162.376 211.983C160.609 211.983 159.411 210.67 159.411 208.182C159.411 205.761 160.592 204.381 162.393 204.381C163.74 204.381 164.712 205.159 164.899 206.438H167.388ZM169.107 214H171.527V209.062C171.527 207.989 172.311 207.25 173.379 207.25C173.714 207.25 174.175 207.307 174.402 207.381V205.233C174.186 205.182 173.885 205.148 173.641 205.148C172.663 205.148 171.862 205.716 171.544 206.795H171.453V205.273H169.107V214ZM181.25 210.284C181.256 211.455 180.455 212.068 179.585 212.068C178.67 212.068 178.08 211.426 178.074 210.398V205.273H175.653V210.83C175.659 212.869 176.852 214.114 178.608 214.114C179.92 214.114 180.864 213.438 181.256 212.415H181.347V214H183.67V205.273H181.25V210.284ZM192.868 207.761C192.652 206.153 191.357 205.159 189.152 205.159C186.919 205.159 185.447 206.193 185.453 207.875C185.447 209.182 186.271 210.028 187.976 210.369L189.487 210.67C190.249 210.824 190.595 211.102 190.607 211.54C190.595 212.057 190.033 212.426 189.186 212.426C188.322 212.426 187.749 212.057 187.601 211.347L185.22 211.472C185.447 213.142 186.868 214.17 189.18 214.17C191.442 214.17 193.061 213.017 193.067 211.295C193.061 210.034 192.237 209.278 190.544 208.932L188.964 208.614C188.152 208.438 187.851 208.159 187.857 207.739C187.851 207.216 188.442 206.875 189.192 206.875C190.033 206.875 190.533 207.335 190.652 207.898L192.868 207.761ZM198.534 214.17C201.182 214.17 202.83 212.358 202.83 209.67C202.83 206.966 201.182 205.159 198.534 205.159C195.886 205.159 194.239 206.966 194.239 209.67C194.239 212.358 195.886 214.17 198.534 214.17ZM198.545 212.295C197.324 212.295 196.699 211.176 196.699 209.653C196.699 208.131 197.324 207.006 198.545 207.006C199.744 207.006 200.369 208.131 200.369 209.653C200.369 211.176 199.744 212.295 198.545 212.295ZM208.381 214.17C210.54 214.17 211.994 213.119 212.335 211.5L210.097 211.352C209.852 212.017 209.227 212.364 208.42 212.364C207.21 212.364 206.443 211.562 206.443 210.261V210.256H212.386V209.591C212.386 206.625 210.591 205.159 208.284 205.159C205.716 205.159 204.051 206.983 204.051 209.676C204.051 212.443 205.693 214.17 208.381 214.17ZM206.443 208.756C206.494 207.761 207.25 206.966 208.324 206.966C209.375 206.966 210.102 207.716 210.108 208.756H206.443Z" fill="#666666"/>
<path d="M85.2727 225.455H84.1818L82.375 230.67H82.3068L80.5 225.455H79.4091L81.8295 232H82.8523L85.2727 225.455ZM88.5263 232.153C89.6683 232.153 90.2649 231.54 90.4695 231.114H90.5206V232H91.5263V227.688C91.5263 225.608 89.9411 225.369 89.1058 225.369C88.1172 225.369 86.9922 225.71 86.4808 226.903L87.4354 227.244C87.657 226.767 88.1811 226.256 89.1399 226.256C90.0646 226.256 90.5206 226.746 90.5206 227.585V227.619C90.5206 228.105 90.0263 228.062 88.8331 228.216C87.6186 228.374 86.2933 228.642 86.2933 230.142C86.2933 231.42 87.282 232.153 88.5263 232.153ZM88.6797 231.25C87.8786 231.25 87.299 230.892 87.299 230.193C87.299 229.426 87.9979 229.188 88.782 229.085C89.2081 229.034 90.3501 228.915 90.5206 228.71V229.631C90.5206 230.449 89.8729 231.25 88.6797 231.25ZM94.3675 228.062C94.3675 226.92 95.0749 226.273 96.038 226.273C96.9712 226.273 97.538 226.882 97.538 227.909V232H98.5437V227.841C98.5437 226.17 97.6531 225.369 96.3278 225.369C95.3391 225.369 94.7255 225.812 94.4187 226.477H94.3335V225.455H93.3619V232H94.3675V228.062ZM106.586 232C109.245 232 110.745 230.347 110.745 227.619C110.745 224.909 109.245 223.273 106.705 223.273H103.893V232H106.586ZM104.95 231.062V224.21H106.637C108.683 224.21 109.722 225.506 109.722 227.619C109.722 229.75 108.683 231.062 106.518 231.062H104.95ZM114.308 232.153C115.45 232.153 116.046 231.54 116.251 231.114H116.302V232H117.308V227.688C117.308 225.608 115.722 225.369 114.887 225.369C113.898 225.369 112.773 225.71 112.262 226.903L113.217 227.244C113.438 226.767 113.962 226.256 114.921 226.256C115.846 226.256 116.302 226.746 116.302 227.585V227.619C116.302 228.105 115.808 228.062 114.614 228.216C113.4 228.374 112.075 228.642 112.075 230.142C112.075 231.42 113.063 232.153 114.308 232.153ZM114.461 231.25C113.66 231.25 113.08 230.892 113.08 230.193C113.08 229.426 113.779 229.188 114.563 229.085C114.989 229.034 116.131 228.915 116.302 228.71V229.631C116.302 230.449 115.654 231.25 114.461 231.25ZM120.149 228.062C120.149 226.92 120.856 226.273 121.819 226.273C122.752 226.273 123.319 226.882 123.319 227.909V232H124.325V227.841C124.325 226.17 123.434 225.369 122.109 225.369C121.12 225.369 120.507 225.812 120.2 226.477H120.115V225.455H119.143V232H120.149V228.062ZM126.163 232H127.168V225.455H126.163V232ZM126.674 224.364C127.066 224.364 127.39 224.057 127.39 223.682C127.39 223.307 127.066 223 126.674 223C126.282 223 125.958 223.307 125.958 223.682C125.958 224.057 126.282 224.364 126.674 224.364ZM131.755 232.136C133.084 232.136 134.056 231.472 134.363 230.483L133.391 230.21C133.135 230.892 132.543 231.233 131.755 231.233C130.574 231.233 129.76 230.47 129.713 229.068H134.465V228.642C134.465 226.205 133.016 225.369 131.652 225.369C129.88 225.369 128.703 226.767 128.703 228.778C128.703 230.79 129.863 232.136 131.755 232.136ZM129.713 228.199C129.782 227.18 130.502 226.273 131.652 226.273C132.743 226.273 133.442 227.091 133.442 228.199H129.713ZM137 223.273H135.995V232H137V223.273ZM145.047 232C147.706 232 149.206 230.347 149.206 227.619C149.206 224.909 147.706 223.273 145.166 223.273H142.354V232H145.047ZM143.411 231.062V224.21H145.098C147.143 224.21 148.183 225.506 148.183 227.619C148.183 229.75 147.143 231.062 144.979 231.062H143.411ZM153.587 232.136C154.916 232.136 155.888 231.472 156.195 230.483L155.223 230.21C154.967 230.892 154.375 231.233 153.587 231.233C152.406 231.233 151.592 230.47 151.545 229.068H156.297V228.642C156.297 226.205 154.848 225.369 153.484 225.369C151.712 225.369 150.536 226.767 150.536 228.778C150.536 230.79 151.695 232.136 153.587 232.136ZM151.545 228.199C151.614 227.18 152.334 226.273 153.484 226.273C154.575 226.273 155.274 227.091 155.274 228.199H151.545ZM160.741 225.455H159.276V224.79C159.276 224.142 159.548 223.801 160.213 223.801C160.503 223.801 160.673 223.869 160.776 223.903L161.065 223.034C160.912 222.966 160.605 222.864 160.111 222.864C159.173 222.864 158.27 223.426 158.27 224.551V225.455H157.213V226.307H158.27V232H159.276V226.307H160.741V225.455ZM164.54 232.136C166.313 232.136 167.506 230.79 167.506 228.761C167.506 226.716 166.313 225.369 164.54 225.369C162.768 225.369 161.575 226.716 161.575 228.761C161.575 230.79 162.768 232.136 164.54 232.136ZM164.54 231.233C163.194 231.233 162.58 230.074 162.58 228.761C162.58 227.449 163.194 226.273 164.54 226.273C165.887 226.273 166.501 227.449 166.501 228.761C166.501 230.074 165.887 231.233 164.54 231.233ZM171.786 232.136C173.115 232.136 174.087 231.472 174.394 230.483L173.422 230.21C173.167 230.892 172.574 231.233 171.786 231.233C170.605 231.233 169.792 230.47 169.745 229.068H174.496V228.642C174.496 226.205 173.047 225.369 171.684 225.369C169.911 225.369 168.735 226.767 168.735 228.778C168.735 230.79 169.894 232.136 171.786 232.136ZM169.745 228.199C169.813 227.18 170.533 226.273 171.684 226.273C172.775 226.273 173.473 227.091 173.473 228.199H169.745Z" fill="black"/>
<path d="M102.836 234.386H175.11V235.205H102.836V234.386Z" fill="black"/>
<circle cx="40" cy="288" r="23.5" fill="white" stroke="black"/>
<mask id="mask0" mask-type="alpha" maskUnits="userSpaceOnUse" x="16" y="264" width="48" height="48">
<circle cx="40" cy="288" r="24" fill="#C4C4C4"/>
</mask>
<g mask="url(#mask0)">
<path d="M17 265L63 311" stroke="black" stroke-linecap="round"/>
<path d="M63 265L17 311" stroke="black" stroke-linecap="round"/>
</g>
<path d="M80.0114 294H82.4716V289.875H84.267L86.4716 294H89.1875L86.7159 289.477C88.0398 288.909 88.7727 287.756 88.7727 286.165C88.7727 283.852 87.2443 282.364 84.6023 282.364H80.0114V294ZM82.4716 287.898V284.375H84.1307C85.5511 284.375 86.2386 285.006 86.2386 286.165C86.2386 287.318 85.5511 287.898 84.142 287.898H82.4716ZM94.2685 294.17C96.9162 294.17 98.5639 292.358 98.5639 289.67C98.5639 286.966 96.9162 285.159 94.2685 285.159C91.6207 285.159 89.973 286.966 89.973 289.67C89.973 292.358 91.6207 294.17 94.2685 294.17ZM94.2798 292.295C93.0582 292.295 92.4332 291.176 92.4332 289.653C92.4332 288.131 93.0582 287.006 94.2798 287.006C95.4787 287.006 96.1037 288.131 96.1037 289.653C96.1037 291.176 95.4787 292.295 94.2798 292.295ZM100.183 294H102.57V292.602H102.678C103.013 293.33 103.746 294.142 105.155 294.142C107.143 294.142 108.695 292.568 108.695 289.648C108.695 286.648 107.075 285.159 105.161 285.159C103.7 285.159 103.001 286.028 102.678 286.739H102.604V282.364H100.183V294ZM102.553 289.636C102.553 288.08 103.212 287.085 104.388 287.085C105.587 287.085 106.223 288.125 106.223 289.636C106.223 291.159 105.575 292.216 104.388 292.216C103.223 292.216 102.553 291.193 102.553 289.636Z" fill="black"/>
<path d="M114.287 294.17C116.446 294.17 117.901 293.119 118.241 291.5L116.003 291.352C115.759 292.017 115.134 292.364 114.327 292.364C113.116 292.364 112.349 291.562 112.349 290.261V290.256H118.293V289.591C118.293 286.625 116.497 285.159 114.19 285.159C111.622 285.159 109.957 286.983 109.957 289.676C109.957 292.443 111.599 294.17 114.287 294.17ZM112.349 288.756C112.401 287.761 113.156 286.966 114.23 286.966C115.281 286.966 116.009 287.716 116.014 288.756H112.349ZM119.872 294H122.293V289.062C122.293 287.989 123.077 287.25 124.145 287.25C124.48 287.25 124.94 287.307 125.168 287.381V285.233C124.952 285.182 124.651 285.148 124.406 285.148C123.429 285.148 122.628 285.716 122.31 286.795H122.219V285.273H119.872V294ZM131.608 285.273H129.966V283.182H127.545V285.273H126.352V287.091H127.545V291.636C127.534 293.347 128.699 294.193 130.455 294.119C131.08 294.097 131.523 293.972 131.767 293.892L131.386 292.091C131.267 292.114 131.011 292.17 130.784 292.17C130.301 292.17 129.966 291.989 129.966 291.318V287.091H131.608V285.273ZM136.933 294H141.905C144.518 294 145.911 292.636 145.911 290.784C145.911 289.062 144.678 288.023 143.354 287.96V287.847C144.564 287.574 145.456 286.716 145.456 285.347C145.456 283.602 144.161 282.364 141.592 282.364H136.933V294ZM139.393 291.989V288.898H141.456C142.638 288.898 143.371 289.58 143.371 290.54C143.371 291.415 142.774 291.989 141.399 291.989H139.393ZM139.393 287.233V284.352H141.263C142.354 284.352 142.973 284.915 142.973 285.756C142.973 286.676 142.223 287.233 141.217 287.233H139.393ZM153.062 290.284C153.068 291.455 152.267 292.068 151.398 292.068C150.483 292.068 149.892 291.426 149.886 290.398V285.273H147.466V290.83C147.472 292.869 148.665 294.114 150.42 294.114C151.733 294.114 152.676 293.438 153.068 292.415H153.159V294H155.483V285.273H153.062V290.284ZM162.061 285.273H160.419V283.182H157.999V285.273H156.805V287.091H157.999V291.636C157.987 293.347 159.152 294.193 160.908 294.119C161.533 294.097 161.976 293.972 162.22 293.892L161.839 292.091C161.72 292.114 161.464 292.17 161.237 292.17C160.754 292.17 160.419 291.989 160.419 291.318V287.091H162.061V285.273ZM166.246 282.364H163.825V294H166.246V282.364ZM172.162 294.17C174.321 294.17 175.776 293.119 176.116 291.5L173.878 291.352C173.634 292.017 173.009 292.364 172.202 292.364C170.991 292.364 170.224 291.562 170.224 290.261V290.256H176.168V289.591C176.168 286.625 174.372 285.159 172.065 285.159C169.497 285.159 167.832 286.983 167.832 289.676C167.832 292.443 169.474 294.17 172.162 294.17ZM170.224 288.756C170.276 287.761 171.031 286.966 172.105 286.966C173.156 286.966 173.884 287.716 173.889 288.756H170.224ZM177.747 294H180.168V289.062C180.173 287.994 180.946 287.261 181.923 287.261C182.253 287.261 182.52 287.352 182.747 287.466L183.474 285.466C183.156 285.273 182.747 285.148 182.281 285.148C181.298 285.148 180.503 285.716 180.185 286.795H180.094V285.273H177.747V294Z" fill="#666666"/>
<rect x="44.5" y="336.5" width="35" height="47" fill="white" stroke="black"/>
<path d="M45 337L79 383" stroke="black" stroke-linecap="round"/>
<path d="M79 337L45 383" stroke="black" stroke-linecap="round"/>
<rect x="30.5" y="332.5" width="41" height="55" fill="white" stroke="black"/>
<path d="M31 333L71 387" stroke="black" stroke-linecap="round"/>
<path d="M71 333L31 387" stroke="black" stroke-linecap="round"/>
<rect x="16.5" y="328.5" width="47" height="63" fill="white" stroke="black"/>
<path d="M17 329L63 391" stroke="black" stroke-linecap="round"/>
<path d="M63 329L17 391" stroke="black" stroke-linecap="round"/>
<path d="M96.0114 346.364V358H98.3977V350.398H98.4943L101.506 357.943H103.131L106.142 350.426H106.239V358H108.625V346.364H105.591L102.386 354.182H102.25L99.0455 346.364H96.0114ZM110.747 358H113.168V349.273H110.747V358ZM111.963 348.148C112.685 348.148 113.276 347.597 113.276 346.92C113.276 346.25 112.685 345.699 111.963 345.699C111.247 345.699 110.656 346.25 110.656 346.92C110.656 347.597 111.247 348.148 111.963 348.148ZM115.107 349.273V358.364C115.107 359.023 114.828 359.352 114.05 359.352C113.947 359.352 113.857 359.352 113.732 359.341V361.233C113.919 361.244 114.05 361.244 114.18 361.244C116.277 361.301 117.527 360.426 117.527 358.403V349.273H115.107ZM116.311 348.148C117.033 348.148 117.624 347.597 117.624 346.92C117.624 346.25 117.033 345.699 116.311 345.699C115.595 345.699 115.004 346.25 115.004 346.92C115.004 347.597 115.595 348.148 116.311 348.148ZM121.886 352.955C121.892 351.83 122.562 351.17 123.54 351.17C124.511 351.17 125.097 351.807 125.091 352.875V358H127.511V352.443C127.511 350.409 126.318 349.159 124.5 349.159C123.205 349.159 122.267 349.795 121.875 350.812H121.773V349.273H119.466V358H121.886V352.955ZM159.56 358H161.98V349.273H159.56V358ZM160.776 348.148C161.497 348.148 162.088 347.597 162.088 346.92C162.088 346.25 161.497 345.699 160.776 345.699C160.06 345.699 159.469 346.25 159.469 346.92C159.469 347.597 160.06 348.148 160.776 348.148ZM163.919 349.273V358.364C163.919 359.023 163.641 359.352 162.862 359.352C162.76 359.352 162.669 359.352 162.544 359.341V361.233C162.732 361.244 162.862 361.244 162.993 361.244C165.089 361.301 166.339 360.426 166.339 358.403V349.273H163.919ZM165.124 348.148C165.845 348.148 166.436 347.597 166.436 346.92C166.436 346.25 165.845 345.699 165.124 345.699C164.408 345.699 163.817 346.25 163.817 346.92C163.817 347.597 164.408 348.148 165.124 348.148ZM170.699 352.955C170.705 351.83 171.375 351.17 172.352 351.17C173.324 351.17 173.909 351.807 173.903 352.875V358H176.324V352.443C176.324 350.409 175.131 349.159 173.312 349.159C172.017 349.159 171.08 349.795 170.688 350.812H170.585V349.273H168.278V358H170.699V352.955ZM182.874 349.273H181.232V347.182H178.811V349.273H177.618V351.091H178.811V355.636C178.8 357.347 179.964 358.193 181.72 358.119C182.345 358.097 182.788 357.972 183.033 357.892L182.652 356.091C182.533 356.114 182.277 356.17 182.05 356.17C181.567 356.17 181.232 355.989 181.232 355.318V351.091H182.874V349.273ZM184.45 349.273V358.364C184.45 359.023 184.172 359.352 183.393 359.352C183.291 359.352 183.2 359.352 183.075 359.341V361.233C183.263 361.244 183.393 361.244 183.524 361.244C185.621 361.301 186.871 360.426 186.871 358.403V349.273H184.45ZM185.655 348.148C186.376 348.148 186.967 347.597 186.967 346.92C186.967 346.25 186.376 345.699 185.655 345.699C184.939 345.699 184.348 346.25 184.348 346.92C184.348 347.597 184.939 348.148 185.655 348.148ZM192.787 358.17C194.946 358.17 196.401 357.119 196.741 355.5L194.503 355.352C194.259 356.017 193.634 356.364 192.827 356.364C191.616 356.364 190.849 355.562 190.849 354.261V354.256H196.793V353.591C196.793 350.625 194.997 349.159 192.69 349.159C190.122 349.159 188.457 350.983 188.457 353.676C188.457 356.443 190.099 358.17 192.787 358.17ZM190.849 352.756C190.901 351.761 191.656 350.966 192.73 350.966C193.781 350.966 194.509 351.716 194.514 352.756H190.849ZM205.634 351.761C205.418 350.153 204.122 349.159 201.918 349.159C199.685 349.159 198.213 350.193 198.219 351.875C198.213 353.182 199.037 354.028 200.741 354.369L202.253 354.67C203.014 354.824 203.361 355.102 203.372 355.54C203.361 356.057 202.798 356.426 201.952 356.426C201.088 356.426 200.514 356.057 200.366 355.347L197.986 355.472C198.213 357.142 199.634 358.17 201.946 358.17C204.207 358.17 205.827 357.017 205.832 355.295C205.827 354.034 205.003 353.278 203.31 352.932L201.73 352.614C200.918 352.438 200.616 352.159 200.622 351.739C200.616 351.216 201.207 350.875 201.957 350.875C202.798 350.875 203.298 351.335 203.418 351.898L205.634 351.761Z" fill="#666666"/>
<path d="M133.122 358H135.543V353.062C135.548 351.994 136.321 351.261 137.298 351.261C137.628 351.261 137.895 351.352 138.122 351.466L138.849 349.466C138.531 349.273 138.122 349.148 137.656 349.148C136.673 349.148 135.878 349.716 135.56 350.795H135.469V349.273H133.122V358ZM143.518 358.17C146.166 358.17 147.814 356.358 147.814 353.67C147.814 350.966 146.166 349.159 143.518 349.159C140.871 349.159 139.223 350.966 139.223 353.67C139.223 356.358 140.871 358.17 143.518 358.17ZM143.53 356.295C142.308 356.295 141.683 355.176 141.683 353.653C141.683 352.131 142.308 351.006 143.53 351.006C144.729 351.006 145.354 352.131 145.354 353.653C145.354 355.176 144.729 356.295 143.53 356.295ZM149.433 358H151.82V356.602H151.928C152.263 357.33 152.996 358.142 154.405 358.142C156.393 358.142 157.945 356.568 157.945 353.648C157.945 350.648 156.325 349.159 154.411 349.159C152.95 349.159 152.251 350.028 151.928 350.739H151.854V346.364H149.433V358ZM151.803 353.636C151.803 352.08 152.462 351.085 153.638 351.085C154.837 351.085 155.473 352.125 155.473 353.636C155.473 355.159 154.825 356.216 153.638 356.216C152.473 356.216 151.803 355.193 151.803 353.636Z" fill="black"/>
<path d="M95.9034 376H101.409V375.062H97.3523V374.994L99.3125 372.898C100.812 371.291 101.256 370.541 101.256 369.574C101.256 368.227 100.165 367.153 98.6307 367.153C97.1009 367.153 95.9375 368.193 95.9375 369.727H96.9432C96.9432 368.734 97.5866 368.074 98.5966 368.074C99.5426 368.074 100.267 368.653 100.267 369.574C100.267 370.379 99.794 370.976 98.7841 372.08L95.9034 375.233V376ZM102.777 374.21H106.885V376H107.891V374.21H109.084V373.273H107.891V367.273H106.612L102.777 373.341V374.21ZM106.885 373.273H103.919V373.205L106.817 368.619H106.885V373.273ZM114.209 376H115.181V374.994H115.3C115.522 375.352 115.948 376.136 117.209 376.136C118.846 376.136 119.988 374.824 119.988 372.744C119.988 370.682 118.846 369.369 117.192 369.369C115.914 369.369 115.522 370.153 115.3 370.494H115.215V367.273H114.209V376ZM115.198 372.727C115.198 371.261 115.846 370.273 117.073 370.273C118.351 370.273 118.982 371.347 118.982 372.727C118.982 374.125 118.334 375.233 117.073 375.233C115.863 375.233 115.198 374.21 115.198 372.727ZM124.185 376.136C125.958 376.136 127.151 374.79 127.151 372.761C127.151 370.716 125.958 369.369 124.185 369.369C122.412 369.369 121.219 370.716 121.219 372.761C121.219 374.79 122.412 376.136 124.185 376.136ZM124.185 375.233C122.838 375.233 122.225 374.074 122.225 372.761C122.225 371.449 122.838 370.273 124.185 370.273C125.532 370.273 126.145 371.449 126.145 372.761C126.145 374.074 125.532 375.233 124.185 375.233ZM131.43 376.136C132.76 376.136 133.732 375.472 134.038 374.483L133.067 374.21C132.811 374.892 132.219 375.233 131.43 375.233C130.25 375.233 129.436 374.47 129.389 373.068H134.141V372.642C134.141 370.205 132.692 369.369 131.328 369.369C129.555 369.369 128.379 370.767 128.379 372.778C128.379 374.79 129.538 376.136 131.43 376.136ZM129.389 372.199C129.457 371.18 130.178 370.273 131.328 370.273C132.419 370.273 133.118 371.091 133.118 372.199H129.389ZM135.67 376H136.676V373.55L137.379 372.898L139.83 376H141.108L138.138 372.25L140.903 369.455H139.659L136.795 372.369H136.676V367.273H135.67V376ZM144.673 376.136C146.002 376.136 146.974 375.472 147.281 374.483L146.309 374.21C146.053 374.892 145.461 375.233 144.673 375.233C143.492 375.233 142.678 374.47 142.631 373.068H147.383V372.642C147.383 370.205 145.934 369.369 144.57 369.369C142.798 369.369 141.621 370.767 141.621 372.778C141.621 374.79 142.781 376.136 144.673 376.136ZM142.631 372.199C142.7 371.18 143.42 370.273 144.57 370.273C145.661 370.273 146.36 371.091 146.36 372.199H142.631ZM149.918 372.062C149.918 370.92 150.626 370.273 151.589 370.273C152.522 370.273 153.089 370.882 153.089 371.909V376H154.094V371.841C154.094 370.17 153.204 369.369 151.879 369.369C150.89 369.369 150.276 369.812 149.969 370.477H149.884V369.455H148.913V376H149.918V372.062Z" fill="black"/>
<circle cx="40" cy="432" r="23.5" fill="white" stroke="black"/>
<mask id="mask1" mask-type="alpha" maskUnits="userSpaceOnUse" x="16" y="408" width="48" height="48">
<circle cx="40" cy="432" r="24" fill="#C4C4C4"/>
</mask>
<g mask="url(#mask1)">
<path d="M17 409L63 455" stroke="black" stroke-linecap="round"/>
<path d="M63 409L17 455" stroke="black" stroke-linecap="round"/>
</g>
<path d="M80.0114 438H82.4716V433.875H84.267L86.4716 438H89.1875L86.7159 433.477C88.0398 432.909 88.7727 431.756 88.7727 430.165C88.7727 427.852 87.2443 426.364 84.6023 426.364H80.0114V438ZM82.4716 431.898V428.375H84.1307C85.5511 428.375 86.2386 429.006 86.2386 430.165C86.2386 431.318 85.5511 431.898 84.142 431.898H82.4716ZM94.2685 438.17C96.9162 438.17 98.5639 436.358 98.5639 433.67C98.5639 430.966 96.9162 429.159 94.2685 429.159C91.6207 429.159 89.973 430.966 89.973 433.67C89.973 436.358 91.6207 438.17 94.2685 438.17ZM94.2798 436.295C93.0582 436.295 92.4332 435.176 92.4332 433.653C92.4332 432.131 93.0582 431.006 94.2798 431.006C95.4787 431.006 96.1037 432.131 96.1037 433.653C96.1037 435.176 95.4787 436.295 94.2798 436.295ZM100.183 438H102.57V436.602H102.678C103.013 437.33 103.746 438.142 105.155 438.142C107.143 438.142 108.695 436.568 108.695 433.648C108.695 430.648 107.075 429.159 105.161 429.159C103.7 429.159 103.001 430.028 102.678 430.739H102.604V426.364H100.183V438ZM102.553 433.636C102.553 432.08 103.212 431.085 104.388 431.085C105.587 431.085 106.223 432.125 106.223 433.636C106.223 435.159 105.575 436.216 104.388 436.216C103.223 436.216 102.553 435.193 102.553 433.636Z" fill="black"/>
<path d="M110.31 438H112.73V429.273H110.31V438ZM111.526 428.148C112.247 428.148 112.838 427.597 112.838 426.92C112.838 426.25 112.247 425.699 111.526 425.699C110.81 425.699 110.219 426.25 110.219 426.92C110.219 427.597 110.81 428.148 111.526 428.148ZM117.089 432.955C117.095 431.83 117.766 431.17 118.743 431.17C119.714 431.17 120.3 431.807 120.294 432.875V438H122.714V432.443C122.714 430.409 121.521 429.159 119.703 429.159C118.408 429.159 117.47 429.795 117.078 430.812H116.976V429.273H114.669V438H117.089V432.955ZM128.371 438H130.831V433.193H135.825V438H138.28V426.364H135.825V431.165H130.831V426.364H128.371V438ZM144.206 438.17C146.854 438.17 148.501 436.358 148.501 433.67C148.501 430.966 146.854 429.159 144.206 429.159C141.558 429.159 139.911 430.966 139.911 433.67C139.911 436.358 141.558 438.17 144.206 438.17ZM144.217 436.295C142.996 436.295 142.371 435.176 142.371 433.653C142.371 432.131 142.996 431.006 144.217 431.006C145.416 431.006 146.041 432.131 146.041 433.653C146.041 435.176 145.416 436.295 144.217 436.295ZM150.121 438H152.507V436.602H152.615C152.95 437.33 153.683 438.142 155.092 438.142C157.081 438.142 158.632 436.568 158.632 433.648C158.632 430.648 157.013 429.159 155.098 429.159C153.638 429.159 152.939 430.028 152.615 430.739H152.541V426.364H150.121V438ZM152.49 433.636C152.49 432.08 153.149 431.085 154.325 431.085C155.524 431.085 156.161 432.125 156.161 433.636C156.161 435.159 155.513 436.216 154.325 436.216C153.161 436.216 152.49 435.193 152.49 433.636ZM160.293 438H162.679V436.602H162.787C163.122 437.33 163.855 438.142 165.264 438.142C167.253 438.142 168.804 436.568 168.804 433.648C168.804 430.648 167.185 429.159 165.27 429.159C163.81 429.159 163.111 430.028 162.787 430.739H162.713V426.364H160.293V438ZM162.662 433.636C162.662 432.08 163.321 431.085 164.497 431.085C165.696 431.085 166.332 432.125 166.332 433.636C166.332 435.159 165.685 436.216 164.497 436.216C163.332 436.216 162.662 435.193 162.662 433.636Z" fill="#666666"/>
<path d="M0 696H376V752H0V696Z" fill="white"/>
<path d="M47 721L56 714L65 721V732C65 732.53 64.7893 733.039 64.4142 733.414C64.0391 733.789 63.5304 734 63 734H49C48.4696 734 47.9609 733.789 47.5858 733.414C47.2107 733.039 47 732.53 47 732V721Z" stroke="black" stroke-width="1.6" stroke-linecap="round" stroke-linejoin="round"/>
<path d="M53 734V724H59V734" stroke="black" stroke-width="1.6" stroke-linecap="round" stroke-linejoin="round"/>
<path d="M143 723C147.418 723 151 719.418 151 715C151 710.582 147.418 707 143 707C138.582 707 135 710.582 135 715C135 719.418 138.582 723 143 723Z" stroke="black" stroke-width="1.6" stroke-linecap="round" stroke-linejoin="round"/>
<path d="M153 725L148.65 720.65" stroke="black" stroke-width="1.6" stroke-linecap="round" stroke-linejoin="round"/>
<path d="M130.056 742H134.363V741.116H131.365L134.346 736.838V736.182H130.039V737.065H133.039L130.056 741.344V742ZM137.24 742.085C138.519 742.085 139.331 741.185 139.331 739.835C139.331 738.483 138.519 737.58 137.24 737.58C135.962 737.58 135.15 738.483 135.15 739.835C135.15 741.185 135.962 742.085 137.24 742.085ZM137.246 741.261C136.539 741.261 136.192 740.631 136.192 739.832C136.192 739.034 136.539 738.395 137.246 738.395C137.942 738.395 138.289 739.034 138.289 739.832C138.289 740.631 137.942 741.261 137.246 741.261ZM142.136 742.085C143.153 742.085 143.852 741.588 144.034 740.83L143.074 740.722C142.934 741.091 142.593 741.284 142.15 741.284C141.485 741.284 141.045 740.847 141.037 740.099H144.076V739.784C144.076 738.253 143.156 737.58 142.082 737.58C140.832 737.58 140.017 738.497 140.017 739.844C140.017 741.213 140.821 742.085 142.136 742.085ZM141.039 739.406C141.071 738.849 141.483 738.381 142.096 738.381C142.687 738.381 143.085 738.812 143.091 739.406H141.039ZM144.946 742H145.975V740.534L146.35 740.134L147.685 742H148.915L147.125 739.52L148.816 737.636H147.614L146.046 739.389H145.975V736.182H144.946V742ZM151.253 742.085C152.27 742.085 152.969 741.588 153.151 740.83L152.191 740.722C152.051 741.091 151.711 741.284 151.267 741.284C150.603 741.284 150.162 740.847 150.154 740.099H153.194V739.784C153.194 738.253 152.273 737.58 151.199 737.58C149.949 737.58 149.134 738.497 149.134 739.844C149.134 741.213 149.938 742.085 151.253 742.085ZM150.157 739.406C150.188 738.849 150.6 738.381 151.213 738.381C151.804 738.381 152.202 738.812 152.208 739.406H150.157ZM155.092 739.443C155.092 738.812 155.473 738.449 156.015 738.449C156.547 738.449 156.865 738.798 156.865 739.381V742H157.893V739.222C157.896 738.176 157.299 737.58 156.399 737.58C155.745 737.58 155.297 737.892 155.098 738.378H155.047V737.636H154.064V742H155.092V739.443Z" fill="black"/>
<path d="M240 733V731C240 729.939 239.579 728.922 238.828 728.172C238.078 727.421 237.061 727 236 727H228C226.939 727 225.922 727.421 225.172 728.172C224.421 728.922 224 729.939 224 731V733" stroke="black" stroke-width="1.6" stroke-linecap="round" stroke-linejoin="round"/>
<path d="M232 723C234.209 723 236 721.209 236 719C236 716.791 234.209 715 232 715C229.791 715 228 716.791 228 719C228 721.209 229.791 723 232 723Z" stroke="black" stroke-width="1.6" stroke-linecap="round" stroke-linejoin="round"/>
<path d="M320 727C321.657 727 323 725.657 323 724C323 722.343 321.657 721 320 721C318.343 721 317 722.343 317 724C317 725.657 318.343 727 320 727Z" stroke="black" stroke-width="1.6" stroke-linecap="round" stroke-linejoin="round"/>
<path d="M327.4 727C327.267 727.302 327.227 727.636 327.286 727.961C327.345 728.285 327.499 728.584 327.73 728.82L327.79 728.88C327.976 729.066 328.123 729.286 328.224 729.529C328.325 729.772 328.377 730.032 328.377 730.295C328.377 730.558 328.325 730.818 328.224 731.061C328.123 731.304 327.976 731.524 327.79 731.71C327.604 731.896 327.384 732.043 327.141 732.144C326.898 732.245 326.638 732.297 326.375 732.297C326.112 732.297 325.852 732.245 325.609 732.144C325.366 732.043 325.146 731.896 324.96 731.71L324.9 731.65C324.664 731.419 324.365 731.265 324.041 731.206C323.716 731.147 323.382 731.187 323.08 731.32C322.784 731.447 322.532 731.657 322.354 731.926C322.177 732.194 322.081 732.508 322.08 732.83V733C322.08 733.53 321.869 734.039 321.494 734.414C321.119 734.789 320.61 735 320.08 735C319.55 735 319.041 734.789 318.666 734.414C318.291 734.039 318.08 733.53 318.08 733V732.91C318.072 732.579 317.965 732.258 317.773 731.989C317.58 731.719 317.311 731.514 317 731.4C316.698 731.267 316.364 731.227 316.039 731.286C315.715 731.345 315.416 731.499 315.18 731.73L315.12 731.79C314.934 731.976 314.714 732.123 314.471 732.224C314.228 732.325 313.968 732.377 313.705 732.377C313.442 732.377 313.182 732.325 312.939 732.224C312.696 732.123 312.476 731.976 312.29 731.79C312.104 731.604 311.957 731.384 311.856 731.141C311.755 730.898 311.703 730.638 311.703 730.375C311.703 730.112 311.755 729.852 311.856 729.609C311.957 729.366 312.104 729.146 312.29 728.96L312.35 728.9C312.581 728.664 312.735 728.365 312.794 728.041C312.853 727.716 312.813 727.382 312.68 727.08C312.553 726.784 312.343 726.532 312.074 726.354C311.806 726.177 311.492 726.081 311.17 726.08H311C310.47 726.08 309.961 725.869 309.586 725.494C309.211 725.119 309 724.61 309 724.08C309 723.55 309.211 723.041 309.586 722.666C309.961 722.291 310.47 722.08 311 722.08H311.09C311.421 722.072 311.742 721.965 312.011 721.773C312.281 721.58 312.486 721.311 312.6 721C312.733 720.698 312.773 720.364 312.714 720.039C312.655 719.715 312.501 719.416 312.27 719.18L312.21 719.12C312.024 718.934 311.877 718.714 311.776 718.471C311.675 718.228 311.623 717.968 311.623 717.705C311.623 717.442 311.675 717.182 311.776 716.939C311.877 716.696 312.024 716.476 312.21 716.29C312.396 716.104 312.616 715.957 312.859 715.856C313.102 715.755 313.362 715.703 313.625 715.703C313.888 715.703 314.148 715.755 314.391 715.856C314.634 715.957 314.854 716.104 315.04 716.29L315.1 716.35C315.336 716.581 315.635 716.735 315.959 716.794C316.284 716.853 316.618 716.813 316.92 716.68H317C317.296 716.553 317.548 716.343 317.726 716.074C317.903 715.806 317.999 715.492 318 715.17V715C318 714.47 318.211 713.961 318.586 713.586C318.961 713.211 319.47 713 320 713C320.53 713 321.039 713.211 321.414 713.586C321.789 713.961 322 714.47 322 715V715.09C322.001 715.412 322.097 715.726 322.274 715.994C322.452 716.263 322.704 716.473 323 716.6C323.302 716.733 323.636 716.773 323.961 716.714C324.285 716.655 324.584 716.501 324.82 716.27L324.88 716.21C325.066 716.024 325.286 715.877 325.529 715.776C325.772 715.675 326.032 715.623 326.295 715.623C326.558 715.623 326.818 715.675 327.061 715.776C327.304 715.877 327.524 716.024 327.71 716.21C327.896 716.396 328.043 716.616 328.144 716.859C328.245 717.102 328.297 717.362 328.297 717.625C328.297 717.888 328.245 718.148 328.144 718.391C328.043 718.634 327.896 718.854 327.71 719.04L327.65 719.1C327.419 719.336 327.265 719.635 327.206 719.959C327.147 720.284 327.187 720.618 327.32 720.92V721C327.447 721.296 327.657 721.548 327.926 721.726C328.194 721.903 328.508 721.999 328.83 722H329C329.53 722 330.039 722.211 330.414 722.586C330.789 722.961 331 723.47 331 724C331 724.53 330.789 725.039 330.414 725.414C330.039 725.789 329.53 726 329 726H328.91C328.588 726.001 328.274 726.097 328.006 726.274C327.737 726.452 327.527 726.704 327.4 727V727Z" stroke="black" stroke-width="1.6" stroke-linecap="round" stroke-linejoin="round"/>
<path d="M0 696V695H-1V696H0ZM376 696H377V695H376V696ZM376 752V753H377V752H376ZM0 752H-1V753H0V752ZM0 697H376V695H0V697ZM375 696V752H377V696H375ZM376 751H0V753H376V751ZM1 752V696H-1V752H1Z" fill="black"/>
</g>
<defs>
<clipPath id="clip0">
<rect width="376" height="752" fill="white"/>
</clipPath>
</defs>
</svg>
