<svg width="169" height="198" viewBox="0 0 169 198" fill="none" xmlns="http://www.w3.org/2000/svg">
<path d="M127.287 86.8912C144.228 83.3882 158.766 62.9593 158.766 40.3649C158.766 16.4171 127.51 0.0166016 93.3392 0.0166016H18.5659L0 18.5826V125.138C11.544 118.195 23.4861 120.711 31.3042 128.529C40.2528 137.478 40.6827 148.974 35.3485 157.079C44.0901 150.694 57.4971 151.968 66.4457 160.916C76.3815 170.852 78.2445 185.135 67.4807 198H97.3677C141.697 198 168.128 173.798 168.128 132.828C168.128 110.218 147.763 97.2888 127.287 86.8912Z" fill="#FBFAFF"/>
<path d="M133.703 86.8905C150.645 83.3875 164.641 68.3246 164.641 45.7302C164.641 21.7823 147.158 0 112.988 0H18.5659V106.555C30.1099 99.6128 42.052 102.129 49.8701 109.947C58.8187 118.895 59.2486 130.392 53.9145 138.496C62.6561 132.111 76.063 133.385 85.0116 142.334C94.9474 152.269 96.8104 166.552 86.0466 179.418H115.934C150.088 179.418 168.113 157.906 168.113 130.997C168.128 108.402 152.795 89.8522 133.703 86.8905Z" fill="#FF6DA1"/>
</svg>
