<svg width="608" height="108" viewBox="0 0 608 108" fill="none" xmlns="http://www.w3.org/2000/svg">
<g clip-path="url(#clip0)">
<path d="M100.956 68.5359C100.956 47.8137 115.482 30.2598 139.529 30.2598C163.734 30.2598 178.261 47.8054 178.261 68.5359C178.261 89.4152 163.734 106.961 139.529 106.961C115.482 106.961 100.956 89.4152 100.956 68.5359ZM158.291 68.5359C158.291 57.1862 151.483 47.3587 139.538 47.3587C127.584 47.3587 120.925 57.1945 120.925 68.5359C120.925 80.0344 127.584 89.8702 139.538 89.8702C151.483 89.8702 158.291 80.0344 158.291 68.5359Z" fill="#FF6DA1"/>
<path d="M187.782 68.5359C187.782 47.8137 202.308 30.2598 226.356 30.2598C250.561 30.2598 265.087 47.8054 265.087 68.5359C265.087 89.4152 250.561 106.961 226.356 106.961C202.308 106.961 187.782 89.4152 187.782 68.5359ZM245.118 68.5359C245.118 57.1862 238.309 47.3587 226.364 47.3587C214.411 47.3587 207.751 57.1945 207.751 68.5359C207.751 80.0344 214.411 89.8702 226.364 89.8702C238.309 89.8702 245.118 80.0344 245.118 68.5359Z" fill="#FF6DA1"/>
<path d="M307.284 78.6619L298.507 88.0427V106.796H279.291V5.89844H298.507V66.2617L326.195 33.7348H349.796L320.9 66.8655L350.706 106.804H326.65L307.284 78.6619Z" fill="#FF6DA1"/>
<path d="M360.227 4.24414H379.435V41.4614C385.185 34.0494 393.358 30.2689 401.978 30.2689C420.582 30.2689 434.347 44.7951 434.347 68.6939C434.347 93.0559 420.433 106.97 401.978 106.97C393.201 106.97 385.185 103.041 379.435 95.7775V105.158H360.227V4.24414ZM395.922 89.8711C407.115 89.8711 414.535 81.4002 414.535 68.6939C414.535 55.9876 407.123 47.3595 395.922 47.3595C389.718 47.3595 382.612 50.9911 379.435 55.8304V81.698C382.612 86.3884 389.726 89.8711 395.922 89.8711Z" fill="#FF6DA1"/>
<path d="M446.896 11.4985C446.896 5.14539 452.191 0 458.395 0C464.748 0 469.894 5.14539 469.894 11.4985C469.894 17.8517 464.748 22.9971 458.395 22.9971C452.191 22.9888 446.896 17.8517 446.896 11.4985ZM448.865 33.7346H468.074V106.804H448.865V33.7346Z" fill="#FF6DA1"/>
<path d="M490.913 86.9915V48.8726H478.811V32.0798H490.913V12.1104H510.279V32.0798H525.103V48.8726H510.279V81.8544C510.279 86.3959 512.695 89.8703 516.93 89.8703C519.8 89.8703 522.53 88.8114 523.589 87.7526L527.676 102.279C524.805 104.851 519.66 106.969 511.644 106.969C498.177 106.961 490.913 100.004 490.913 86.9915Z" fill="#FF6DA1"/>
<path d="M571.395 30.2686C593.184 30.2686 608.008 46.6064 608.008 70.5052V74.7406H553.7C554.908 83.9643 562.32 91.6824 574.729 91.6824C581.537 91.6824 589.553 88.9608 594.243 84.4193L602.714 96.8195C595.451 103.479 583.952 106.953 572.611 106.953C550.375 106.953 533.582 91.9719 533.582 68.5281C533.574 47.3592 549.151 30.2686 571.395 30.2686ZM553.394 61.7282H589.395C588.94 54.7712 584.101 45.5393 571.395 45.5393C559.441 45.5393 554.296 54.4734 553.394 61.7282Z" fill="#FF6DA1"/>
<path d="M66.129 49.3194C74.9308 47.4995 82.4834 36.8861 82.4834 25.1476C82.4834 12.7061 66.2448 4.18555 48.4924 4.18555H9.64554L0 13.8311V69.1895C5.99744 65.5828 12.2017 66.8898 16.2634 70.9516C20.9125 75.6006 21.1358 81.5732 18.3646 85.7838C22.9061 82.4666 29.8714 83.1284 34.5204 87.7775C39.6824 92.9394 40.6502 100.36 35.0581 107.044H50.5853C73.6155 107.044 87.3476 94.4698 87.3476 73.1851C87.3476 61.4384 76.7673 54.7212 66.129 49.3194Z" fill="#FBFAFF"/>
<path d="M69.4628 49.3199C78.2645 47.5 85.5359 39.6743 85.5359 27.9359C85.5359 15.4943 76.4529 4.17773 58.7005 4.17773H9.64551V59.5362C15.643 55.9295 21.8472 57.2365 25.9089 61.2982C30.558 65.9473 30.7813 71.9199 28.0101 76.1305C32.5516 72.8133 39.5169 73.4751 44.166 78.1241C49.3279 83.2861 50.2958 90.7064 44.7037 97.3904H60.2308C77.975 97.3904 87.3393 86.2145 87.3393 72.2342C87.3475 60.4958 79.3813 50.8585 69.4628 49.3199Z" fill="#FF6DA1"/>
</g>
<defs>
<clipPath id="clip0">
<rect width="608" height="107.044" fill="white"/>
</clipPath>
</defs>
</svg>
