<svg width="161" height="197" viewBox="0 0 161 197" fill="none" xmlns="http://www.w3.org/2000/svg">
<path d="M121.437 86.4429C137.6 82.9581 151.47 62.6351 151.47 40.1577C151.47 16.334 121.65 0.0185547 89.0499 0.0185547H17.7128L0 18.4883V124.491C11.0135 117.585 22.4068 120.088 29.8656 127.865C38.403 136.767 38.8131 148.204 33.7241 156.267C42.064 149.915 54.8549 151.182 63.3922 160.084C72.8714 169.969 74.6488 184.177 64.3796 196.976H92.8932C135.185 196.976 160.402 172.899 160.402 132.142C160.402 109.649 140.973 96.7866 121.437 86.4429Z" fill="#3564DC"/>
<path d="M127.559 86.4393C143.722 82.9545 157.075 67.9698 157.075 45.4927C157.075 21.6692 140.396 0 107.796 0H17.7126V106.002C28.7262 99.0955 40.1194 101.598 47.5782 109.376C56.1156 118.278 56.5258 129.714 51.4368 137.777C59.7766 131.425 72.5675 132.692 81.1049 141.594C90.5841 151.479 92.3614 165.687 82.0923 178.486H110.606C143.191 178.486 160.387 157.086 160.387 130.316C160.402 107.839 145.773 89.3856 127.559 86.4393Z" fill="#FF6DA1"/>
</svg>
