<svg width="608" height="108" viewBox="0 0 608 108" fill="none" xmlns="http://www.w3.org/2000/svg">
<g clip-path="url(#clip0)">
<path d="M100.956 68.739C100.956 48.0168 115.482 30.4629 139.529 30.4629C163.734 30.4629 178.261 48.0085 178.261 68.739C178.261 89.6183 163.734 107.164 139.529 107.164C115.482 107.164 100.956 89.6183 100.956 68.739ZM158.291 68.739C158.291 57.3893 151.483 47.5618 139.538 47.5618C127.584 47.5618 120.925 57.3976 120.925 68.739C120.925 80.2375 127.584 90.0733 139.538 90.0733C151.483 90.0733 158.291 80.2375 158.291 68.739Z" fill="#FF6DA1"/>
<path d="M187.782 68.739C187.782 48.0168 202.308 30.4629 226.356 30.4629C250.561 30.4629 265.087 48.0085 265.087 68.739C265.087 89.6183 250.561 107.164 226.356 107.164C202.308 107.164 187.782 89.6183 187.782 68.739ZM245.118 68.739C245.118 57.3893 238.309 47.5618 226.364 47.5618C214.411 47.5618 207.751 57.3976 207.751 68.739C207.751 80.2375 214.411 90.0733 226.364 90.0733C238.309 90.0733 245.118 80.2375 245.118 68.739Z" fill="#FF6DA1"/>
<path d="M307.284 78.864L298.507 88.2449V106.998H279.291V6.10059H298.507V66.4638L326.195 33.937H349.796L320.9 67.0677L350.706 107.007H326.65L307.284 78.864Z" fill="#FF6DA1"/>
<path d="M360.227 4.44629H379.435V41.6635C385.185 34.2515 393.358 30.4711 401.977 30.4711C420.582 30.4711 434.347 44.9973 434.347 68.896C434.347 93.2581 420.433 107.172 401.977 107.172C393.2 107.172 385.185 103.243 379.435 95.9797V105.36H360.227V4.44629ZM395.922 90.0732C407.115 90.0732 414.535 81.6023 414.535 68.896C414.535 56.1897 407.123 47.5617 395.922 47.5617C389.718 47.5617 382.612 51.1932 379.435 56.0326V81.9002C382.612 86.5906 389.726 90.0732 395.922 90.0732Z" fill="#FF6DA1"/>
<path d="M446.896 11.7007C446.896 5.34754 452.191 0.202148 458.395 0.202148C464.748 0.202148 469.893 5.34754 469.893 11.7007C469.893 18.0538 464.748 23.1992 458.395 23.1992C452.191 23.191 446.896 18.0538 446.896 11.7007ZM448.865 33.9367H468.074V107.006H448.865V33.9367Z" fill="#FF6DA1"/>
<path d="M490.913 87.1936V49.0747H478.811V32.2819H490.913V12.3125H510.279V32.2819H525.103V49.0747H510.279V82.0565C510.279 86.598 512.694 90.0724 516.93 90.0724C519.8 90.0724 522.53 89.0136 523.589 87.9547L527.676 102.481C524.805 105.054 519.66 107.171 511.644 107.171C498.177 107.163 490.913 100.206 490.913 87.1936Z" fill="#FF6DA1"/>
<path d="M571.395 30.4707C593.184 30.4707 608.008 46.8086 608.008 70.7073V74.9428H553.7C554.908 84.1664 562.32 91.8845 574.729 91.8845C581.537 91.8845 589.553 89.1629 594.243 84.6214L602.714 97.0216C595.451 103.681 583.952 107.155 572.611 107.155C550.375 107.155 533.582 92.174 533.582 68.7302C533.574 47.5613 549.151 30.4707 571.395 30.4707ZM553.394 61.9304H589.395C588.941 54.9734 584.101 45.7414 571.395 45.7414C559.441 45.7414 554.296 54.6756 553.394 61.9304Z" fill="#FF6DA1"/>
<path d="M66.129 49.5206C74.9308 47.7007 82.4834 37.0873 82.4834 25.3488C82.4834 12.9072 66.2448 4.38672 48.4924 4.38672H9.64554L0 14.0323V69.3907C5.99744 65.784 12.2017 67.091 16.2634 71.1527C20.9125 75.8018 21.1358 81.7744 18.3646 85.985C22.9061 82.6678 29.8714 83.3296 34.5204 87.9787C39.6824 93.1406 40.6502 100.561 35.0581 107.245H50.5853C73.6155 107.245 87.3476 94.671 87.3476 73.3863C87.3476 61.6395 76.7673 54.9224 66.129 49.5206Z" fill="#3564DC"/>
<path d="M69.1836 49.3579C77.9854 47.538 85.2567 39.7124 85.2567 27.974C85.2567 15.5324 76.1737 4.21582 58.4213 4.21582H9.36633V59.5743C15.3638 55.9675 21.568 57.2746 25.6297 61.3363C30.2788 65.9853 30.5021 71.9579 27.7309 76.1686C32.2724 72.8514 39.2377 73.5131 43.8868 78.1622C49.0487 83.3241 50.0166 90.7444 44.4245 97.4285H59.9517C77.6958 97.4285 87.0601 86.2525 87.0601 72.2723C87.0684 60.5339 79.1021 50.8966 69.1836 49.3579Z" fill="#FF6DA1"/>
</g>
<defs>
<clipPath id="clip0">
<rect width="608" height="107.044" fill="white" transform="translate(0 0.202148)"/>
</clipPath>
</defs>
</svg>
