<svg width="158" height="128" viewBox="0 0 158 128" fill="none" xmlns="http://www.w3.org/2000/svg">
<path fill-rule="evenodd" clip-rule="evenodd" d="M121.885 17.2744C123.776 15.1569 125.668 12.9836 126.891 10.4204C127.448 9.25015 127.726 8.1914 127.726 7.24409C127.726 5.34948 126.724 3.84494 124.722 2.50757C121.996 0.78013 119.103 0 116.044 0C115.424 0 114.852 0.0480147 114.24 0.099478C114.192 0.103454 114.145 0.10745 114.097 0.111446C110.926 0.501511 107.922 1.39309 104.974 2.50757C82.333 10.9776 62.3624 23.8498 44.5613 40.1211C41.2236 43.186 38.1084 46.4737 35.8833 50.4858C35.4036 51.3359 35.0707 52.1616 34.901 52.9465C38.0385 52.0582 41.1876 51.2435 44.3273 50.4639L44.3319 50.4627L44.3366 50.4616C45.528 50.1728 46.7204 49.8888 47.9137 49.61C49.7867 47.3577 51.831 45.256 53.9625 43.2417C63.3081 34.5488 73.655 27.1932 84.6138 20.6735C94.5156 14.7668 104.918 9.75166 115.988 6.40824C116.126 6.36228 116.276 6.30369 116.432 6.24288C116.843 6.0825 117.294 5.90672 117.657 5.90672C117.88 5.90672 118.046 5.96245 118.158 6.07389C118.269 6.24107 118.325 6.40824 118.325 6.57541C118.325 7.01172 118.052 7.51636 117.8 7.98232C117.73 8.11147 117.662 8.23764 117.601 8.35857C116.099 11.5905 113.986 14.4325 111.649 17.0515C109.786 19.1712 107.887 21.2549 105.992 23.3333C104.55 24.9157 103.11 26.4951 101.692 28.0848C99.9672 29.9794 98.2983 31.9297 97.2414 34.2701C96.9633 34.9388 96.7407 35.6632 96.7407 36.3876C96.7407 36.6663 96.7407 36.8892 96.7964 37.1678C97.0745 38.3937 98.0202 38.9509 99.1884 39.1738C99.2997 39.2296 99.4665 39.2296 99.5778 39.2296C100.17 39.2296 100.344 38.7464 100.516 38.2698C100.57 38.1196 100.624 37.97 100.69 37.8365C101.247 36.7777 101.97 35.8304 102.804 35.0503C104.139 33.7129 105.53 32.4313 106.921 31.1497L106.921 31.1497L106.921 31.1496C108.23 29.968 109.554 28.8012 110.877 27.635C114.672 24.2913 118.462 20.9513 121.885 17.2744ZM46.1796 51.809C46.0658 51.9616 45.9529 52.1149 45.8408 52.2689C45.062 53.3277 44.3388 54.4979 44.0607 55.7795C43.9494 56.1696 43.8938 56.5039 43.8938 56.7826C43.8938 57.4512 44.2832 57.6184 45.3958 57.7299C46.0815 57.7923 46.7498 57.8373 47.4203 57.8647C44.8338 58.6078 42.2575 59.3918 39.6922 60.2188C39.1326 59.9414 38.5855 59.6331 38.0528 59.2901C36.1301 58.0061 35.0375 56.5033 34.8138 54.7816C38.1083 53.8391 41.4261 52.9783 44.7455 52.1541C45.2234 52.0383 45.7014 51.9232 46.1796 51.809ZM42.2076 61.2465C46.473 59.9111 50.7694 58.6933 55.0932 57.5832C55.7849 57.5239 56.4757 57.4606 57.1646 57.3975C57.5815 57.3593 57.9976 57.3212 58.4128 57.2841C59.3356 57.1988 60.2585 57.1121 61.1813 57.0253C68.1021 56.3745 75.0228 55.7238 81.9436 55.7238C83.835 55.7238 85.7263 55.7795 87.6177 55.891C87.8017 55.902 87.9856 55.9129 88.1694 55.9237C91.7071 56.1328 95.1921 56.3388 98.5765 57.4512C99.9116 57.8413 101.191 58.3985 102.248 59.2901C103.527 60.2374 104.139 61.2962 104.139 62.5221C104.139 63.1908 103.972 63.9709 103.583 64.7511C102.749 66.4785 101.525 67.9273 100.245 69.3204L92.9024 65.5869C94.015 64.361 95.0163 63.1351 95.8507 61.6863C96.0732 61.3519 96.1845 61.0733 96.1845 60.8504C96.1845 60.5161 95.9063 60.3489 95.1832 60.2932C91.9567 60.0145 88.7303 59.9588 86.0045 59.9588C79.5497 60.0881 73.4278 60.751 67.3813 61.4056C65.6113 61.5973 63.8478 61.7882 62.0843 61.9649L61.9227 61.9811L61.9226 61.9811C58.6405 62.3099 55.4106 62.6336 52.1268 62.6336C50.0129 62.6336 47.8434 62.5221 45.7295 62.132C44.5292 61.9112 43.3505 61.6255 42.2076 61.2465Z" fill="white"/>
<path d="M5.47504 70.0045C5.65274 68.8479 6.4437 67.7295 7.86484 66.5391C10.7156 64.1032 14.0696 62.4215 17.5166 60.8669C26.2673 57.0291 35.5002 54.4496 44.7457 52.154C63.5116 47.605 82.4846 44.272 101.766 42.9599C114.112 42.1007 126.449 42.0294 138.735 43.7545C142.749 44.3733 146.665 45.259 150.222 47.386C151.879 48.3182 153.385 49.5088 154.502 51.034C155.804 52.8135 156.311 54.6395 156.024 56.512C155.871 57.5034 155.546 58.5244 154.945 59.503C153.583 61.7737 151.739 63.5191 149.637 65.1119C144.599 68.9584 139.131 71.9491 133.429 74.6221C120.864 80.5779 107.748 84.9832 94.5861 89.3248C88.9568 91.1632 83.3443 92.8914 77.7234 94.6746C77.1397 94.8101 76.6576 95.0177 76.3065 95.471C72.0557 100.792 67.8218 106.003 63.9769 111.612C63.6978 111.963 63.4736 112.323 63.4228 112.654C63.3636 113.039 63.5327 113.404 64.0952 113.772C64.3997 113.988 64.5308 114.234 64.497 114.454C64.4547 114.73 64.2009 114.916 63.7272 115.069C63.0801 115.251 62.4584 115.268 61.8536 115.175C60.8089 115.013 59.8785 114.475 59.0369 113.725C58.0938 112.903 57.9163 111.861 58.0771 110.815C58.1363 110.429 58.2505 110.052 58.3732 109.62C59.4265 106.794 61.1057 104.291 62.7849 101.787C63.9692 99.9398 65.2001 98.1563 66.4944 96.3262C66.6382 96.1228 66.727 95.911 66.7524 95.7458C66.7862 95.5255 66.7101 95.2882 66.4226 94.962C65.9405 94.4366 65.7248 94.0087 65.7756 93.6782C65.8263 93.3478 66.1985 93.1233 66.9091 92.8945C69.3875 92.1491 70.9567 90.3613 72.5428 88.4634C81.514 77.3302 84.0804 74.048 94.2822 64.063L100.747 68.7429C94.2543 76.1989 91.9478 77.191 85.4003 84.6386C84.9942 85.0834 84.6432 85.5367 84.2921 85.99C84.3302 86.1086 84.4317 86.1806 84.4697 86.2993C85.544 85.9011 86.6183 85.5029 87.7475 85.1132C98.6468 81.212 109.677 77.5565 120.357 72.8885C127.716 69.6818 134.953 66.1744 141.627 61.5654C143.72 60.0276 145.767 58.4263 147.324 56.3547C148.09 55.4015 148.707 54.3128 148.885 53.1562C148.927 52.8808 148.978 52.5504 148.965 52.2665C148.91 50.7922 148.284 49.7372 146.787 49.2245C144.977 48.5507 143.07 48.1439 141.2 47.8557C139.881 47.6523 138.553 47.5039 137.225 47.3556L137.225 47.3555C120.98 45.7531 104.862 46.9891 88.8114 49.2504C70.1767 51.8463 51.8253 55.8953 34.0405 62.1178C29.1048 63.8375 24.2536 65.7394 19.7407 68.3701C18.1251 69.3613 16.5559 70.4162 15.2193 71.7887C15.0121 72.0387 14.5764 72.3098 14.5257 72.6402C14.5172 72.6953 14.5637 72.7589 14.5553 72.8139C14.6229 73.1063 14.7794 73.1868 14.9993 73.2207C15.2192 73.2546 15.4476 73.2334 15.6676 73.2673C16.8137 73.5004 17.9683 73.6784 19.1779 73.8649C24.456 74.6787 29.8569 75.0603 35.2831 75.2767C41.8724 75.6161 48.4871 75.7902 55.1271 76.532C55.9053 76.5956 56.7299 76.7228 57.4996 76.8414L57.4998 76.8415C59.3691 77.1297 61.1581 77.5746 62.8329 78.3966C63.5603 78.7907 64.2243 79.2313 64.7275 79.9855C64.8671 80.1761 64.9897 80.4769 64.9474 80.7523C64.9305 80.8625 64.8501 81.0192 64.7698 81.176C64.5456 81.5361 64.2072 81.5403 63.8773 81.4894L63.6574 81.4555C63.391 81.358 63.0611 81.3072 62.9765 81.125C62.4098 80.4175 61.7289 80.087 61.0142 79.9768C60.2444 79.8581 59.4409 79.9597 58.7092 79.9597C50.5592 79.8871 42.4389 79.9883 34.2889 79.9157C29.569 79.8646 24.866 79.7033 20.1926 78.9828C18.2683 78.6861 16.3059 78.2708 14.3604 77.7453C11.9836 77.097 9.7759 76.0801 7.83473 74.4277C6.04159 72.9108 5.24656 71.4915 5.47504 70.0045Z" fill="white"/>
</svg>
