<svg width="455" height="80" viewBox="0 0 455 80" fill="none" xmlns="http://www.w3.org/2000/svg">
<g clip-path="url(#clip0)">
<path d="M75.4502 51.2211C75.4502 35.7342 86.3065 22.6152 104.279 22.6152C122.368 22.6152 133.225 35.7281 133.225 51.2211C133.225 66.8254 122.368 79.9383 104.279 79.9383C86.3065 79.9383 75.4502 66.8254 75.4502 51.2211ZM118.3 51.2211C118.3 42.7389 113.212 35.3942 104.285 35.3942C95.3513 35.3942 90.3745 42.7451 90.3745 51.2211C90.3745 59.8146 95.3513 67.1655 104.285 67.1655C113.212 67.1655 118.3 59.8146 118.3 51.2211Z" fill="white"/>
<path d="M140.341 51.2211C140.341 35.7342 151.197 22.6152 169.169 22.6152C187.259 22.6152 198.115 35.7281 198.115 51.2211C198.115 66.8254 187.259 79.9383 169.169 79.9383C151.197 79.9383 140.341 66.8254 140.341 51.2211ZM183.191 51.2211C183.191 42.7389 178.103 35.3942 169.175 35.3942C160.242 35.3942 155.265 42.7451 155.265 51.2211C155.265 59.8146 160.242 67.1655 169.175 67.1655C178.103 67.1655 183.191 59.8146 183.191 51.2211Z" fill="white"/>
<path d="M229.651 58.7884L223.091 65.7992V79.8147H208.729V4.4082H223.091V49.521L243.784 25.2119H261.422L239.827 49.9724L262.102 79.8209H244.124L229.651 58.7884Z" fill="white"/>
<path d="M269.219 3.17188H283.574V30.9864C287.871 25.447 293.979 22.6216 300.421 22.6216C314.325 22.6216 324.613 33.4779 324.613 51.3388C324.613 69.5459 314.214 79.9447 300.421 79.9447C293.862 79.9447 287.871 77.008 283.574 71.5799V78.5907H269.219V3.17188V3.17188ZM295.896 67.1657C304.26 67.1657 309.806 60.8349 309.806 51.3388C309.806 41.8427 304.267 35.3944 295.896 35.3944C291.259 35.3944 285.948 38.1085 283.574 41.7252V61.0575C285.948 64.5629 291.265 67.1657 295.896 67.1657Z" fill="white"/>
<path d="M333.991 8.59351C333.991 3.84544 337.948 0 342.585 0C347.333 0 351.178 3.84544 351.178 8.59351C351.178 13.3416 347.333 17.187 342.585 17.187C337.948 17.1808 333.991 13.3416 333.991 8.59351ZM335.463 25.2118H349.818V79.8207H335.463V25.2118Z" fill="white"/>
<path d="M366.888 65.0137V36.5253H357.843V23.975H366.888V9.05078H381.361V23.975H392.439V36.5253H381.361V61.1744C381.361 64.5685 383.166 67.1651 386.331 67.1651C388.476 67.1651 390.517 66.3738 391.308 65.5825L394.362 76.4387C392.217 78.3614 388.371 79.9441 382.381 79.9441C372.316 79.9379 366.888 74.7386 366.888 65.0137Z" fill="white"/>
<path d="M427.036 22.6211C443.32 22.6211 454.399 34.8313 454.399 52.6922V55.8576H413.812C414.715 62.7509 420.254 68.5191 429.528 68.5191C434.616 68.5191 440.606 66.4851 444.112 63.091L450.443 72.3583C445.014 77.3352 436.421 79.9318 427.945 79.9318C411.327 79.9318 398.776 68.7355 398.776 51.2146C398.77 35.3939 410.412 22.6211 427.036 22.6211ZM413.583 46.1327H440.489C440.149 40.9333 436.532 34.0338 427.036 34.0338C418.102 34.0338 414.257 40.7107 413.583 46.1327Z" fill="white"/>
<path d="M49.4219 36.86C56 35.4999 61.6445 27.5679 61.6445 18.7951C61.6445 9.49676 49.5085 3.12891 36.2411 3.12891H7.20866L0 10.3376V51.7101C4.48223 49.0145 9.11901 49.9914 12.1546 53.0269C15.6291 56.5014 15.796 60.9651 13.7249 64.1119C17.119 61.6328 22.3246 62.1274 25.7991 65.6019C29.6569 69.4597 30.3802 75.0053 26.2009 80.0006H37.8053C55.017 80.0006 65.2798 70.6034 65.2798 54.6961C65.2798 45.9172 57.3725 40.8971 49.4219 36.86Z" fill="#FF6DA1"/>
<path d="M51.9138 36.8603C58.4918 35.5002 63.9262 29.6516 63.9262 20.8788C63.9262 11.5805 57.1379 3.12305 43.8705 3.12305H7.20898V44.4955C11.6912 41.8 16.328 42.7768 19.3635 45.8124C22.838 49.2869 23.005 53.7506 20.9339 56.8974C24.328 54.4183 29.5336 54.9129 33.0081 58.3873C36.8659 62.2452 37.5892 67.7908 33.4099 72.7861H45.0142C58.2754 72.7861 65.2739 64.4337 65.2739 53.9855C65.2801 45.2127 59.3265 38.0102 51.9138 36.8603Z" fill="white"/>
</g>
<defs>
<clipPath id="clip0">
<rect width="454.393" height="80" fill="white"/>
</clipPath>
</defs>
</svg>
