<svg width="34" height="32" viewBox="0 0 34 32" fill="none" xmlns="http://www.w3.org/2000/svg">
<path d="M1 16C5 16 5 8 9 8" stroke="#896FC2" stroke-width="2" stroke-linecap="round" stroke-linejoin="round"/>
<path d="M1 16C5 16 5 24 9 24" stroke="#896FC2" stroke-width="2" stroke-linecap="round" stroke-linejoin="round"/>
<path d="M17 16C13 16 13 24 9 24" stroke="#896FC2" stroke-width="2" stroke-linecap="round" stroke-linejoin="round"/>
<path d="M17 16C13 16 13 8 9 8" stroke="#896FC2" stroke-width="2" stroke-linecap="round" stroke-linejoin="round"/>
<path d="M17 16C21 16 21 8 25 8" stroke="#896FC2" stroke-width="2" stroke-linecap="round" stroke-linejoin="round"/>
<path d="M17 16C21 16 21 24 25 24" stroke="#896FC2" stroke-width="2" stroke-linecap="round" stroke-linejoin="round"/>
<g opacity="0.4">
<path d="M33 16C29 16 29 24 25 24" stroke="#896FC2" stroke-width="2" stroke-linecap="round" stroke-linejoin="round"/>
<path d="M33 16C29 16 29 8 25 8" stroke="#896FC2" stroke-width="2" stroke-linecap="round" stroke-linejoin="round"/>
</g>
</svg>
